<svg xmlns="http://www.w3.org/2000/svg" width="50" height="50" fill="none"><g fill="#29B384" clip-path="url(#a)"><path d="M23.806 11.97v2.573c-1.446.199-2.644.801-3.584 1.807-.94 1.006-1.415 2.199-1.415 3.578 0 1.162.307 2.168.927 3.018.62.85 1.976 1.783 4.073 2.79v7.312c-.826 0-1.723-.163-2.675-.494-.957-.331-1.71-.735-2.265-1.223v2.482c1.265.82 2.916 1.229 4.94 1.229v2.981h1.488v-3.096c1.62-.259 2.879-.843 3.789-1.765.91-.921 1.361-2.054 1.361-3.403 0-1.12-.361-2.126-1.09-3.006-.73-.88-2.085-1.789-4.06-2.735v-7.536c1.607.054 2.897.464 3.866 1.229v-2.428c-.71-.476-2.006-.74-3.867-.8V11.97h-1.488Zm0 11.253c-.97-.536-1.645-1.06-2.03-1.584-.38-.524-.573-1.193-.573-2.012 0-.783.235-1.445.7-1.994.463-.548 1.102-.903 1.897-1.066v6.656h.006Zm4.24 6.74c0 1.58-.92 2.573-2.758 2.97v-6.457c1.837 1.012 2.759 2.175 2.759 3.488Z"/><path d="M39.818.134a.898.898 0 0 0-.88-.036L24.626 7.32 10.313.098A.906.906 0 0 0 9 .905v48.191c0 .5.404.904.904.904h29.438c.5 0 .903-.404.903-.904V.906a.888.888 0 0 0-.427-.772Zm-1.374 48.058H10.807V2.375l13.41 6.77c.252.127.56.127.812 0l13.41-6.77-.001 45.817h.006Z"/><path d="M12.498 42.302c0 .5.404.903.904.903h22.445a.903.903 0 1 0 0-1.807H13.402c-.5 0-.903.404-.903.904Z"/></g><defs><clipPath id="a"><path fill="#fff" d="M0 0h50v50H0z"/></clipPath></defs></svg>