<svg xmlns="http://www.w3.org/2000/svg" width="50" height="50" fill="none"><g fill="#29B384" clip-path="url(#a)"><path d="m49.326 14.65-23.75-12.5c-.358-.2-.794-.2-1.15 0L.674 14.65A1.249 1.249 0 0 0 0 15.75v30A1.25 1.25 0 0 0 1.25 47h7.5A1.25 1.25 0 0 0 10 45.75V24.5h30v21.25A1.25 1.25 0 0 0 41.25 47h7.5A1.251 1.251 0 0 0 50 45.75v-30a1.249 1.249 0 0 0-.675-1.1ZM47.5 44.5h-5V23.25A1.25 1.25 0 0 0 41.25 22H8.75c-.69 0-1.25.56-1.25 1.25V44.5h-5v-28L25 4.663 47.5 16.5v28Z"/><path d="M32.5 37H30v-6.25a1.251 1.251 0 0 0-1.25-1.25h-7.5c-.69 0-1.25.56-1.25 1.25V37h-2.5c-.69 0-1.25.56-1.25 1.25v7.5A1.25 1.25 0 0 0 17.5 47h15a1.25 1.25 0 0 0 1.25-1.25v-7.5A1.25 1.25 0 0 0 32.5 37Zm-10-5h5v5h-5v-5Zm-3.75 7.5h5v5h-5v-5Zm12.5 5h-5v-5h5v5Z"/></g><defs><clipPath id="a"><path fill="#fff" d="M0 0h50v50H0z"/></clipPath></defs></svg>