<svg xmlns="http://www.w3.org/2000/svg" width="50" height="50" fill="none"><g fill="#29B384" clip-path="url(#a)"><path d="M31.042 13.303c-.377-.269-.861-.161-1.13.162l-6.188 8.663-2.798-3.874c-.269-.377-.753-.43-1.13-.162-.377.27-.43.754-.161 1.13l3.443 4.79a.767.767 0 0 0 .646.322c.269 0 .484-.108.645-.323l6.888-9.577c.27-.377.162-.862-.215-1.13Z"/><path d="M25.446 5.932c-6.295 0-11.407 5.111-11.407 11.407s5.112 11.407 11.407 11.407c6.296 0 11.407-5.112 11.407-11.407 0-6.296-5.111-11.407-11.407-11.407Zm0 21.2c-5.38 0-9.793-4.413-9.793-9.793 0-5.38 4.413-9.793 9.793-9.793 5.38 0 9.793 4.412 9.793 9.793 0 5.38-4.412 9.793-9.793 9.793Z"/><path d="M40.135 26.27c.27-.16.377-.43.377-.698v-4.197l2.099-3.659a.733.733 0 0 0 0-.807l-2.099-3.605V9.107c0-.27-.161-.538-.43-.7L36.423 6.31 34.324 2.65c-.16-.27-.43-.43-.7-.43h-4.196L25.769.12a.733.733 0 0 0-.807 0L21.304 2.22h-4.197c-.27 0-.538.16-.7.43L14.31 6.309 10.65 8.407c-.27.162-.43.43-.43.7v4.197L8.12 16.962a.733.733 0 0 0 0 .807l2.098 3.659v4.144c0 .269.161.538.43.7l3.659 2.098 1.291 2.26L9.68 45.803c-.107.323-.053.646.216.861.215.215.591.27.914.161l4.843-2.206 2.044 4.897c.108.323.43.484.754.484a.81.81 0 0 0 .753-.538l5.865-14.959c.108.054.215.054.323.054.107 0 .215-.053.322-.053l5.865 14.958c.108.323.43.484.754.538.322 0 .591-.215.753-.484l2.044-4.897 4.843 2.206c.323.162.645.054.915-.16.215-.216.322-.593.215-.862l-5.92-15.173 1.292-2.26 3.66-2.1Zm-21.63 20.824-1.614-3.82c-.108-.215-.27-.377-.43-.43-.108-.055-.216-.055-.27-.055-.108 0-.215 0-.323.054l-3.766 1.722 4.789-12.268c.053 0 .107.054.161.054h.054c.053 0 .161.053.215.053h1.668c1.937-.053 2.582-.053 4.412 1.076h.054c.108.054.215.108.323.216 0 0 .053 0 .053.053l-5.326 13.345Zm16.626-4.25a.685.685 0 0 0-.645 0 .584.584 0 0 0-.43.43l-1.615 3.82-5.22-13.398c2.153-1.399 2.745-1.345 4.843-1.345h1.614c.162 0 .323-.054.485-.108l4.735 12.322-3.767-1.722Zm.054-15.497-1.614 2.798-.377.645h-1.345c-2.314-.053-3.175.054-5.596 1.615a4.718 4.718 0 0 1-.538.322l-.269.162-.27-.161-.483-.323a.409.409 0 0 0-.215-.108c-.054-.053-.162-.107-.215-.161-.108-.054-.162-.108-.216-.161-.053-.054-.107-.054-.16-.108a.409.409 0 0 0-.216-.108c-.054-.053-.108-.053-.161-.108-.054-.053-.162-.053-.215-.107-.054 0-.108-.054-.162-.054-.053-.054-.161-.054-.215-.108-.053 0-.107-.053-.107-.053-.054-.054-.162-.054-.216-.108-.053 0-.053-.054-.107-.054-.108-.053-.215-.108-.377-.108-.054 0-.108-.053-.162-.053-.053 0-.107-.054-.16-.054h-.217c-.054 0-.108 0-.162-.054-.053 0-.107 0-.16-.053h-3.66l-.377-.646-1.614-2.798a.648.648 0 0 0-.27-.269l-3.335-2.045v-3.928c0-.161-.053-.269-.107-.43l-1.991-3.444 1.99-3.444c.054-.107.108-.269.108-.43V9.483l3.444-1.99a.648.648 0 0 0 .269-.27l1.99-3.443h3.929c.161 0 .269-.054.43-.108l3.39-1.884L28.89 3.78c.107.054.269.108.43.108h3.928l1.99 3.444a.648.648 0 0 0 .27.269l3.443 1.99v3.928c0 .162.054.27.108.43l1.99 3.444-2.043 3.337c-.054.107-.108.269-.108.43v3.928l-3.444 1.99c-.108.055-.161.162-.269.27Z"/></g><defs><clipPath id="a"><path fill="#fff" d="M0 0h50v50H0z"/></clipPath></defs></svg>