<svg xmlns="http://www.w3.org/2000/svg" width="50" height="50" fill="none"><g clip-path="url(#a)"><path fill="#29B384" d="m49.163 22.282-.013-.323.152-.412a1.62 1.62 0 0 0 .098-.654 1.634 1.634 0 0 0 .15-2.388l-.67-.704-.197-.37a1.63 1.63 0 0 0-1.439-.863h-.405l-1.09-.737a1.63 1.63 0 0 0-.912-.279H42.48l-.4-.71a1.63 1.63 0 0 0-1.421-.833h-1.543a1.63 1.63 0 0 0-1.175.5l-.612-.217a1.673 1.673 0 0 0-.263-.07l-.892-1.598a1.63 1.63 0 0 0-1.146-.812l-.753-.13a1.63 1.63 0 0 0-.28-1.497l-.803-1.014-.852-1.391a1.63 1.63 0 0 0-1.5-.776l-2.334.159c-.298.02-.584.121-.827.293l-.553.388-.046-.025a1.628 1.628 0 0 0-1.364-.106l-2.333.865c-.396.147-.72.442-.903.821l-.489 1.016c-.039.08-.07.164-.095.25a1.66 1.66 0 0 0-.235.036l-.266.062a1.631 1.631 0 0 0-1.764-.823l-1.026.211-1.437-.16a1.685 1.685 0 0 0-.428.01l-.226.035-.368-.325a1.632 1.632 0 0 0-.985-.404l-1.348-.076-.91-.96a1.63 1.63 0 0 0-1.619-.45l-3.124.865a1.63 1.63 0 0 0-.802.51l-.224.261a1.629 1.629 0 0 0-1.946.808l-.677 1.317a1.63 1.63 0 0 0 .21 1.805l.714.835-.597.348c-.14.082-.266.184-.376.302l-2.747 2.974a1.63 1.63 0 0 0-.37 1.554l.156.546-.372.299c-.23.187-.406.435-.506.714l-.527 1.468a1.63 1.63 0 0 0 .002 1.109L.7 25.19c.143.393.43.715.804.902l1.656.828c.226.113.476.172.73.172h1.468l1.893.532.543.413a1.63 1.63 0 0 0 1.902.053l.775-.524 2.048-.061a1.63 1.63 0 0 0 1.16-.534l.932-1.03.954.07.693.565c.078.063.16.119.249.167l1.29.704.857 1.33.661 1.076a1.632 1.632 0 0 0-1.574 1.225l-.308 1.194-.76 1.765-.741.713a1.633 1.633 0 0 0 .022 2.372l1.016.941a1.632 1.632 0 0 0 1.606.357l1.086-.349.355.33a1.63 1.63 0 0 0 2.628-.602l.683-1.753 1.394-.958c.394-.271.65-.703.698-1.18l.08-.783.298-.006c.064.428.296.816.649 1.074l1.129.828c.032.023.065.046.099.067-.294.3-.464.708-.464 1.139v.565c0 .877.693 1.596 1.569 1.63l1.652.062.085.042a1.63 1.63 0 0 0-.01 1.48l.564 1.13a1.63 1.63 0 0 0 1.459.9h2.032a1.63 1.63 0 0 0 1.623-1.789l-.038-.392.005-.002c.117-.054.227-.123.328-.203l.973-.774 1.59.108a1.63 1.63 0 0 0 1.538-.838l.79-1.43a1.63 1.63 0 0 0-.464-2.104l-.565-.414a1.631 1.631 0 0 0-1.353-.269l-1.766.434-.613-.143a1.63 1.63 0 0 0 .786-.733l.294-.559h.446c.141 0 .281-.018.417-.054l1.994-.526c.355-.094.668-.305.889-.598l.294-.393 2.067-.846c.322-.131.594-.363.775-.66l.94-1.543a1.45 1.45 0 0 0 .055-.097l.335-.643.139-.114 2.004-.06a1.63 1.63 0 0 0 1.573-1.453l.188-1.73c.033-.3-.018-.601-.146-.873l-.497-1.057Zm-1.392-1.299-.263.715.037.978.64 1.355-.188 1.731-2.559.075-.828.678-.489.94L43.18 29l-2.484 1.016-.565.753-1.995.526h-1.43l-.753 1.43-1.468.452v1.468l1.13 1.016 1.618.376 2.145-.527.565.414-.79 1.43-2.221-.15-1.468 1.167-1.054.489.15 1.543h-2.032l-.565-1.129.64-1.016-.527-.79-1.242-.602-1.994-.076v-.563l2.522-1.43.827-.452-.978-1.092-.565.302-2.107.15-1.13-.828.904-.827-.865-.602-1.544.037-1.881.038-.226 2.22-1.806 1.242-.866 2.22-1.054-.978-1.994.64-1.016-.941.978-.941.941-2.183.339-1.317 1.393.338h.903l-.263-1.769-1.317-2.145-1.092-1.693-1.656-.904-1.092-.888-2.258-.165-1.467 1.618-2.522.075-1.167.79-.79-.602-2.408-.677H3.889l-1.656-.828-.602-1.656.527-1.467 1.204-.979-.451-1.58 2.747-2.974 1.354-.79.49-1.054-1.544-1.807.678-1.317.827.565 1.13-1.317 3.124-.865 1.354 1.43 1.995.113.941.828.978-.15 1.694.187 1.28-.263.451 1.129 1.619-.376 1.43.3v-1.467l.489-1.016 2.334-.865.94.527 1.393-.979 2.334-.159.903 1.476.866 1.092-.603.527.678 1.354 1.957.339.903 1.618.339.828.79-.038 1.694.602.64-.79h1.543l.865 1.543h3.312l1.505 1.016h.904l.301.565.824.866-1.125.903.526.45Z"/></g><defs><clipPath id="a"><path fill="#fff" d="M0 0h50v50H0z"/></clipPath></defs></svg>