<svg xmlns="http://www.w3.org/2000/svg" width="174" height="52" fill="none"><path fill="#1E91D0" d="M56.176 15.04h2.808v7.91h.224a3.92 3.92 0 0 1 1.714-1.885c.79-.457 1.727-.686 2.808-.686 1.617 0 2.865.466 3.744 1.398.888.931 1.332 2.25 1.332 3.955V35H65.97v-8.57c0-2.302-1.068-3.454-3.203-3.454-1.152 0-2.066.334-2.743 1.002-.676.66-1.015 1.538-1.015 2.637V35h-2.834V15.04ZM78.707 22.779c-1.046 0-1.908.338-2.584 1.015-.677.677-1.055 1.578-1.134 2.703h7.25c-.034-1.134-.368-2.035-1.001-2.703-.642-.677-1.486-1.015-2.531-1.015Zm6.249 8.345c-.326 1.292-1.033 2.307-2.123 3.045-1.099.739-2.465 1.108-4.1 1.108-2.057 0-3.674-.664-4.852-1.991-1.186-1.318-1.78-3.125-1.78-5.418 0-2.294.598-4.118 1.793-5.472 1.196-1.353 2.804-2.03 4.826-2.03 1.995 0 3.564.642 4.706 1.925 1.134 1.283 1.701 3.054 1.701 5.313v.989H74.989v.158c.044 1.265.408 2.267 1.094 3.006.686.738 1.595 1.107 2.729 1.107 1.731 0 2.87-.58 3.415-1.74h2.729ZM88.66 15.04h2.835V35H88.66V15.04ZM95.806 20.643h2.821V35h-2.821V20.643Zm1.41-2.518c-.527 0-.962-.167-1.305-.501a1.6 1.6 0 0 1-.527-1.226c0-.492.176-.905.527-1.24.343-.333.778-.5 1.305-.5.528 0 .967.167 1.319.5.342.335.514.748.514 1.24s-.172.9-.514 1.226c-.352.334-.791.5-1.319.5ZM108.857 32.759c1.222 0 2.171-.435 2.848-1.306.668-.86 1.002-2.074 1.002-3.638 0-1.556-.334-2.769-1.002-3.639-.677-.861-1.626-1.292-2.848-1.292-1.23 0-2.179.43-2.847 1.292-.668.862-1.002 2.074-1.002 3.639 0 1.573.334 2.79 1.002 3.652.668.861 1.617 1.292 2.847 1.292Zm0 2.518c-2.109 0-3.766-.664-4.97-1.991-1.204-1.327-1.806-3.15-1.806-5.471 0-2.312.607-4.131 1.819-5.458 1.204-1.327 2.857-1.99 4.957-1.99 2.092 0 3.74.663 4.944 1.99 1.213 1.327 1.82 3.146 1.82 5.458 0 2.32-.602 4.144-1.807 5.471-1.204 1.327-2.856 1.99-4.957 1.99ZM119.035 20.643h2.729v2.307h.211c.668-1.723 2-2.584 3.995-2.584 1.942 0 3.26.861 3.955 2.584h.224c.369-.79.94-1.42 1.714-1.885.782-.466 1.665-.699 2.65-.699 1.45 0 2.579.418 3.388 1.253.8.834 1.2 1.999 1.2 3.493V35h-2.835v-9.15c0-1.924-.927-2.887-2.782-2.887-.905 0-1.639.29-2.201.87-.554.563-.831 1.275-.831 2.136V35h-2.782v-9.425c0-.809-.25-1.446-.751-1.912-.501-.466-1.173-.699-2.017-.699-.861 0-1.582.312-2.162.936-.58.624-.87 1.398-.87 2.32V35h-2.835V20.644ZM148.975 22.779c-1.046 0-1.907.338-2.584 1.015-.677.677-1.055 1.578-1.134 2.703h7.251c-.035-1.134-.369-2.035-1.002-2.703-.641-.677-1.485-1.015-2.531-1.015Zm6.249 8.345c-.325 1.292-1.033 2.307-2.122 3.045-1.099.739-2.466 1.108-4.101 1.108-2.056 0-3.673-.664-4.851-1.991-1.187-1.318-1.78-3.125-1.78-5.418 0-2.294.598-4.118 1.793-5.472 1.195-1.353 2.804-2.03 4.825-2.03 1.995 0 3.564.642 4.707 1.925 1.134 1.283 1.701 3.054 1.701 5.313v.989h-10.139v.158c.044 1.265.409 2.267 1.095 3.006.685.738 1.595 1.107 2.729 1.107 1.731 0 2.869-.58 3.414-1.74h2.729ZM164.044 35.237c-1.828 0-3.278-.668-4.351-2.004-1.072-1.336-1.608-3.142-1.608-5.418 0-2.268.54-4.07 1.622-5.405 1.072-1.336 2.518-2.004 4.337-2.004.984 0 1.868.22 2.65.659a4.257 4.257 0 0 1 1.753 1.859h.211V15.04h2.835V35h-2.716v-2.268h-.224c-.914 1.67-2.417 2.505-4.509 2.505Zm.804-12.287c-1.195 0-2.131.435-2.808 1.305-.686.862-1.028 2.048-1.028 3.56 0 1.52.338 2.716 1.015 3.586.685.861 1.626 1.292 2.821 1.292 1.195 0 2.136-.435 2.821-1.305.695-.87 1.042-2.057 1.042-3.56 0-1.494-.347-2.68-1.042-3.56-.694-.878-1.634-1.318-2.821-1.318Z"/><circle cx="26" cy="26" r="11" fill="#1E91D0"/><rect width="31.456" height="31.456" x="3.536" y="25.778" stroke="#1E91D0" stroke-width="5" rx="3.5" transform="rotate(-45 3.536 25.778)"/></svg>