<svg width="174" height="52" fill="none" xmlns="http://www.w3.org/2000/svg"><path d="M56.175 15.04h2.808v7.91h.225a3.919 3.919 0 011.713-1.886c.791-.457 1.727-.685 2.809-.685 1.617 0 2.865.466 3.744 1.397.887.932 1.331 2.25 1.331 3.955V35h-2.834v-8.57c0-2.303-1.068-3.454-3.204-3.454-1.151 0-2.065.334-2.742 1.002-.677.66-1.015 1.538-1.015 2.637v8.384h-2.835V15.04zm22.531 7.738c-1.046 0-1.907.339-2.584 1.016-.677.676-1.055 1.577-1.134 2.702h7.251c-.035-1.134-.369-2.035-1.002-2.702-.641-.677-1.485-1.016-2.53-1.016zm6.25 8.346c-.326 1.292-1.034 2.307-2.124 3.045-1.098.738-2.465 1.107-4.1 1.107-2.056 0-3.673-.663-4.851-1.99-1.187-1.319-1.78-3.125-1.78-5.419 0-2.294.598-4.117 1.793-5.471 1.195-1.354 2.804-2.03 4.825-2.03 1.995 0 3.564.641 4.707 1.925 1.134 1.283 1.7 3.054 1.7 5.313v.988H74.988v.159c.044 1.265.409 2.267 1.094 3.005.686.739 1.596 1.108 2.73 1.108 1.731 0 2.87-.58 3.414-1.74h2.73zM88.66 15.04h2.834V35H88.66V15.04zm7.145 5.603h2.821v14.356h-2.82V20.643zm1.41-2.518c-.526 0-.962-.168-1.304-.502a1.6 1.6 0 01-.528-1.226c0-.492.176-.905.528-1.239.342-.334.778-.5 1.305-.5.527 0 .967.166 1.318.5.343.334.514.747.514 1.24 0 .492-.171.9-.514 1.226-.351.334-.79.5-1.318.5zm11.642 14.633c1.222 0 2.171-.435 2.848-1.305.668-.861 1.002-2.074 1.002-3.639 0-1.555-.334-2.768-1.002-3.638-.677-.861-1.626-1.292-2.848-1.292-1.231 0-2.18.43-2.848 1.292-.668.861-1.002 2.074-1.002 3.639 0 1.573.334 2.79 1.002 3.651.668.862 1.617 1.292 2.848 1.292zm0 2.518c-2.109 0-3.766-.663-4.97-1.99-1.204-1.328-1.806-3.151-1.806-5.472 0-2.311.606-4.13 1.819-5.458 1.204-1.327 2.856-1.99 4.957-1.99 2.092 0 3.74.663 4.944 1.99 1.213 1.328 1.819 3.147 1.819 5.458 0 2.32-.602 4.145-1.806 5.472-1.204 1.327-2.856 1.99-4.957 1.99zm10.178-14.633h2.729v2.307h.211c.668-1.723 1.999-2.584 3.994-2.584 1.943 0 3.261.861 3.955 2.584h.224c.37-.791.941-1.42 1.714-1.886.783-.465 1.666-.698 2.65-.698 1.45 0 2.58.417 3.388 1.252.8.835 1.2 2 1.2 3.494v9.887h-2.834V25.85c0-1.925-.928-2.887-2.782-2.887-.905 0-1.639.29-2.202.87-.553.563-.83 1.274-.83 2.136v9.03h-2.782v-9.426c0-.808-.251-1.446-.752-1.911-.501-.466-1.173-.7-2.017-.7-.861 0-1.582.313-2.162.937-.58.624-.87 1.397-.87 2.32V35h-2.834V20.643zm29.94 2.135c-1.046 0-1.908.339-2.584 1.016-.677.676-1.055 1.577-1.134 2.702h7.251c-.035-1.134-.369-2.035-1.002-2.702-.642-.677-1.485-1.016-2.531-1.016zm6.249 8.346c-.326 1.292-1.033 2.307-2.123 3.045-1.099.738-2.465 1.107-4.1 1.107-2.057 0-3.674-.663-4.852-1.99-1.186-1.319-1.779-3.125-1.779-5.419 0-2.294.597-4.117 1.793-5.471 1.195-1.354 2.803-2.03 4.825-2.03 1.995 0 3.564.641 4.706 1.925 1.134 1.283 1.701 3.054 1.701 5.313v.988h-10.138v.159c.044 1.265.409 2.267 1.094 3.005.686.739 1.595 1.108 2.729 1.108 1.732 0 2.87-.58 3.415-1.74h2.729zm8.819 4.113c-1.828 0-3.278-.668-4.35-2.004-1.072-1.336-1.609-3.142-1.609-5.418 0-2.268.541-4.07 1.622-5.406 1.072-1.336 2.518-2.004 4.337-2.004.985 0 1.868.22 2.65.66a4.259 4.259 0 011.754 1.858h.211V15.04h2.834V35h-2.716v-2.268h-.224c-.914 1.67-2.417 2.505-4.509 2.505zm.805-12.287c-1.196 0-2.132.435-2.808 1.305-.686.861-1.029 2.048-1.029 3.56 0 1.52.339 2.715 1.015 3.585.686.862 1.626 1.292 2.822 1.292 1.195 0 2.135-.435 2.821-1.305.694-.87 1.041-2.056 1.041-3.56 0-1.494-.347-2.68-1.041-3.559s-1.635-1.318-2.821-1.318z" fill="#1E91D0"/><circle cx="26" cy="26" r="11" fill="#1E91D0"/><rect x="3.536" y="25.778" width="31.456" height="31.456" rx="3.5" transform="rotate(-45 3.536 25.778)" stroke="#1E91D0" stroke-width="5"/></svg>