<svg width="20" height="20" viewBox="0 0 20 20" fill="none" xmlns="http://www.w3.org/2000/svg">
<g clip-path="url(#clip0_206_14649)">
<path d="M7.41504 1.9628C7.41504 1.87992 7.44797 1.80043 7.50657 1.74183C7.56517 1.68323 7.64466 1.6503 7.72754 1.6503C8.06412 1.65071 8.38676 1.7846 8.62476 2.02259C8.86276 2.26058 8.99667 2.58326 8.99709 2.91983V7.871C8.99709 7.95388 8.96417 8.03337 8.90551 8.09198C8.84692 8.15058 8.76742 8.1835 8.68459 8.1835C8.60167 8.1835 8.52217 8.15058 8.46359 8.09198C8.40501 8.03337 8.37209 7.95388 8.37209 7.871V2.91983C8.37184 2.74895 8.30389 2.58513 8.18307 2.46431C8.06223 2.34348 7.89842 2.27551 7.72754 2.2753C7.64466 2.2753 7.56517 2.24238 7.50657 2.18377C7.44797 2.12517 7.41504 2.04568 7.41504 1.9628ZM9.66117 3.64248C9.82692 3.64248 9.98584 3.70833 10.1031 3.82554C10.2203 3.94276 10.2862 4.10173 10.2862 4.26748V12.3581C10.2868 12.6522 10.1715 12.9346 9.96542 13.1445C9.42676 13.696 9.46584 14.294 9.46584 14.6581C9.46584 14.741 9.49876 14.8205 9.55734 14.879C9.61592 14.9377 9.69542 14.9706 9.77834 14.9706C9.86117 14.9706 9.94067 14.9377 9.99926 14.879C10.0579 14.8205 10.0908 14.741 10.0908 14.6581C10.0908 14.3456 10.0486 13.9523 10.4115 13.5815C10.7327 13.2555 10.9123 12.8158 10.9112 12.3581V4.26748C10.9112 3.93597 10.7794 3.61803 10.545 3.3836C10.3106 3.14918 9.99267 3.01748 9.66117 3.01748C9.57826 3.01748 9.49876 3.05041 9.44017 3.10902C9.38159 3.16762 9.34867 3.24711 9.34867 3.32998C9.34867 3.41287 9.38159 3.49235 9.44017 3.55096C9.49876 3.60956 9.57826 3.64248 9.66117 3.64248ZM9.79784 15.4686H3.85371C3.77083 15.4686 3.69134 15.5015 3.63274 15.5602C3.57413 15.6188 3.54121 15.6983 3.54121 15.7811C3.54121 15.864 3.57413 15.9435 3.63274 16.0021C3.69134 16.0607 3.77083 16.0936 3.85371 16.0936H9.79784C9.93767 16.0939 10.0717 16.1495 10.1705 16.2484C10.2693 16.3472 10.325 16.4812 10.3252 16.621V16.8163C10.325 16.9561 10.2693 17.0901 10.1705 17.189C10.0717 17.2878 9.93767 17.3435 9.79784 17.3436H2.37597C2.23618 17.3435 2.10217 17.2878 2.00332 17.189C1.90447 17.0901 1.84884 16.9561 1.84863 16.8163V16.621C1.84884 16.4812 1.90447 16.3472 2.00332 16.2484C2.10217 16.1495 2.23618 16.0939 2.37597 16.0936C2.45886 16.0936 2.53834 16.0607 2.59695 16.0021C2.65555 15.9435 2.68847 15.864 2.68847 15.7811V14.6155C2.68847 13.9382 2.31933 13.678 1.88301 13.3683C1.71552 13.249 1.57894 13.0915 1.48463 12.9088C1.39032 12.726 1.34102 12.5235 1.34082 12.3179V8.14444C1.34082 7.9735 1.40872 7.80956 1.5296 7.68868C1.65047 7.56782 1.81441 7.49991 1.98535 7.49991C2.15629 7.49991 2.32023 7.56782 2.44111 7.68868C2.56197 7.80956 2.62988 7.9735 2.62988 8.14444V10.0929C2.62988 10.1758 2.66281 10.2552 2.72141 10.3139C2.78002 10.3725 2.8595 10.4054 2.94238 10.4054C3.02527 10.4054 3.10475 10.3725 3.16336 10.3139C3.22196 10.2552 3.25488 10.1758 3.25488 10.0929V2.91983C3.25488 2.74889 3.32279 2.58495 3.44366 2.46408C3.56453 2.34321 3.72847 2.2753 3.89942 2.2753C4.07036 2.2753 4.23429 2.34321 4.35517 2.46408C4.47604 2.58495 4.54394 2.74889 4.54394 2.91983V8.2128C4.54394 8.29568 4.57687 8.37513 4.63547 8.43379C4.69408 8.49238 4.77357 8.52529 4.85644 8.52529C4.93932 8.52529 5.01881 8.49238 5.07742 8.43379C5.13602 8.37513 5.16894 8.29568 5.16894 8.2128V1.89444C5.16894 1.7235 5.23685 1.55956 5.35772 1.43868C5.4786 1.31782 5.64253 1.24991 5.81347 1.24991C5.98442 1.24991 6.14836 1.31782 6.26923 1.43868C6.3901 1.55956 6.45801 1.7235 6.45801 1.89444V8.2128C6.45801 8.29568 6.49093 8.37513 6.54953 8.43379C6.60814 8.49238 6.68762 8.52529 6.77051 8.52529C6.85339 8.52529 6.93287 8.49238 6.99148 8.43379C7.05008 8.37513 7.08301 8.29568 7.08301 8.2128V1.89444C7.08209 1.56413 6.95248 1.24719 6.72168 1.01089C6.49089 0.774593 6.17709 0.637552 5.84689 0.628858C5.5167 0.620165 5.19612 0.740505 4.95321 0.964334C4.7103 1.18816 4.56419 1.49784 4.5459 1.82764C3.70176 1.32803 2.62988 1.93975 2.62988 2.91983V7.05147C1.78652 6.55225 0.71582 7.16436 0.71582 8.14522V12.3179C0.716072 12.6232 0.789304 12.9241 0.929416 13.1955C1.06952 13.4668 1.27245 13.7006 1.52129 13.8776C1.95097 14.1823 2.06347 14.2725 2.06347 14.6155V15.512C1.82194 15.5804 1.60928 15.7256 1.45773 15.9258C1.30617 16.1259 1.22399 16.37 1.22363 16.621V16.8163C1.22399 17.0674 1.30617 17.3114 1.45773 17.5115C1.60928 17.7116 1.82194 17.8569 2.06347 17.9253V19.0624C2.06347 19.1453 2.0964 19.2248 2.15501 19.2834C2.21361 19.342 2.2931 19.3749 2.37597 19.3749C2.45886 19.3749 2.53834 19.342 2.59695 19.2834C2.65555 19.2248 2.68847 19.1453 2.68847 19.0624V17.9686H9.46584V19.0624C9.46584 19.1453 9.49876 19.2248 9.55734 19.2834C9.61592 19.342 9.69542 19.3749 9.77834 19.3749C9.86117 19.3749 9.94067 19.342 9.99926 19.2834C10.0579 19.2248 10.0908 19.1453 10.0908 19.0624V17.9296C10.3369 17.8646 10.5547 17.7201 10.7101 17.5185C10.8655 17.317 10.9499 17.0697 10.9502 16.8151V16.6198C10.9496 16.3145 10.8279 16.0219 10.6119 15.8061C10.3959 15.5903 10.1032 15.469 9.79784 15.4686Z" fill="#082242"/>
<path d="M18.7501 15.8782H18.7918V15.8366V12.3257C18.7918 12.2091 18.7037 12.1086 18.588 12.1086C18.4723 12.1086 18.3843 12.2091 18.3843 12.3257V15.4438H16.8472V13.2035V13.1618H16.8056H14.8612H14.8195V13.2035V15.4438H13.2824V12.1502C13.2824 12.0336 13.1944 11.933 13.0787 11.933C12.963 11.933 12.875 12.0336 12.875 12.1502V15.8366V15.8782H12.9167H15.1852H15.2269V15.8366V13.5962H16.4398V15.8366V15.8782H16.4815H18.7501Z" fill="#082242" stroke="#082242" stroke-width="0.1"/>
<path d="M19.7081 12.1239C19.7844 12.0377 19.7815 11.9019 19.7019 11.8192V11.8192L15.863 7.84126L15.833 7.81018L15.803 7.84126L11.964 11.8193L11.964 11.8194C11.8844 11.9021 11.8815 12.0378 11.9577 12.1241C12.0357 12.2122 12.1665 12.2153 12.248 12.1309L15.833 8.41607L19.418 12.1309C19.4572 12.1714 19.5081 12.1922 19.5599 12.1922C19.6148 12.1922 19.6685 12.1687 19.7081 12.1239ZM19.7081 12.1239L19.6769 12.0963L19.7081 12.1239ZM19.7081 12.1239L19.6769 12.0963L19.7081 12.1239ZM19.6769 12.0963C19.6451 12.1323 19.6027 12.1506 19.5599 12.1506C19.5195 12.1506 19.4794 12.1344 19.448 12.1019H12.2181C12.1535 12.1688 12.0509 12.1665 11.989 12.0965C11.927 12.0265 11.9295 11.9153 11.994 11.8482L15.804 7.90019L15.803 7.89912L15.833 7.87019L15.863 7.89912L15.862 7.90019L19.6719 11.8481C19.7364 11.9152 19.7388 12.0262 19.6769 12.0963Z" fill="#082242" stroke="#082242" stroke-width="0.1"/>
<path d="M18.4674 8.46415V8.42249H18.4258H17.1295C17.0138 8.42249 16.9258 8.52299 16.9258 8.63965C16.9258 8.75632 17.0138 8.8569 17.1295 8.8569H18.0601V9.86849C18.0601 9.98515 18.148 10.0857 18.2638 10.0857C18.3795 10.0857 18.4674 9.98515 18.4674 9.86849V8.46415Z" fill="#082242" stroke="#082242" stroke-width="0.1"/>
</g>
<defs>
<clipPath id="clip0_206_14649">
<rect width="20" height="20" fill="white"/>
</clipPath>
</defs>
</svg>
