<svg width="22" height="20" viewBox="0 0 22 20" fill="none" xmlns="http://www.w3.org/2000/svg">
<path d="M20 9.70527C18.0333 10.0982 15.9667 10.0982 14 9.70527L14.6 7.49876C16.1333 6.83375 17.8667 6.83375 19.4 7.49876L20 9.70527Z" stroke="#082242" stroke-width="0.5" stroke-miterlimit="10" stroke-linecap="round" stroke-linejoin="round"/>
<path d="M19.1757 11.2879C19.3561 11.0538 19.5366 10.9534 19.717 11.0204C19.9877 11.1541 20.0779 11.6892 19.9276 12.2243C19.7771 12.7593 19.4162 13.1272 19.1455 12.9934C19.1455 12.9934 19.1154 12.9934 19.1154 12.96C18.8749 14.1305 18.0327 15 17.0101 15C15.9874 15 15.1152 14.1305 14.9047 12.96L14.8746 12.9934C14.6039 13.1272 14.243 12.7593 14.0926 12.2243C13.9121 11.6892 14.0024 11.1541 14.3032 11.0204C14.4836 10.9534 14.6942 11.0538 14.8445 11.2879" stroke="#082242" stroke-width="0.5" stroke-miterlimit="10" stroke-linecap="round" stroke-linejoin="round"/>
<path d="M17 8V9" stroke="#082242" stroke-width="0.5" stroke-miterlimit="10" stroke-linecap="round" stroke-linejoin="round"/>
<path d="M16 9H18" stroke="#082242" stroke-width="0.5" stroke-miterlimit="10" stroke-linecap="round" stroke-linejoin="round"/>
<path d="M8.20036 1.4236C8.20036 1.33519 8.23574 1.25038 8.2988 1.18785C8.36176 1.12533 8.44721 1.09021 8.53624 1.09021C8.898 1.09065 9.24481 1.23349 9.50061 1.4874C9.75642 1.7413 9.90035 2.08555 9.9008 2.44463V7.72687C9.9008 7.81531 9.86542 7.90006 9.80237 7.96259C9.7394 8.02513 9.65395 8.06026 9.56492 8.06026C9.4758 8.06026 9.39036 8.02513 9.32739 7.96259C9.26442 7.90006 9.22904 7.81531 9.22904 7.72687V2.44463C9.22878 2.26232 9.15578 2.08755 9.02591 1.95865C8.89603 1.82974 8.71994 1.75722 8.53624 1.757C8.44721 1.757 8.36176 1.72188 8.2988 1.65935C8.23574 1.59683 8.20036 1.51203 8.20036 1.4236ZM10.6146 3.2156C10.7927 3.2156 10.9635 3.28585 11.0895 3.4109C11.2155 3.53595 11.2863 3.70555 11.2863 3.8824V12.514C11.287 12.8278 11.1631 13.1291 10.9416 13.3529C10.3626 13.9414 10.4046 14.5794 10.4046 14.9678C10.4046 15.0562 10.44 15.141 10.503 15.2035C10.5659 15.266 10.6514 15.3012 10.7405 15.3012C10.8295 15.3012 10.915 15.266 10.9779 15.2035C11.041 15.141 11.0764 15.0562 11.0764 14.9678C11.0764 14.6344 11.031 14.2147 11.421 13.8192C11.7662 13.4713 11.9592 13.0023 11.9581 12.514V3.8824C11.9581 3.52871 11.8165 3.18951 11.5645 2.93941C11.3126 2.68932 10.9709 2.54881 10.6146 2.54881C10.5254 2.54881 10.44 2.58394 10.377 2.64646C10.3141 2.70898 10.2787 2.79379 10.2787 2.88221C10.2787 2.97063 10.3141 3.05543 10.377 3.11796C10.44 3.18048 10.5254 3.2156 10.6146 3.2156ZM10.7615 15.8326H4.3726C4.28357 15.8326 4.19812 15.8677 4.13515 15.9301C4.07219 15.9927 4.03672 16.0775 4.03672 16.166C4.03672 16.2543 4.07219 16.3391 4.13515 16.4017C4.19812 16.4642 4.28357 16.4993 4.3726 16.4993H10.7615C10.9118 16.4995 11.0558 16.5589 11.162 16.6643C11.2682 16.7698 11.3281 16.9128 11.3282 17.0619V17.2703C11.3281 17.4195 11.2682 17.5624 11.162 17.6678C11.0558 17.7733 10.9118 17.8327 10.7615 17.8329H2.78435C2.6341 17.8327 2.49006 17.7733 2.38381 17.6678C2.27757 17.5624 2.21778 17.4195 2.21756 17.2703V17.0619C2.21778 16.9128 2.27757 16.7698 2.38381 16.6643C2.49006 16.5589 2.6341 16.4995 2.78435 16.4993C2.87343 16.4993 2.95886 16.4642 3.02183 16.4017C3.08488 16.3391 3.12026 16.2543 3.12026 16.166V14.9223C3.12026 14.1997 2.72347 13.9222 2.2545 13.5917C2.07449 13.4644 1.92769 13.2964 1.82632 13.1015C1.72496 12.9066 1.67197 12.6904 1.67176 12.4711V8.01859C1.67176 7.83618 1.74474 7.66131 1.87465 7.53238C2.00457 7.40337 2.18077 7.33094 2.3645 7.33094C2.54823 7.33094 2.72444 7.40337 2.85435 7.53238C2.9843 7.66131 3.05721 7.83618 3.05721 8.01859V10.0973C3.05721 10.1857 3.09268 10.2705 3.15564 10.3331C3.21861 10.3956 3.30406 10.4307 3.39309 10.4307C3.48221 10.4307 3.56765 10.3956 3.63062 10.3331C3.69359 10.2705 3.72897 10.1857 3.72897 10.0973V2.44463C3.72897 2.26225 3.80196 2.08736 3.93193 1.9584C4.0618 1.82945 4.23807 1.757 4.42177 1.757C4.60547 1.757 4.78165 1.82945 4.91162 1.9584C5.04149 2.08736 5.11449 2.26225 5.11449 2.44463V8.09153C5.11449 8.17997 5.14987 8.26472 5.21292 8.32726C5.27589 8.38979 5.36134 8.42492 5.45037 8.42492C5.53949 8.42492 5.62493 8.38979 5.6879 8.32726C5.75086 8.26472 5.78624 8.17997 5.78624 8.09153V1.35068C5.78624 1.16831 5.85924 0.993403 5.9892 0.864447C6.11908 0.735491 6.29526 0.663045 6.47905 0.663045C6.66275 0.663045 6.83893 0.735491 6.9689 0.864447C7.09877 0.993403 7.17177 1.16831 7.17177 1.35068V8.09153C7.17177 8.17997 7.20715 8.26472 7.27011 8.32726C7.33317 8.38979 7.41853 8.42492 7.50764 8.42492C7.59676 8.42492 7.68212 8.38979 7.74518 8.32726C7.80814 8.26472 7.84352 8.17997 7.84352 8.09153V1.35068C7.84254 0.998281 7.70326 0.660145 7.45516 0.408051C7.20715 0.155949 6.86983 0.009741 6.51497 0.000469397C6.16001 -0.0088022 5.81544 0.119583 5.55435 0.358373C5.29335 0.597163 5.13625 0.927562 5.11664 1.27941C4.20932 0.746397 3.05721 1.39901 3.05721 2.44463V6.85252C2.1508 6.31995 1 6.97298 1 8.01943V12.4711C1.00027 12.7968 1.07898 13.1178 1.22957 13.4073C1.38016 13.6967 1.59827 13.9463 1.86573 14.1352C2.32755 14.4602 2.44847 14.5565 2.44847 14.9223V15.8787C2.18887 15.9518 1.9603 16.1067 1.79741 16.3202C1.63452 16.5337 1.54618 16.7941 1.5458 17.0619V17.2703C1.54618 17.5381 1.63452 17.7985 1.79741 18.012C1.9603 18.2255 2.18887 18.3805 2.44847 18.4534V19.6666C2.44847 19.755 2.48386 19.8398 2.54685 19.9023C2.60984 19.9649 2.69527 20 2.78435 20C2.87343 20 2.95886 19.9649 3.02183 19.9023C3.08488 19.8398 3.12026 19.755 3.12026 19.6666V18.4997H10.4046V19.6666C10.4046 19.755 10.44 19.8398 10.503 19.9023C10.5659 19.9649 10.6514 20 10.7405 20C10.8295 20 10.915 19.9649 10.9779 19.9023C11.041 19.8398 11.0764 19.755 11.0764 19.6666V18.458C11.3409 18.3887 11.5749 18.2345 11.742 18.0195C11.909 17.8044 11.9997 17.5406 12 17.2691V17.0607C11.9994 16.7349 11.8686 16.4227 11.6364 16.1925C11.4043 15.9623 11.0896 15.8329 10.7615 15.8326Z" fill="#082242"/>
</svg>
