<svg width="20" height="20" viewBox="0 0 20 20" fill="none" xmlns="http://www.w3.org/2000/svg">
<g clip-path="url(#clip0_206_14589)">
<path d="M6.69922 1.9628C6.69922 1.87992 6.73214 1.80043 6.79075 1.74183C6.84935 1.68323 6.92884 1.6503 7.01172 1.6503C7.34829 1.65071 7.67096 1.7846 7.90896 2.02259C8.14695 2.26058 8.28083 2.58326 8.28125 2.91983V7.871C8.28125 7.95388 8.24832 8.03337 8.18972 8.09198C8.13112 8.15058 8.05163 8.1835 7.96875 8.1835C7.88587 8.1835 7.80638 8.15058 7.74777 8.09198C7.68917 8.03337 7.65625 7.95388 7.65625 7.871V2.91983C7.65604 2.74895 7.58807 2.58513 7.46724 2.46431C7.34642 2.34348 7.18259 2.27551 7.01172 2.2753C6.92884 2.2753 6.84935 2.24238 6.79075 2.18377C6.73214 2.12517 6.69922 2.04568 6.69922 1.9628ZM8.94533 3.64248C9.11108 3.64248 9.27008 3.70833 9.38725 3.82554C9.5045 3.94276 9.57033 4.10173 9.57033 4.26748V12.3581C9.57092 12.6522 9.45567 12.9346 9.24958 13.1445C8.71092 13.696 8.75 14.294 8.75 14.6581C8.75 14.741 8.78292 14.8205 8.8415 14.879C8.90017 14.9377 8.97958 14.9706 9.0625 14.9706C9.14542 14.9706 9.22483 14.9377 9.2835 14.879C9.34208 14.8205 9.375 14.741 9.375 14.6581C9.375 14.3456 9.33283 13.9523 9.69567 13.5815C10.0169 13.2555 10.1964 12.8158 10.1953 12.3581V4.26748C10.1953 3.93597 10.0636 3.61803 9.82917 3.3836C9.59475 3.14918 9.27683 3.01748 8.94533 3.01748C8.86242 3.01748 8.78292 3.05041 8.72433 3.10902C8.66575 3.16762 8.63283 3.24711 8.63283 3.32998C8.63283 3.41287 8.66575 3.49235 8.72433 3.55096C8.78292 3.60956 8.86242 3.64248 8.94533 3.64248ZM9.082 15.4686H3.13789C3.05501 15.4686 2.97552 15.5015 2.91692 15.5602C2.85832 15.6188 2.82539 15.6983 2.82539 15.7811C2.82539 15.864 2.85832 15.9435 2.91692 16.0021C2.97552 16.0607 3.05501 16.0936 3.13789 16.0936H9.082C9.22183 16.0939 9.35583 16.1495 9.45467 16.2484C9.55358 16.3472 9.60917 16.4812 9.60933 16.621V16.8163C9.60917 16.9561 9.55358 17.0901 9.45467 17.189C9.35583 17.2878 9.22183 17.3435 9.082 17.3436H1.66016C1.52036 17.3435 1.38635 17.2878 1.2875 17.189C1.18864 17.0901 1.13302 16.9561 1.13282 16.8163V16.621C1.13302 16.4812 1.18864 16.3472 1.2875 16.2484C1.38635 16.1495 1.52036 16.0939 1.66016 16.0936C1.74303 16.0936 1.82252 16.0607 1.88112 16.0021C1.93973 15.9435 1.97266 15.864 1.97266 15.7811V14.6155C1.97266 13.9382 1.60352 13.678 1.16719 13.3683C0.9997 13.249 0.863125 13.0915 0.768814 12.9088C0.674507 12.726 0.625202 12.5235 0.625 12.3179V8.14444C0.625 7.9735 0.692906 7.80956 0.813778 7.68868C0.93465 7.56782 1.09859 7.49991 1.26953 7.49991C1.44047 7.49991 1.60441 7.56782 1.72528 7.68868C1.84616 7.80956 1.91407 7.9735 1.91407 8.14444V10.0929C1.91407 10.1758 1.94698 10.2552 2.00559 10.3139C2.0642 10.3725 2.14368 10.4054 2.22657 10.4054C2.30944 10.4054 2.38892 10.3725 2.44753 10.3139C2.50614 10.2552 2.53907 10.1758 2.53907 10.0929V2.91983C2.53907 2.74889 2.60697 2.58495 2.72784 2.46408C2.84872 2.34321 3.01265 2.2753 3.18359 2.2753C3.35453 2.2753 3.51847 2.34321 3.63935 2.46408C3.76022 2.58495 3.82812 2.74889 3.82812 2.91983V8.2128C3.82812 8.29568 3.86105 8.37513 3.91965 8.43379C3.97826 8.49238 4.05774 8.52529 4.14062 8.52529C4.22351 8.52529 4.30299 8.49238 4.3616 8.43379C4.4202 8.37513 4.45312 8.29568 4.45312 8.2128V1.89444C4.45312 1.7235 4.52103 1.55956 4.6419 1.43868C4.76277 1.31782 4.92672 1.24991 5.09766 1.24991C5.2686 1.24991 5.43253 1.31782 5.55341 1.43868C5.67428 1.55956 5.74218 1.7235 5.74218 1.89444V8.2128C5.74218 8.29568 5.77511 8.37513 5.83372 8.43379C5.89232 8.49238 5.97181 8.52529 6.05468 8.52529C6.13757 8.52529 6.21705 8.49238 6.27566 8.43379C6.33427 8.37513 6.36718 8.29568 6.36718 8.2128V1.89444C6.36627 1.56413 6.23666 1.24719 6.00587 1.01089C5.77507 0.774593 5.46127 0.637552 5.13107 0.628858C4.80088 0.620165 4.4803 0.740505 4.23739 0.964334C3.99448 1.18816 3.84837 1.49784 3.83007 1.82764C2.98594 1.32803 1.91407 1.93975 1.91407 2.91983V7.05147C1.0707 6.55225 0 7.16436 0 8.14522V12.3179C0.000251951 12.6232 0.0734845 12.9241 0.213594 13.1955C0.353704 13.4668 0.556633 13.7006 0.805468 13.8776C1.23516 14.1823 1.34766 14.2725 1.34766 14.6155V15.512C1.10612 15.5804 0.893458 15.7256 0.741909 15.9258C0.590357 16.1259 0.508172 16.37 0.507812 16.621V16.8163C0.508172 17.0674 0.590357 17.3114 0.741909 17.5115C0.893458 17.7116 1.10612 17.8569 1.34766 17.9253V19.0624C1.34766 19.1453 1.38058 19.2248 1.43918 19.2834C1.49779 19.342 1.57727 19.3749 1.66016 19.3749C1.74303 19.3749 1.82252 19.342 1.88112 19.2834C1.93973 19.2248 1.97266 19.1453 1.97266 19.0624V17.9686H8.75V19.0624C8.75 19.1453 8.78292 19.2248 8.8415 19.2834C8.90017 19.342 8.97958 19.3749 9.0625 19.3749C9.14542 19.3749 9.22483 19.342 9.2835 19.2834C9.34208 19.2248 9.375 19.1453 9.375 19.0624V17.9296C9.62108 17.8646 9.83883 17.7201 9.99425 17.5185C10.1497 17.317 10.2341 17.0697 10.2343 16.8151V16.6198C10.2337 16.3145 10.1121 16.0219 9.89608 15.8061C9.68008 15.5903 9.38733 15.469 9.082 15.4686Z" fill="#082242"/>
<path d="M17.9753 11.7014L19.8469 9.90625L19.3886 9.40975L16.8295 11.7014H17.9753ZM18.3955 8.30212L17.7844 7.95837L15.2636 11.7014H16.1803L18.3955 8.30212ZM10.833 12.4653L10.8712 12.6945C11.024 14.3368 12.0553 15.8646 13.5448 16.5139L13.583 16.6667H17.2497L17.3261 16.4375C18.8157 15.75 19.8469 14.4132 19.9997 12.8091V12.4653H10.833ZM17.0587 15.9028H13.774C12.7045 15.5208 11.9407 14.375 11.7115 13.2292H19.1976C18.9303 14.375 18.1282 15.5208 17.0587 15.9028Z" fill="#082242"/>
</g>
<defs>
<clipPath id="clip0_206_14589">
<rect width="20" height="20" fill="white"/>
</clipPath>
</defs>
</svg>
