<svg width="20" height="20" viewBox="0 0 20 20" fill="none" xmlns="http://www.w3.org/2000/svg">
<path d="M7.41504 1.9628C7.41504 1.87992 7.44797 1.80043 7.50657 1.74183C7.56517 1.68323 7.64466 1.6503 7.72754 1.6503C8.06412 1.65071 8.38676 1.7846 8.62476 2.02259C8.86276 2.26058 8.99667 2.58326 8.99709 2.91983V7.871C8.99709 7.95388 8.96417 8.03337 8.90551 8.09198C8.84692 8.15058 8.76742 8.1835 8.68459 8.1835C8.60167 8.1835 8.52217 8.15058 8.46359 8.09198C8.40501 8.03337 8.37209 7.95388 8.37209 7.871V2.91983C8.37184 2.74895 8.30389 2.58513 8.18307 2.46431C8.06223 2.34348 7.89842 2.27551 7.72754 2.2753C7.64466 2.2753 7.56517 2.24238 7.50657 2.18377C7.44797 2.12517 7.41504 2.04568 7.41504 1.9628ZM9.66117 3.64248C9.82692 3.64248 9.98584 3.70833 10.1031 3.82554C10.2203 3.94276 10.2862 4.10173 10.2862 4.26748V12.3581C10.2868 12.6522 10.1715 12.9346 9.96542 13.1445C9.42676 13.696 9.46584 14.294 9.46584 14.6581C9.46584 14.741 9.49876 14.8205 9.55734 14.879C9.61592 14.9377 9.69542 14.9706 9.77834 14.9706C9.86117 14.9706 9.94067 14.9377 9.99926 14.879C10.0579 14.8205 10.0908 14.741 10.0908 14.6581C10.0908 14.3456 10.0486 13.9523 10.4115 13.5815C10.7327 13.2555 10.9123 12.8158 10.9112 12.3581V4.26748C10.9112 3.93597 10.7794 3.61803 10.545 3.3836C10.3106 3.14918 9.99267 3.01748 9.66117 3.01748C9.57826 3.01748 9.49876 3.05041 9.44017 3.10902C9.38159 3.16762 9.34867 3.24711 9.34867 3.32998C9.34867 3.41287 9.38159 3.49235 9.44017 3.55096C9.49876 3.60956 9.57826 3.64248 9.66117 3.64248ZM9.79784 15.4686H3.85371C3.77083 15.4686 3.69134 15.5015 3.63274 15.5602C3.57413 15.6188 3.54121 15.6983 3.54121 15.7811C3.54121 15.864 3.57413 15.9435 3.63274 16.0021C3.69134 16.0607 3.77083 16.0936 3.85371 16.0936H9.79784C9.93767 16.0939 10.0717 16.1495 10.1705 16.2484C10.2693 16.3472 10.325 16.4812 10.3252 16.621V16.8163C10.325 16.9561 10.2693 17.0901 10.1705 17.189C10.0717 17.2878 9.93767 17.3435 9.79784 17.3436H2.37597C2.23618 17.3435 2.10217 17.2878 2.00332 17.189C1.90447 17.0901 1.84884 16.9561 1.84863 16.8163V16.621C1.84884 16.4812 1.90447 16.3472 2.00332 16.2484C2.10217 16.1495 2.23618 16.0939 2.37597 16.0936C2.45886 16.0936 2.53834 16.0607 2.59695 16.0021C2.65555 15.9435 2.68847 15.864 2.68847 15.7811V14.6155C2.68847 13.9382 2.31933 13.678 1.88301 13.3683C1.71552 13.249 1.57894 13.0915 1.48463 12.9088C1.39032 12.726 1.34102 12.5235 1.34082 12.3179V8.14444C1.34082 7.9735 1.40872 7.80956 1.5296 7.68868C1.65047 7.56782 1.81441 7.49991 1.98535 7.49991C2.15629 7.49991 2.32023 7.56782 2.44111 7.68868C2.56197 7.80956 2.62988 7.9735 2.62988 8.14444V10.0929C2.62988 10.1758 2.66281 10.2552 2.72141 10.3139C2.78002 10.3725 2.8595 10.4054 2.94238 10.4054C3.02527 10.4054 3.10475 10.3725 3.16336 10.3139C3.22196 10.2552 3.25488 10.1758 3.25488 10.0929V2.91983C3.25488 2.74889 3.32279 2.58495 3.44366 2.46408C3.56453 2.34321 3.72847 2.2753 3.89942 2.2753C4.07036 2.2753 4.23429 2.34321 4.35517 2.46408C4.47604 2.58495 4.54394 2.74889 4.54394 2.91983V8.2128C4.54394 8.29568 4.57687 8.37513 4.63547 8.43379C4.69408 8.49238 4.77357 8.52529 4.85644 8.52529C4.93932 8.52529 5.01881 8.49238 5.07742 8.43379C5.13602 8.37513 5.16894 8.29568 5.16894 8.2128V1.89444C5.16894 1.7235 5.23685 1.55956 5.35772 1.43868C5.4786 1.31782 5.64253 1.24991 5.81347 1.24991C5.98442 1.24991 6.14836 1.31782 6.26923 1.43868C6.3901 1.55956 6.45801 1.7235 6.45801 1.89444V8.2128C6.45801 8.29568 6.49093 8.37513 6.54953 8.43379C6.60814 8.49238 6.68762 8.52529 6.77051 8.52529C6.85339 8.52529 6.93287 8.49238 6.99148 8.43379C7.05008 8.37513 7.08301 8.29568 7.08301 8.2128V1.89444C7.08209 1.56413 6.95248 1.24719 6.72168 1.01089C6.49089 0.774593 6.17709 0.637552 5.84689 0.628858C5.5167 0.620165 5.19612 0.740505 4.95321 0.964334C4.7103 1.18816 4.56419 1.49784 4.5459 1.82764C3.70176 1.32803 2.62988 1.93975 2.62988 2.91983V7.05147C1.78652 6.55225 0.71582 7.16436 0.71582 8.14522V12.3179C0.716072 12.6232 0.789304 12.9241 0.929416 13.1955C1.06952 13.4668 1.27245 13.7006 1.52129 13.8776C1.95097 14.1823 2.06347 14.2725 2.06347 14.6155V15.512C1.82194 15.5804 1.60928 15.7256 1.45773 15.9258C1.30617 16.1259 1.22399 16.37 1.22363 16.621V16.8163C1.22399 17.0674 1.30617 17.3114 1.45773 17.5115C1.60928 17.7116 1.82194 17.8569 2.06347 17.9253V19.0624C2.06347 19.1453 2.0964 19.2248 2.15501 19.2834C2.21361 19.342 2.2931 19.3749 2.37597 19.3749C2.45886 19.3749 2.53834 19.342 2.59695 19.2834C2.65555 19.2248 2.68847 19.1453 2.68847 19.0624V17.9686H9.46584V19.0624C9.46584 19.1453 9.49876 19.2248 9.55734 19.2834C9.61592 19.342 9.69542 19.3749 9.77834 19.3749C9.86117 19.3749 9.94067 19.342 9.99926 19.2834C10.0579 19.2248 10.0908 19.1453 10.0908 19.0624V17.9296C10.3369 17.8646 10.5547 17.7201 10.7101 17.5185C10.8655 17.317 10.9499 17.0697 10.9502 16.8151V16.6198C10.9496 16.3145 10.8279 16.0219 10.6119 15.8061C10.3959 15.5903 10.1032 15.469 9.79784 15.4686Z" fill="#082242"/>
<path d="M17.7941 14.1494H17.7616L17.7537 14.181L17.6697 14.5171H13.1621L13.0781 14.181L13.0702 14.1494H13.0377H12.8424H12.7891L12.802 14.2012L13.5373 17.1423L13.5451 17.1739H13.5777H17.2541H17.2867L17.2946 17.1423L18.0299 14.2012L18.0428 14.1494H17.9895H17.7941ZM17.3731 14.968L16.9344 16.7229H13.8975L13.4587 14.968H17.3731Z" fill="#082242" stroke="#082242" stroke-width="0.1"/>
<path d="M17.5595 14.569L17.5724 14.5172H17.5191H13.3142H13.2607L13.2737 14.569L13.3656 14.9366L13.3735 14.9682H13.406H17.4272H17.4597L17.4676 14.9366L17.5595 14.569Z" fill="#082242" stroke="#082242" stroke-width="0.1"/>
<path d="M12.4752 13.4142H12.4219L12.4348 13.4659L12.8025 14.9365L12.8103 14.9681H12.8429H17.9899H18.0225L18.0303 14.9365L18.398 13.4659L18.411 13.4142H18.3575H12.4752ZM17.8331 13.8651L17.6701 14.5171H13.1626L12.9996 13.8651H17.8331Z" fill="#082242" stroke="#082242" stroke-width="0.1"/>
<path d="M15.6414 8.30888V8.26721H15.5998H15.2321H15.1904V8.30888V8.35479V8.38771L15.2223 8.39538C15.2679 8.4063 15.3143 8.41313 15.3611 8.41588L15.3854 8.44204L15.4159 8.47488L15.4464 8.44204L15.4708 8.41588C15.5175 8.41313 15.5639 8.4063 15.6095 8.39538L15.6414 8.38771V8.35479V8.30888Z" fill="#082242" stroke="#082242" stroke-width="0.1"/>
<path d="M15.4464 8.62414L15.4159 8.59131L15.3853 8.62414L15.2016 8.82223L15.1904 8.83423V8.85056V13.4558V13.4975H15.2321H15.5998H15.6414V13.4558V8.85056V8.83423L15.6303 8.82223L15.4464 8.62414Z" fill="#082242" stroke="#082242" stroke-width="0.1"/>
<mask id="mask0_206_14625" style="mask-type:alpha" maskUnits="userSpaceOnUse" x="12" y="4" width="7" height="7">
<path d="M18.349 4.53076H12.5156V10.3641H18.349V4.53076Z" fill="white"/>
<path d="M15.4162 6.72332C15.2145 6.72565 15.0207 6.80159 14.871 6.93686C14.7215 7.07214 14.6264 7.25741 14.6038 7.45784C14.5812 7.65829 14.6326 7.86006 14.7484 8.02524C14.8642 8.19041 15.0363 8.30759 15.2325 8.35471C15.281 8.36638 15.3305 8.37321 15.3804 8.37496L15.4162 8.41354L15.4521 8.37496C15.502 8.37321 15.5515 8.36638 15.6 8.35471C15.7979 8.30914 15.972 8.19238 16.0894 8.02668C16.2067 7.86098 16.259 7.65792 16.2363 7.45617C16.2135 7.25441 16.1175 7.06805 15.9662 6.93258C15.815 6.7971 15.6193 6.72197 15.4162 6.72148V6.72332ZM15.4162 7.09096C15.5071 7.09096 15.596 7.11792 15.6715 7.16841C15.7471 7.21891 15.806 7.29069 15.8408 7.37466C15.8756 7.45863 15.8847 7.55104 15.867 7.64018C15.8492 7.72933 15.8055 7.81121 15.7412 7.87548C15.677 7.93975 15.595 7.98352 15.5059 8.00125C15.4168 8.01899 15.3244 8.00989 15.2404 7.9751C15.1564 7.94032 15.0846 7.88141 15.0341 7.80584C14.9836 7.73027 14.9567 7.64142 14.9567 7.55053C14.9567 7.42864 15.0051 7.31175 15.0913 7.22557C15.1775 7.13939 15.2944 7.09096 15.4162 7.09096ZM15.4162 6.72332C15.2145 6.72565 15.0207 6.80159 14.871 6.93686C14.7215 7.07214 14.6264 7.25741 14.6038 7.45784C14.5812 7.65829 14.6326 7.86006 14.7484 8.02524C14.8642 8.19041 15.0363 8.30759 15.2325 8.35471C15.281 8.36638 15.3305 8.37321 15.3804 8.37496L15.4162 8.41354L15.4521 8.37496C15.502 8.37321 15.5515 8.36638 15.6 8.35471C15.7979 8.30914 15.972 8.19238 16.0894 8.02668C16.2067 7.86098 16.259 7.65792 16.2363 7.45617C16.2135 7.25441 16.1175 7.06805 15.9662 6.93258C15.815 6.7971 15.6193 6.72197 15.4162 6.72148V6.72332ZM15.4162 7.09096C15.5071 7.09096 15.596 7.11792 15.6715 7.16841C15.7471 7.21891 15.806 7.29069 15.8408 7.37466C15.8756 7.45863 15.8847 7.55104 15.867 7.64018C15.8492 7.72933 15.8055 7.81121 15.7412 7.87548C15.677 7.93975 15.595 7.98352 15.5059 8.00125C15.4168 8.01899 15.3244 8.00989 15.2404 7.9751C15.1564 7.94032 15.0846 7.88141 15.0341 7.80584C14.9836 7.73027 14.9567 7.64142 14.9567 7.55053C14.9567 7.42864 15.0051 7.31175 15.0913 7.22557C15.1775 7.13939 15.2944 7.09096 15.4162 7.09096ZM15.4162 6.72332C15.2145 6.72565 15.0207 6.80159 14.871 6.93686C14.7215 7.07214 14.6264 7.25741 14.6038 7.45784C14.5812 7.65829 14.6326 7.86006 14.7484 8.02524C14.8642 8.19041 15.0363 8.30759 15.2325 8.35471C15.281 8.36638 15.3305 8.37321 15.3804 8.37496L15.4162 8.41354L15.4521 8.37496C15.502 8.37321 15.5515 8.36638 15.6 8.35471C15.7979 8.30914 15.972 8.19238 16.0894 8.02668C16.2067 7.86098 16.259 7.65792 16.2363 7.45617C16.2135 7.25441 16.1175 7.06805 15.9662 6.93258C15.815 6.7971 15.6193 6.72197 15.4162 6.72148V6.72332ZM15.4162 7.09096C15.5071 7.09096 15.596 7.11792 15.6715 7.16841C15.7471 7.21891 15.806 7.29069 15.8408 7.37466C15.8756 7.45863 15.8847 7.55104 15.867 7.64018C15.8492 7.72933 15.8055 7.81121 15.7412 7.87548C15.677 7.93975 15.595 7.98352 15.5059 8.00125C15.4168 8.01899 15.3244 8.00989 15.2404 7.9751C15.1564 7.94032 15.0846 7.88141 15.0341 7.80584C14.9836 7.73027 14.9567 7.64142 14.9567 7.55053C14.9567 7.42864 15.0051 7.31175 15.0913 7.22557C15.1775 7.13939 15.2944 7.09096 15.4162 7.09096ZM15.4162 6.72332C15.2145 6.72565 15.0207 6.80159 14.871 6.93686C14.7215 7.07214 14.6264 7.25741 14.6038 7.45784C14.5812 7.65829 14.6326 7.86006 14.7484 8.02524C14.8642 8.19041 15.0363 8.30759 15.2325 8.35471C15.281 8.36638 15.3305 8.37321 15.3804 8.37496L15.4162 8.41354L15.4521 8.37496C15.502 8.37321 15.5515 8.36638 15.6 8.35471C15.7979 8.30914 15.972 8.19238 16.0894 8.02668C16.2067 7.86098 16.259 7.65792 16.2363 7.45617C16.2135 7.25441 16.1175 7.06805 15.9662 6.93258C15.815 6.7971 15.6193 6.72197 15.4162 6.72148V6.72332ZM15.4162 7.09096C15.5071 7.09096 15.596 7.11792 15.6715 7.16841C15.7471 7.21891 15.806 7.29069 15.8408 7.37466C15.8756 7.45863 15.8847 7.55104 15.867 7.64018C15.8492 7.72933 15.8055 7.81121 15.7412 7.87548C15.677 7.93975 15.595 7.98352 15.5059 8.00125C15.4168 8.01899 15.3244 8.00989 15.2404 7.9751C15.1564 7.94032 15.0846 7.88141 15.0341 7.80584C14.9836 7.73027 14.9567 7.64142 14.9567 7.55053C14.9567 7.42864 15.0051 7.31175 15.0913 7.22557C15.1775 7.13939 15.2944 7.09096 15.4162 7.09096ZM17.4843 7.2417C17.4845 7.09612 17.4519 6.95237 17.3887 6.8212C17.293 6.62337 17.1334 6.46368 16.9355 6.36808C16.8045 6.30475 16.6606 6.27207 16.515 6.27249C16.4713 6.27262 16.4275 6.27554 16.384 6.28122C16.3709 6.03359 16.2631 5.80046 16.0832 5.62985C15.9032 5.45924 15.6647 5.36414 15.4167 5.36414C15.1687 5.36414 14.9302 5.45924 14.7502 5.62985C14.5702 5.80046 14.4625 6.03359 14.4494 6.28122C14.4059 6.27554 14.3621 6.27262 14.3184 6.27249C14.1038 6.27249 13.8953 6.34364 13.7255 6.47479C13.5557 6.60596 13.4343 6.78973 13.38 6.99733C13.3259 7.20493 13.3421 7.42463 13.4261 7.62203C13.5102 7.81943 13.6574 7.98338 13.8445 8.08821C13.7963 8.18071 13.7637 8.28056 13.748 8.38371C13.7399 8.43338 13.7359 8.48363 13.7361 8.53396C13.735 8.67838 13.7664 8.82113 13.828 8.95171C13.9067 9.11663 14.0305 9.25596 14.185 9.35354C14.3395 9.45113 14.5185 9.50296 14.7012 9.50321C14.8353 9.50363 14.9681 9.47629 15.0912 9.42288C15.2142 9.36954 15.3249 9.29121 15.4162 9.19296C15.5757 9.36429 15.7917 9.47213 16.0245 9.49654C16.2571 9.52096 16.4909 9.46038 16.6825 9.32596C16.874 9.19154 17.0104 8.99238 17.0665 8.76521C17.1227 8.53804 17.0948 8.29823 16.988 8.09004C17.1387 8.00565 17.2642 7.88252 17.3515 7.73338C17.4387 7.58424 17.4845 7.41449 17.4843 7.2417ZM16.8082 7.76744L16.4976 7.94115L16.6612 8.25733C16.7058 8.34238 16.729 8.43704 16.7287 8.53304C16.7289 8.65404 16.6925 8.77229 16.6243 8.87238C16.5562 8.97238 16.4595 9.04946 16.3468 9.09363C16.2341 9.13788 16.1107 9.14704 15.9927 9.11996C15.8748 9.09288 15.7677 9.03088 15.6855 8.94204L15.6 8.85013L15.4162 8.65213L15.2325 8.85013L15.147 8.94204C15.0598 9.03621 14.9448 9.10004 14.8189 9.12429C14.6929 9.14846 14.5625 9.13179 14.4465 9.07671C14.3221 9.01704 14.2218 8.91671 14.1621 8.79221C14.1235 8.71129 14.1035 8.62271 14.1037 8.53304C14.1036 8.50229 14.1061 8.47154 14.1111 8.44113C14.1205 8.37696 14.1407 8.3148 14.1709 8.25733L14.3354 7.94115L14.0242 7.76652C13.908 7.70159 13.8165 7.59989 13.7641 7.47738C13.7119 7.35485 13.7017 7.21844 13.7353 7.08954C13.7689 6.96064 13.8444 6.84652 13.9498 6.76511C14.0552 6.68369 14.1847 6.63958 14.3179 6.63968C14.3453 6.63974 14.3726 6.64159 14.3997 6.64519L14.7935 6.70034L14.8156 6.30374C14.8241 6.15019 14.8911 6.00572 15.0028 5.90002C15.1145 5.79432 15.2625 5.73542 15.4162 5.73542C15.57 5.73542 15.718 5.79432 15.8297 5.90002C15.9414 6.00572 16.0084 6.15019 16.0169 6.30374L16.0394 6.69988L16.4323 6.64703C16.4598 6.64343 16.4874 6.64159 16.515 6.64152C16.6041 6.64112 16.6921 6.66092 16.7724 6.69942H16.7756C16.8986 6.75881 16.998 6.8581 17.0573 6.98113C17.0968 7.06231 17.117 7.15145 17.1166 7.2417C17.1165 7.3488 17.0878 7.45394 17.0336 7.54633C16.9795 7.63871 16.9016 7.71503 16.8082 7.76744ZM15.4162 6.72332C15.2145 6.72565 15.0207 6.80159 14.871 6.93686C14.7215 7.07214 14.6264 7.25741 14.6038 7.45784C14.5812 7.65829 14.6326 7.86006 14.7484 8.02524C14.8642 8.19041 15.0363 8.30759 15.2325 8.35471C15.281 8.36638 15.3305 8.37321 15.3804 8.37496L15.4162 8.41354L15.4521 8.37496C15.502 8.37321 15.5515 8.36638 15.6 8.35471C15.7979 8.30914 15.972 8.19238 16.0894 8.02668C16.2067 7.86098 16.259 7.65792 16.2363 7.45617C16.2135 7.25441 16.1175 7.06805 15.9662 6.93258C15.815 6.7971 15.6193 6.72197 15.4162 6.72148V6.72332ZM15.4162 7.09096C15.5071 7.09096 15.596 7.11792 15.6715 7.16841C15.7471 7.21891 15.806 7.29069 15.8408 7.37466C15.8756 7.45863 15.8847 7.55104 15.867 7.64018C15.8492 7.72933 15.8055 7.81121 15.7412 7.87548C15.677 7.93975 15.595 7.98352 15.5059 8.00125C15.4168 8.01899 15.3244 8.00989 15.2404 7.9751C15.1564 7.94032 15.0846 7.88141 15.0341 7.80584C14.9836 7.73027 14.9567 7.64142 14.9567 7.55053C14.9567 7.42864 15.0051 7.31175 15.0913 7.22557C15.1775 7.13939 15.2944 7.09096 15.4162 7.09096ZM15.4162 6.72332C15.2145 6.72565 15.0207 6.80159 14.871 6.93686C14.7215 7.07214 14.6264 7.25741 14.6038 7.45784C14.5812 7.65829 14.6326 7.86006 14.7484 8.02524C14.8642 8.19041 15.0363 8.30759 15.2325 8.35471C15.281 8.36638 15.3305 8.37321 15.3804 8.37496L15.4162 8.41354L15.4521 8.37496C15.502 8.37321 15.5515 8.36638 15.6 8.35471C15.7979 8.30914 15.972 8.19238 16.0894 8.02668C16.2067 7.86098 16.259 7.65792 16.2363 7.45617C16.2135 7.25441 16.1175 7.06805 15.9662 6.93258C15.815 6.7971 15.6193 6.72197 15.4162 6.72148V6.72332ZM15.4162 7.09096C15.5071 7.09096 15.596 7.11792 15.6715 7.16841C15.7471 7.21891 15.806 7.29069 15.8408 7.37466C15.8756 7.45863 15.8847 7.55104 15.867 7.64018C15.8492 7.72933 15.8055 7.81121 15.7412 7.87548C15.677 7.93975 15.595 7.98352 15.5059 8.00125C15.4168 8.01899 15.3244 8.00989 15.2404 7.9751C15.1564 7.94032 15.0846 7.88141 15.0341 7.80584C14.9836 7.73027 14.9567 7.64142 14.9567 7.55053C14.9567 7.42864 15.0051 7.31175 15.0913 7.22557C15.1775 7.13939 15.2944 7.09096 15.4162 7.09096ZM15.4162 6.72332C15.2145 6.72565 15.0207 6.80159 14.871 6.93686C14.7215 7.07214 14.6264 7.25741 14.6038 7.45784C14.5812 7.65829 14.6326 7.86006 14.7484 8.02524C14.8642 8.19041 15.0363 8.30759 15.2325 8.35471C15.281 8.36638 15.3305 8.37321 15.3804 8.37496L15.4162 8.41354L15.4521 8.37496C15.502 8.37321 15.5515 8.36638 15.6 8.35471C15.7979 8.30914 15.972 8.19238 16.0894 8.02668C16.2067 7.86098 16.259 7.65792 16.2363 7.45617C16.2135 7.25441 16.1175 7.06805 15.9662 6.93258C15.815 6.7971 15.6193 6.72197 15.4162 6.72148V6.72332ZM15.4162 7.09096C15.5071 7.09096 15.596 7.11792 15.6715 7.16841C15.7471 7.21891 15.806 7.29069 15.8408 7.37466C15.8756 7.45863 15.8847 7.55104 15.867 7.64018C15.8492 7.72933 15.8055 7.81121 15.7412 7.87548C15.677 7.93975 15.595 7.98352 15.5059 8.00125C15.4168 8.01899 15.3244 8.00989 15.2404 7.9751C15.1564 7.94032 15.0846 7.88141 15.0341 7.80584C14.9836 7.73027 14.9567 7.64142 14.9567 7.55053C14.9567 7.42864 15.0051 7.31175 15.0913 7.22557C15.1775 7.13939 15.2944 7.09096 15.4162 7.09096Z" fill="black"/>
</mask>
<g mask="url(#mask0_206_14625)">
<path d="M15.4162 6.72332C15.2145 6.72565 15.0207 6.80159 14.871 6.93686C14.7215 7.07214 14.6264 7.25741 14.6038 7.45784C14.5812 7.65829 14.6326 7.86006 14.7484 8.02524C14.8642 8.19041 15.0363 8.30759 15.2325 8.35471C15.281 8.36638 15.3305 8.37321 15.3804 8.37496L15.4162 8.41354L15.4521 8.37496C15.502 8.37321 15.5515 8.36638 15.6 8.35471C15.7979 8.30914 15.972 8.19238 16.0894 8.02668C16.2067 7.86098 16.259 7.65792 16.2363 7.45617C16.2135 7.25441 16.1175 7.06805 15.9662 6.93258C15.815 6.7971 15.6193 6.72197 15.4162 6.72148V6.72332ZM15.4162 7.09096C15.5071 7.09096 15.596 7.11792 15.6715 7.16841C15.7471 7.21891 15.806 7.29069 15.8408 7.37466C15.8756 7.45863 15.8847 7.55104 15.867 7.64018C15.8492 7.72933 15.8055 7.81121 15.7412 7.87548C15.677 7.93975 15.595 7.98352 15.5059 8.00125C15.4168 8.01899 15.3244 8.00989 15.2404 7.9751C15.1564 7.94032 15.0846 7.88141 15.0341 7.80584C14.9836 7.73027 14.9567 7.64142 14.9567 7.55053C14.9567 7.42864 15.0051 7.31175 15.0913 7.22557C15.1775 7.13939 15.2944 7.09096 15.4162 7.09096ZM15.4162 6.72332C15.2145 6.72565 15.0207 6.80159 14.871 6.93686C14.7215 7.07214 14.6264 7.25741 14.6038 7.45784C14.5812 7.65829 14.6326 7.86006 14.7484 8.02524C14.8642 8.19041 15.0363 8.30759 15.2325 8.35471C15.281 8.36638 15.3305 8.37321 15.3804 8.37496L15.4162 8.41354L15.4521 8.37496C15.502 8.37321 15.5515 8.36638 15.6 8.35471C15.7979 8.30914 15.972 8.19238 16.0894 8.02668C16.2067 7.86098 16.259 7.65792 16.2363 7.45617C16.2135 7.25441 16.1175 7.06805 15.9662 6.93258C15.815 6.7971 15.6193 6.72197 15.4162 6.72148V6.72332ZM15.4162 7.09096C15.5071 7.09096 15.596 7.11792 15.6715 7.16841C15.7471 7.21891 15.806 7.29069 15.8408 7.37466C15.8756 7.45863 15.8847 7.55104 15.867 7.64018C15.8492 7.72933 15.8055 7.81121 15.7412 7.87548C15.677 7.93975 15.595 7.98352 15.5059 8.00125C15.4168 8.01899 15.3244 8.00989 15.2404 7.9751C15.1564 7.94032 15.0846 7.88141 15.0341 7.80584C14.9836 7.73027 14.9567 7.64142 14.9567 7.55053C14.9567 7.42864 15.0051 7.31175 15.0913 7.22557C15.1775 7.13939 15.2944 7.09096 15.4162 7.09096ZM15.4162 6.72332C15.2145 6.72565 15.0207 6.80159 14.871 6.93686C14.7215 7.07214 14.6264 7.25741 14.6038 7.45784C14.5812 7.65829 14.6326 7.86006 14.7484 8.02524C14.8642 8.19041 15.0363 8.30759 15.2325 8.35471C15.281 8.36638 15.3305 8.37321 15.3804 8.37496L15.4162 8.41354L15.4521 8.37496C15.502 8.37321 15.5515 8.36638 15.6 8.35471C15.7979 8.30914 15.972 8.19238 16.0894 8.02668C16.2067 7.86098 16.259 7.65792 16.2363 7.45617C16.2135 7.25441 16.1175 7.06805 15.9662 6.93258C15.815 6.7971 15.6193 6.72197 15.4162 6.72148V6.72332ZM15.4162 7.09096C15.5071 7.09096 15.596 7.11792 15.6715 7.16841C15.7471 7.21891 15.806 7.29069 15.8408 7.37466C15.8756 7.45863 15.8847 7.55104 15.867 7.64018C15.8492 7.72933 15.8055 7.81121 15.7412 7.87548C15.677 7.93975 15.595 7.98352 15.5059 8.00125C15.4168 8.01899 15.3244 8.00989 15.2404 7.9751C15.1564 7.94032 15.0846 7.88141 15.0341 7.80584C14.9836 7.73027 14.9567 7.64142 14.9567 7.55053C14.9567 7.42864 15.0051 7.31175 15.0913 7.22557C15.1775 7.13939 15.2944 7.09096 15.4162 7.09096ZM15.4162 6.72332C15.2145 6.72565 15.0207 6.80159 14.871 6.93686C14.7215 7.07214 14.6264 7.25741 14.6038 7.45784C14.5812 7.65829 14.6326 7.86006 14.7484 8.02524C14.8642 8.19041 15.0363 8.30759 15.2325 8.35471C15.281 8.36638 15.3305 8.37321 15.3804 8.37496L15.4162 8.41354L15.4521 8.37496C15.502 8.37321 15.5515 8.36638 15.6 8.35471C15.7979 8.30914 15.972 8.19238 16.0894 8.02668C16.2067 7.86098 16.259 7.65792 16.2363 7.45617C16.2135 7.25441 16.1175 7.06805 15.9662 6.93258C15.815 6.7971 15.6193 6.72197 15.4162 6.72148V6.72332ZM15.4162 7.09096C15.5071 7.09096 15.596 7.11792 15.6715 7.16841C15.7471 7.21891 15.806 7.29069 15.8408 7.37466C15.8756 7.45863 15.8847 7.55104 15.867 7.64018C15.8492 7.72933 15.8055 7.81121 15.7412 7.87548C15.677 7.93975 15.595 7.98352 15.5059 8.00125C15.4168 8.01899 15.3244 8.00989 15.2404 7.9751C15.1564 7.94032 15.0846 7.88141 15.0341 7.80584C14.9836 7.73027 14.9567 7.64142 14.9567 7.55053C14.9567 7.42864 15.0051 7.31175 15.0913 7.22557C15.1775 7.13939 15.2944 7.09096 15.4162 7.09096ZM17.4843 7.2417C17.4845 7.09612 17.4519 6.95237 17.3887 6.8212C17.293 6.62337 17.1334 6.46368 16.9355 6.36808C16.8045 6.30475 16.6606 6.27207 16.515 6.27249C16.4713 6.27262 16.4275 6.27554 16.384 6.28122C16.3709 6.03359 16.2631 5.80046 16.0832 5.62985C15.9032 5.45924 15.6647 5.36414 15.4167 5.36414C15.1687 5.36414 14.9302 5.45924 14.7502 5.62985C14.5702 5.80046 14.4625 6.03359 14.4494 6.28122C14.4059 6.27554 14.3621 6.27262 14.3184 6.27249C14.1038 6.27249 13.8953 6.34364 13.7255 6.47479C13.5557 6.60596 13.4343 6.78973 13.38 6.99733C13.3259 7.20493 13.3421 7.42463 13.4261 7.62203C13.5102 7.81943 13.6574 7.98338 13.8445 8.08821C13.7963 8.18071 13.7637 8.28056 13.748 8.38371C13.7399 8.43338 13.7359 8.48363 13.7361 8.53396C13.735 8.67838 13.7664 8.82113 13.828 8.95171C13.9067 9.11663 14.0305 9.25596 14.185 9.35354C14.3395 9.45113 14.5185 9.50296 14.7012 9.50321C14.8353 9.50363 14.9681 9.47629 15.0912 9.42288C15.2142 9.36954 15.3249 9.29121 15.4162 9.19296C15.5757 9.36429 15.7917 9.47213 16.0245 9.49654C16.2571 9.52096 16.4909 9.46038 16.6825 9.32596C16.874 9.19154 17.0104 8.99238 17.0665 8.76521C17.1227 8.53804 17.0948 8.29823 16.988 8.09004C17.1387 8.00565 17.2642 7.88252 17.3515 7.73338C17.4387 7.58424 17.4845 7.41449 17.4843 7.2417ZM16.8082 7.76744L16.4976 7.94115L16.6612 8.25733C16.7058 8.34238 16.729 8.43704 16.7287 8.53304C16.7289 8.65404 16.6925 8.77229 16.6243 8.87238C16.5562 8.97238 16.4595 9.04946 16.3468 9.09363C16.2341 9.13788 16.1107 9.14704 15.9927 9.11996C15.8748 9.09288 15.7677 9.03088 15.6855 8.94204L15.6 8.85013L15.4162 8.65213L15.2325 8.85013L15.147 8.94204C15.0598 9.03621 14.9448 9.10004 14.8189 9.12429C14.6929 9.14846 14.5625 9.13179 14.4465 9.07671C14.3221 9.01704 14.2218 8.91671 14.1621 8.79221C14.1235 8.71129 14.1035 8.62271 14.1037 8.53304C14.1036 8.50229 14.1061 8.47154 14.1111 8.44113C14.1205 8.37696 14.1407 8.3148 14.1709 8.25733L14.3354 7.94115L14.0242 7.76652C13.908 7.70159 13.8165 7.59989 13.7641 7.47738C13.7119 7.35485 13.7017 7.21844 13.7353 7.08954C13.7689 6.96064 13.8444 6.84652 13.9498 6.76511C14.0552 6.68369 14.1847 6.63958 14.3179 6.63968C14.3453 6.63974 14.3726 6.64159 14.3997 6.64519L14.7935 6.70034L14.8156 6.30374C14.8241 6.15019 14.8911 6.00572 15.0028 5.90002C15.1145 5.79432 15.2625 5.73542 15.4162 5.73542C15.57 5.73542 15.718 5.79432 15.8297 5.90002C15.9414 6.00572 16.0084 6.15019 16.0169 6.30374L16.0394 6.69988L16.4323 6.64703C16.4598 6.64343 16.4874 6.64159 16.515 6.64152C16.6041 6.64112 16.6921 6.66092 16.7724 6.69942H16.7756C16.8986 6.75881 16.998 6.8581 17.0573 6.98113C17.0968 7.06231 17.117 7.15145 17.1166 7.2417C17.1165 7.3488 17.0878 7.45394 17.0336 7.54633C16.9795 7.63871 16.9016 7.71503 16.8082 7.76744ZM15.4162 6.72332C15.2145 6.72565 15.0207 6.80159 14.871 6.93686C14.7215 7.07214 14.6264 7.25741 14.6038 7.45784C14.5812 7.65829 14.6326 7.86006 14.7484 8.02524C14.8642 8.19041 15.0363 8.30759 15.2325 8.35471C15.281 8.36638 15.3305 8.37321 15.3804 8.37496L15.4162 8.41354L15.4521 8.37496C15.502 8.37321 15.5515 8.36638 15.6 8.35471C15.7979 8.30914 15.972 8.19238 16.0894 8.02668C16.2067 7.86098 16.259 7.65792 16.2363 7.45617C16.2135 7.25441 16.1175 7.06805 15.9662 6.93258C15.815 6.7971 15.6193 6.72197 15.4162 6.72148V6.72332ZM15.4162 7.09096C15.5071 7.09096 15.596 7.11792 15.6715 7.16841C15.7471 7.21891 15.806 7.29069 15.8408 7.37466C15.8756 7.45863 15.8847 7.55104 15.867 7.64018C15.8492 7.72933 15.8055 7.81121 15.7412 7.87548C15.677 7.93975 15.595 7.98352 15.5059 8.00125C15.4168 8.01899 15.3244 8.00989 15.2404 7.9751C15.1564 7.94032 15.0846 7.88141 15.0341 7.80584C14.9836 7.73027 14.9567 7.64142 14.9567 7.55053C14.9567 7.42864 15.0051 7.31175 15.0913 7.22557C15.1775 7.13939 15.2944 7.09096 15.4162 7.09096ZM15.4162 6.72332C15.2145 6.72565 15.0207 6.80159 14.871 6.93686C14.7215 7.07214 14.6264 7.25741 14.6038 7.45784C14.5812 7.65829 14.6326 7.86006 14.7484 8.02524C14.8642 8.19041 15.0363 8.30759 15.2325 8.35471C15.281 8.36638 15.3305 8.37321 15.3804 8.37496L15.4162 8.41354L15.4521 8.37496C15.502 8.37321 15.5515 8.36638 15.6 8.35471C15.7979 8.30914 15.972 8.19238 16.0894 8.02668C16.2067 7.86098 16.259 7.65792 16.2363 7.45617C16.2135 7.25441 16.1175 7.06805 15.9662 6.93258C15.815 6.7971 15.6193 6.72197 15.4162 6.72148V6.72332ZM15.4162 7.09096C15.5071 7.09096 15.596 7.11792 15.6715 7.16841C15.7471 7.21891 15.806 7.29069 15.8408 7.37466C15.8756 7.45863 15.8847 7.55104 15.867 7.64018C15.8492 7.72933 15.8055 7.81121 15.7412 7.87548C15.677 7.93975 15.595 7.98352 15.5059 8.00125C15.4168 8.01899 15.3244 8.00989 15.2404 7.9751C15.1564 7.94032 15.0846 7.88141 15.0341 7.80584C14.9836 7.73027 14.9567 7.64142 14.9567 7.55053C14.9567 7.42864 15.0051 7.31175 15.0913 7.22557C15.1775 7.13939 15.2944 7.09096 15.4162 7.09096ZM15.4162 6.72332C15.2145 6.72565 15.0207 6.80159 14.871 6.93686C14.7215 7.07214 14.6264 7.25741 14.6038 7.45784C14.5812 7.65829 14.6326 7.86006 14.7484 8.02524C14.8642 8.19041 15.0363 8.30759 15.2325 8.35471C15.281 8.36638 15.3305 8.37321 15.3804 8.37496L15.4162 8.41354L15.4521 8.37496C15.502 8.37321 15.5515 8.36638 15.6 8.35471C15.7979 8.30914 15.972 8.19238 16.0894 8.02668C16.2067 7.86098 16.259 7.65792 16.2363 7.45617C16.2135 7.25441 16.1175 7.06805 15.9662 6.93258C15.815 6.7971 15.6193 6.72197 15.4162 6.72148V6.72332ZM15.4162 7.09096C15.5071 7.09096 15.596 7.11792 15.6715 7.16841C15.7471 7.21891 15.806 7.29069 15.8408 7.37466C15.8756 7.45863 15.8847 7.55104 15.867 7.64018C15.8492 7.72933 15.8055 7.81121 15.7412 7.87548C15.677 7.93975 15.595 7.98352 15.5059 8.00125C15.4168 8.01899 15.3244 8.00989 15.2404 7.9751C15.1564 7.94032 15.0846 7.88141 15.0341 7.80584C14.9836 7.73027 14.9567 7.64142 14.9567 7.55053C14.9567 7.42864 15.0051 7.31175 15.0913 7.22557C15.1775 7.13939 15.2944 7.09096 15.4162 7.09096Z" fill="#082242"/>
<path d="M15.4162 6.72332C15.2145 6.72565 15.0207 6.80159 14.871 6.93686C14.7215 7.07214 14.6264 7.25741 14.6038 7.45784C14.5812 7.65829 14.6326 7.86006 14.7484 8.02524C14.8642 8.19041 15.0363 8.30759 15.2325 8.35471C15.281 8.36638 15.3305 8.37321 15.3804 8.37496L15.4162 8.41354L15.4521 8.37496C15.502 8.37321 15.5515 8.36638 15.6 8.35471C15.7979 8.30914 15.972 8.19238 16.0894 8.02668C16.2067 7.86098 16.259 7.65792 16.2363 7.45617C16.2135 7.25441 16.1175 7.06805 15.9662 6.93258C15.815 6.7971 15.6193 6.72197 15.4162 6.72148V6.72332ZM15.4162 7.09096C15.5071 7.09096 15.596 7.11792 15.6715 7.16841C15.7471 7.21891 15.806 7.29069 15.8408 7.37466C15.8756 7.45863 15.8847 7.55104 15.867 7.64018C15.8492 7.72933 15.8055 7.81121 15.7412 7.87548C15.677 7.93975 15.595 7.98352 15.5059 8.00125C15.4168 8.01899 15.3244 8.00989 15.2404 7.9751C15.1564 7.94032 15.0846 7.88141 15.0341 7.80584C14.9836 7.73027 14.9567 7.64142 14.9567 7.55053C14.9567 7.42864 15.0051 7.31175 15.0913 7.22557C15.1775 7.13939 15.2944 7.09096 15.4162 7.09096ZM15.4162 6.72332C15.2145 6.72565 15.0207 6.80159 14.871 6.93686C14.7215 7.07214 14.6264 7.25741 14.6038 7.45784C14.5812 7.65829 14.6326 7.86006 14.7484 8.02524C14.8642 8.19041 15.0363 8.30759 15.2325 8.35471C15.281 8.36638 15.3305 8.37321 15.3804 8.37496L15.4162 8.41354L15.4521 8.37496C15.502 8.37321 15.5515 8.36638 15.6 8.35471C15.7979 8.30914 15.972 8.19238 16.0894 8.02668C16.2067 7.86098 16.259 7.65792 16.2363 7.45617C16.2135 7.25441 16.1175 7.06805 15.9662 6.93258C15.815 6.7971 15.6193 6.72197 15.4162 6.72148V6.72332ZM15.4162 7.09096C15.5071 7.09096 15.596 7.11792 15.6715 7.16841C15.7471 7.21891 15.806 7.29069 15.8408 7.37466C15.8756 7.45863 15.8847 7.55104 15.867 7.64018C15.8492 7.72933 15.8055 7.81121 15.7412 7.87548C15.677 7.93975 15.595 7.98352 15.5059 8.00125C15.4168 8.01899 15.3244 8.00989 15.2404 7.9751C15.1564 7.94032 15.0846 7.88141 15.0341 7.80584C14.9836 7.73027 14.9567 7.64142 14.9567 7.55053C14.9567 7.42864 15.0051 7.31175 15.0913 7.22557C15.1775 7.13939 15.2944 7.09096 15.4162 7.09096ZM15.4162 6.72332C15.2145 6.72565 15.0207 6.80159 14.871 6.93686C14.7215 7.07214 14.6264 7.25741 14.6038 7.45784C14.5812 7.65829 14.6326 7.86006 14.7484 8.02524C14.8642 8.19041 15.0363 8.30759 15.2325 8.35471C15.281 8.36638 15.3305 8.37321 15.3804 8.37496L15.4162 8.41354L15.4521 8.37496C15.502 8.37321 15.5515 8.36638 15.6 8.35471C15.7979 8.30914 15.972 8.19238 16.0894 8.02668C16.2067 7.86098 16.259 7.65792 16.2363 7.45617C16.2135 7.25441 16.1175 7.06805 15.9662 6.93258C15.815 6.7971 15.6193 6.72197 15.4162 6.72148V6.72332ZM15.4162 7.09096C15.5071 7.09096 15.596 7.11792 15.6715 7.16841C15.7471 7.21891 15.806 7.29069 15.8408 7.37466C15.8756 7.45863 15.8847 7.55104 15.867 7.64018C15.8492 7.72933 15.8055 7.81121 15.7412 7.87548C15.677 7.93975 15.595 7.98352 15.5059 8.00125C15.4168 8.01899 15.3244 8.00989 15.2404 7.9751C15.1564 7.94032 15.0846 7.88141 15.0341 7.80584C14.9836 7.73027 14.9567 7.64142 14.9567 7.55053C14.9567 7.42864 15.0051 7.31175 15.0913 7.22557C15.1775 7.13939 15.2944 7.09096 15.4162 7.09096ZM15.4162 6.72332C15.2145 6.72565 15.0207 6.80159 14.871 6.93686C14.7215 7.07214 14.6264 7.25741 14.6038 7.45784C14.5812 7.65829 14.6326 7.86006 14.7484 8.02524C14.8642 8.19041 15.0363 8.30759 15.2325 8.35471C15.281 8.36638 15.3305 8.37321 15.3804 8.37496L15.4162 8.41354L15.4521 8.37496C15.502 8.37321 15.5515 8.36638 15.6 8.35471C15.7979 8.30914 15.972 8.19238 16.0894 8.02668C16.2067 7.86098 16.259 7.65792 16.2363 7.45617C16.2135 7.25441 16.1175 7.06805 15.9662 6.93258C15.815 6.7971 15.6193 6.72197 15.4162 6.72148V6.72332ZM15.4162 7.09096C15.5071 7.09096 15.596 7.11792 15.6715 7.16841C15.7471 7.21891 15.806 7.29069 15.8408 7.37466C15.8756 7.45863 15.8847 7.55104 15.867 7.64018C15.8492 7.72933 15.8055 7.81121 15.7412 7.87548C15.677 7.93975 15.595 7.98352 15.5059 8.00125C15.4168 8.01899 15.3244 8.00989 15.2404 7.9751C15.1564 7.94032 15.0846 7.88141 15.0341 7.80584C14.9836 7.73027 14.9567 7.64142 14.9567 7.55053C14.9567 7.42864 15.0051 7.31175 15.0913 7.22557C15.1775 7.13939 15.2944 7.09096 15.4162 7.09096ZM17.4843 7.2417C17.4845 7.09612 17.4519 6.95237 17.3887 6.8212C17.293 6.62337 17.1334 6.46368 16.9355 6.36808C16.8045 6.30475 16.6606 6.27207 16.515 6.27249C16.4713 6.27262 16.4275 6.27554 16.384 6.28122C16.3709 6.03359 16.2631 5.80046 16.0832 5.62985C15.9032 5.45924 15.6647 5.36414 15.4167 5.36414C15.1687 5.36414 14.9302 5.45924 14.7502 5.62985C14.5702 5.80046 14.4625 6.03359 14.4494 6.28122C14.4059 6.27554 14.3621 6.27262 14.3184 6.27249C14.1038 6.27249 13.8953 6.34364 13.7255 6.47479C13.5557 6.60596 13.4343 6.78973 13.38 6.99733C13.3259 7.20493 13.3421 7.42463 13.4261 7.62203C13.5102 7.81943 13.6574 7.98338 13.8445 8.08821C13.7963 8.18071 13.7637 8.28056 13.748 8.38371C13.7399 8.43338 13.7359 8.48363 13.7361 8.53396C13.735 8.67838 13.7664 8.82113 13.828 8.95171C13.9067 9.11663 14.0305 9.25596 14.185 9.35354C14.3395 9.45113 14.5185 9.50296 14.7012 9.50321C14.8353 9.50363 14.9681 9.47629 15.0912 9.42288C15.2142 9.36954 15.3249 9.29121 15.4162 9.19296C15.5757 9.36429 15.7917 9.47213 16.0245 9.49654C16.2571 9.52096 16.4909 9.46038 16.6825 9.32596C16.874 9.19154 17.0104 8.99238 17.0665 8.76521C17.1227 8.53804 17.0948 8.29823 16.988 8.09004C17.1387 8.00565 17.2642 7.88252 17.3515 7.73338C17.4387 7.58424 17.4845 7.41449 17.4843 7.2417ZM16.8082 7.76744L16.4976 7.94115L16.6612 8.25733C16.7058 8.34238 16.729 8.43704 16.7287 8.53304C16.7289 8.65404 16.6925 8.77229 16.6243 8.87238C16.5562 8.97238 16.4595 9.04946 16.3468 9.09363C16.2341 9.13788 16.1107 9.14704 15.9927 9.11996C15.8748 9.09288 15.7677 9.03088 15.6855 8.94204L15.6 8.85013L15.4162 8.65213L15.2325 8.85013L15.147 8.94204C15.0598 9.03621 14.9448 9.10004 14.8189 9.12429C14.6929 9.14846 14.5625 9.13179 14.4465 9.07671C14.3221 9.01704 14.2218 8.91671 14.1621 8.79221C14.1235 8.71129 14.1035 8.62271 14.1037 8.53304C14.1036 8.50229 14.1061 8.47154 14.1111 8.44113C14.1205 8.37696 14.1407 8.3148 14.1709 8.25733L14.3354 7.94115L14.0242 7.76652C13.908 7.70159 13.8165 7.59989 13.7641 7.47738C13.7119 7.35485 13.7017 7.21844 13.7353 7.08954C13.7689 6.96064 13.8444 6.84652 13.9498 6.76511C14.0552 6.68369 14.1847 6.63958 14.3179 6.63968C14.3453 6.63974 14.3726 6.64159 14.3997 6.64519L14.7935 6.70034L14.8156 6.30374C14.8241 6.15019 14.8911 6.00572 15.0028 5.90002C15.1145 5.79432 15.2625 5.73542 15.4162 5.73542C15.57 5.73542 15.718 5.79432 15.8297 5.90002C15.9414 6.00572 16.0084 6.15019 16.0169 6.30374L16.0394 6.69988L16.4323 6.64703C16.4598 6.64343 16.4874 6.64159 16.515 6.64152C16.6041 6.64112 16.6921 6.66092 16.7724 6.69942H16.7756C16.8986 6.75881 16.998 6.8581 17.0573 6.98113C17.0968 7.06231 17.117 7.15145 17.1166 7.2417C17.1165 7.3488 17.0878 7.45394 17.0336 7.54633C16.9795 7.63871 16.9016 7.71503 16.8082 7.76744ZM15.4162 6.72332C15.2145 6.72565 15.0207 6.80159 14.871 6.93686C14.7215 7.07214 14.6264 7.25741 14.6038 7.45784C14.5812 7.65829 14.6326 7.86006 14.7484 8.02524C14.8642 8.19041 15.0363 8.30759 15.2325 8.35471C15.281 8.36638 15.3305 8.37321 15.3804 8.37496L15.4162 8.41354L15.4521 8.37496C15.502 8.37321 15.5515 8.36638 15.6 8.35471C15.7979 8.30914 15.972 8.19238 16.0894 8.02668C16.2067 7.86098 16.259 7.65792 16.2363 7.45617C16.2135 7.25441 16.1175 7.06805 15.9662 6.93258C15.815 6.7971 15.6193 6.72197 15.4162 6.72148V6.72332ZM15.4162 7.09096C15.5071 7.09096 15.596 7.11792 15.6715 7.16841C15.7471 7.21891 15.806 7.29069 15.8408 7.37466C15.8756 7.45863 15.8847 7.55104 15.867 7.64018C15.8492 7.72933 15.8055 7.81121 15.7412 7.87548C15.677 7.93975 15.595 7.98352 15.5059 8.00125C15.4168 8.01899 15.3244 8.00989 15.2404 7.9751C15.1564 7.94032 15.0846 7.88141 15.0341 7.80584C14.9836 7.73027 14.9567 7.64142 14.9567 7.55053C14.9567 7.42864 15.0051 7.31175 15.0913 7.22557C15.1775 7.13939 15.2944 7.09096 15.4162 7.09096ZM15.4162 6.72332C15.2145 6.72565 15.0207 6.80159 14.871 6.93686C14.7215 7.07214 14.6264 7.25741 14.6038 7.45784C14.5812 7.65829 14.6326 7.86006 14.7484 8.02524C14.8642 8.19041 15.0363 8.30759 15.2325 8.35471C15.281 8.36638 15.3305 8.37321 15.3804 8.37496L15.4162 8.41354L15.4521 8.37496C15.502 8.37321 15.5515 8.36638 15.6 8.35471C15.7979 8.30914 15.972 8.19238 16.0894 8.02668C16.2067 7.86098 16.259 7.65792 16.2363 7.45617C16.2135 7.25441 16.1175 7.06805 15.9662 6.93258C15.815 6.7971 15.6193 6.72197 15.4162 6.72148V6.72332ZM15.4162 7.09096C15.5071 7.09096 15.596 7.11792 15.6715 7.16841C15.7471 7.21891 15.806 7.29069 15.8408 7.37466C15.8756 7.45863 15.8847 7.55104 15.867 7.64018C15.8492 7.72933 15.8055 7.81121 15.7412 7.87548C15.677 7.93975 15.595 7.98352 15.5059 8.00125C15.4168 8.01899 15.3244 8.00989 15.2404 7.9751C15.1564 7.94032 15.0846 7.88141 15.0341 7.80584C14.9836 7.73027 14.9567 7.64142 14.9567 7.55053C14.9567 7.42864 15.0051 7.31175 15.0913 7.22557C15.1775 7.13939 15.2944 7.09096 15.4162 7.09096ZM15.4162 6.72332C15.2145 6.72565 15.0207 6.80159 14.871 6.93686C14.7215 7.07214 14.6264 7.25741 14.6038 7.45784C14.5812 7.65829 14.6326 7.86006 14.7484 8.02524C14.8642 8.19041 15.0363 8.30759 15.2325 8.35471C15.281 8.36638 15.3305 8.37321 15.3804 8.37496L15.4162 8.41354L15.4521 8.37496C15.502 8.37321 15.5515 8.36638 15.6 8.35471C15.7979 8.30914 15.972 8.19238 16.0894 8.02668C16.2067 7.86098 16.259 7.65792 16.2363 7.45617C16.2135 7.25441 16.1175 7.06805 15.9662 6.93258C15.815 6.7971 15.6193 6.72197 15.4162 6.72148V6.72332ZM15.4162 7.09096C15.5071 7.09096 15.596 7.11792 15.6715 7.16841C15.7471 7.21891 15.806 7.29069 15.8408 7.37466C15.8756 7.45863 15.8847 7.55104 15.867 7.64018C15.8492 7.72933 15.8055 7.81121 15.7412 7.87548C15.677 7.93975 15.595 7.98352 15.5059 8.00125C15.4168 8.01899 15.3244 8.00989 15.2404 7.9751C15.1564 7.94032 15.0846 7.88141 15.0341 7.80584C14.9836 7.73027 14.9567 7.64142 14.9567 7.55053C14.9567 7.42864 15.0051 7.31175 15.0913 7.22557C15.1775 7.13939 15.2944 7.09096 15.4162 7.09096Z" stroke="#082242" stroke-width="0.2"/>
<path d="M15.3485 8.28036L15.4113 8.34631L15.4178 8.35331L15.4222 8.34856L15.4852 8.28058V8.28056L15.6557 8.09673L15.6558 8.09664C15.7019 8.04722 15.7553 8.00518 15.8143 7.97203L15.8143 7.97199L16.0898 7.81755L15.9444 7.53735C15.9443 7.53733 15.9443 7.53729 15.9443 7.53727C15.9023 7.45728 15.8782 7.36915 15.8735 7.27894V7.27903L15.9151 7.27672L15.8735 7.27889L15.3485 8.28036ZM15.3485 8.28036L15.1782 8.09673L15.1781 8.09664C15.132 8.04722 15.0785 8.00518 15.0197 7.97203L15.0196 7.97199L14.7441 7.81755L14.8895 7.53726C14.8895 7.53725 14.8896 7.53724 14.8896 7.53723C14.9313 7.45718 14.9554 7.36913 14.9603 7.27899L15.3485 8.28036ZM15.3485 8.28036L15.5049 6.97378L15.3485 8.28036ZM15.8893 6.92265L15.8539 6.92736L15.8522 6.89618L15.8893 6.92265ZM15.8893 6.92265C15.8914 6.92425 15.8936 6.92588 15.8957 6.9275L15.8953 6.92185L15.8893 6.92265ZM15.8893 6.92265C15.8772 6.91345 15.8648 6.90463 15.8522 6.89618L15.8893 6.92265ZM15.8522 6.89618L15.8516 6.88563L15.8388 6.88734C15.8433 6.89024 15.8478 6.89318 15.8522 6.89618ZM15.4528 8.37689L15.4508 8.33531C15.4654 8.33456 15.48 8.33339 15.4945 8.33183L15.4528 8.37689ZM15.4528 8.37689L15.4833 8.40523L15.5147 8.37131C15.4942 8.37406 15.4735 8.37589 15.4528 8.37689ZM14.9603 7.27899V7.27903L14.9188 7.27672L14.9603 7.27899ZM14.9603 7.27899L14.9799 6.92736L14.9603 7.27899ZM14.9799 6.92736L15.3289 6.97378L14.9799 6.92736ZM14.9799 6.92736L14.9813 6.90338L14.9378 6.93558C14.9428 6.93158 14.9478 6.92764 14.953 6.92378L14.9799 6.92736ZM15.3289 6.97378C15.3873 6.98228 15.4466 6.98228 15.5049 6.97378H15.3289ZM15.3289 6.97378C15.3288 6.97377 15.3288 6.97375 15.3287 6.97374L15.3347 6.93251L15.3292 6.97382L15.3289 6.97378ZM15.5049 6.97378L15.5047 6.97382L15.4992 6.93251L15.5053 6.97374C15.5051 6.97375 15.505 6.97377 15.5049 6.97378ZM14.9311 6.83678L14.9018 6.83288L14.9003 6.85917C14.8808 6.87394 14.862 6.88958 14.8438 6.90605C14.6867 7.04813 14.5868 7.24274 14.5631 7.45328C14.5393 7.66381 14.5934 7.87575 14.715 8.04925C14.8366 8.22274 15.0173 8.34581 15.2233 8.39539H15.2234C15.2683 8.40614 15.314 8.41298 15.36 8.41573L15.3529 8.42339L15.4442 8.41906L15.4818 8.42039L15.4785 8.41706C15.5231 8.41356 15.5673 8.40631 15.6106 8.39531C15.8182 8.34739 16.0009 8.22478 16.1241 8.05085C16.2473 7.8768 16.3023 7.66352 16.2783 7.4516C16.2545 7.23968 16.1536 7.04394 15.9948 6.90164C15.9749 6.88388 15.9543 6.86711 15.9332 6.85136L15.9322 6.83288L15.9113 6.83565C15.7669 6.73514 15.5947 6.68033 15.417 6.67991L15.3753 6.67981V6.6832C15.2155 6.69263 15.0618 6.74602 14.9311 6.83678ZM16.1805 7.86223L16.2009 7.85078L16.1918 7.83314C16.1882 7.84291 16.1844 7.8526 16.1805 7.86223ZM15.9363 6.90648C15.9248 6.89722 15.9132 6.88828 15.9013 6.87966C15.8983 6.87743 15.8952 6.87523 15.8921 6.87305C15.8778 6.86291 15.8631 6.85324 15.8482 6.84406L15.9363 6.90648Z" fill="#082242" stroke="#082242" stroke-width="0.1"/>
<path d="M15.2233 8.39539H15.2234C15.2746 8.40764 15.3269 8.41481 15.3796 8.41673H15.3811H15.4169H15.4528H15.4543C15.5068 8.41481 15.5592 8.40764 15.6103 8.39539C15.818 8.34748 16.0009 8.22484 16.1241 8.05085C16.2473 7.8768 16.3023 7.66352 16.2783 7.4516C16.2545 7.23968 16.1536 7.04394 15.9948 6.90164C15.8359 6.75933 15.6303 6.68042 15.417 6.67991L15.3753 6.67981V6.6832C15.1783 6.69483 14.9908 6.7732 14.8438 6.90605C14.6867 7.04813 14.5868 7.24274 14.5631 7.45328C14.5393 7.66381 14.5934 7.87575 14.715 8.04925C14.8366 8.22274 15.0173 8.34581 15.2233 8.39539ZM15.4169 7.13273C15.4996 7.13273 15.5804 7.15723 15.6491 7.20315C15.7178 7.24908 15.7714 7.31433 15.803 7.3907C15.8347 7.46706 15.8429 7.55108 15.8268 7.63214C15.8107 7.71321 15.7708 7.78767 15.7124 7.84611C15.654 7.90456 15.5795 7.94436 15.4984 7.96048C15.4174 7.9766 15.3333 7.96833 15.257 7.9367C15.1807 7.90507 15.1154 7.85151 15.0695 7.78278C15.0236 7.71407 14.999 7.63327 14.999 7.55062C14.999 7.43978 15.0431 7.33349 15.1214 7.25513C15.1998 7.17675 15.3061 7.13273 15.4169 7.13273Z" fill="#082242" stroke="#082242" stroke-width="0.1"/>
<path d="M18.0951 9.90368L18.1081 9.86409H18.108L18.1079 9.86401L18.1072 9.86384L18.105 9.86309L18.0966 9.86051C18.0893 9.85826 18.0786 9.85501 18.0648 9.85109C18.0371 9.84334 17.997 9.83268 17.9468 9.82126C17.8465 9.79834 17.7052 9.77218 17.5416 9.75884C17.2155 9.73234 16.7953 9.75676 16.4333 9.96634C16.0286 10.1989 15.7189 10.5027 15.564 10.7897C15.4463 11.0075 15.4164 11.2257 15.512 11.3948L15.5122 11.3951C15.5284 11.4232 15.548 11.4493 15.5703 11.4727C15.7117 11.6248 15.9624 11.676 16.2504 11.6462C16.5407 11.6161 16.8795 11.5028 17.2101 11.312C17.5722 11.1028 17.8033 10.751 17.9435 10.4553C18.0139 10.307 18.0618 10.1716 18.0923 10.0733C18.1075 10.0241 18.1184 9.98409 18.1254 9.95626C18.129 9.94234 18.1315 9.93143 18.1333 9.92401L18.1352 9.91543L18.1357 9.91309L18.1358 9.91251L18.1359 9.91234V9.91226L18.0951 9.90368ZM18.0951 9.90368L18.1081 9.86409L18.1435 9.87576L18.1359 9.91226L18.0951 9.90368ZM17.3304 10.1597L17.3303 10.2013C17.4065 10.2015 17.4828 10.2055 17.5586 10.2134C17.4482 10.4616 17.2655 10.759 16.9846 10.9213C16.6775 11.0988 16.346 11.2025 16.0992 11.2025C16.0196 11.2025 15.9674 11.1916 15.9356 11.1808C15.9198 11.1754 15.9091 11.1701 15.9029 11.1663C15.9025 11.1661 15.9022 11.1659 15.9019 11.1658C15.9015 11.1626 15.9015 11.1574 15.9023 11.1497C15.9041 11.1341 15.9095 11.1128 15.9196 11.0862C15.94 11.0331 15.978 10.9636 16.0371 10.8843C16.1551 10.726 16.3551 10.532 16.6587 10.3566L16.6588 10.3565C16.8346 10.2545 17.0608 10.2013 17.3304 10.2013V10.1597ZM17.3304 10.1597C17.4125 10.1598 17.4945 10.1644 17.576 10.1733L16.6379 10.3205C16.8217 10.2138 17.0556 10.1597 17.3304 10.1597Z" fill="#082242" stroke="#082242" stroke-width="0.1"/>
</g>
</svg>
