<svg width="20" height="20" viewBox="0 0 20 20" fill="none" xmlns="http://www.w3.org/2000/svg">
<g clip-path="url(#clip0_206_14655)">
<path d="M7.41504 1.9628C7.41504 1.87992 7.44797 1.80043 7.50657 1.74183C7.56517 1.68323 7.64466 1.6503 7.72754 1.6503C8.06412 1.65071 8.38676 1.7846 8.62476 2.02259C8.86276 2.26058 8.99667 2.58326 8.99709 2.91983V7.871C8.99709 7.95388 8.96417 8.03337 8.90551 8.09198C8.84692 8.15058 8.76742 8.1835 8.68459 8.1835C8.60167 8.1835 8.52217 8.15058 8.46359 8.09198C8.40501 8.03337 8.37209 7.95388 8.37209 7.871V2.91983C8.37184 2.74895 8.30389 2.58513 8.18307 2.46431C8.06223 2.34348 7.89842 2.27551 7.72754 2.2753C7.64466 2.2753 7.56517 2.24238 7.50657 2.18377C7.44797 2.12517 7.41504 2.04568 7.41504 1.9628ZM9.66117 3.64248C9.82692 3.64248 9.98584 3.70833 10.1031 3.82554C10.2203 3.94276 10.2862 4.10173 10.2862 4.26748V12.3581C10.2868 12.6522 10.1715 12.9346 9.96542 13.1445C9.42676 13.696 9.46584 14.294 9.46584 14.6581C9.46584 14.741 9.49876 14.8205 9.55734 14.879C9.61592 14.9377 9.69542 14.9706 9.77834 14.9706C9.86117 14.9706 9.94067 14.9377 9.99926 14.879C10.0579 14.8205 10.0908 14.741 10.0908 14.6581C10.0908 14.3456 10.0486 13.9523 10.4115 13.5815C10.7327 13.2555 10.9123 12.8158 10.9112 12.3581V4.26748C10.9112 3.93597 10.7794 3.61803 10.545 3.3836C10.3106 3.14918 9.99267 3.01748 9.66117 3.01748C9.57826 3.01748 9.49876 3.05041 9.44017 3.10902C9.38159 3.16762 9.34867 3.24711 9.34867 3.32998C9.34867 3.41287 9.38159 3.49235 9.44017 3.55096C9.49876 3.60956 9.57826 3.64248 9.66117 3.64248ZM9.79784 15.4686H3.85371C3.77083 15.4686 3.69134 15.5015 3.63274 15.5602C3.57413 15.6188 3.54121 15.6983 3.54121 15.7811C3.54121 15.864 3.57413 15.9435 3.63274 16.0021C3.69134 16.0607 3.77083 16.0936 3.85371 16.0936H9.79784C9.93767 16.0939 10.0717 16.1495 10.1705 16.2484C10.2693 16.3472 10.325 16.4812 10.3252 16.621V16.8163C10.325 16.9561 10.2693 17.0901 10.1705 17.189C10.0717 17.2878 9.93767 17.3435 9.79784 17.3436H2.37597C2.23618 17.3435 2.10217 17.2878 2.00332 17.189C1.90447 17.0901 1.84884 16.9561 1.84863 16.8163V16.621C1.84884 16.4812 1.90447 16.3472 2.00332 16.2484C2.10217 16.1495 2.23618 16.0939 2.37597 16.0936C2.45886 16.0936 2.53834 16.0607 2.59695 16.0021C2.65555 15.9435 2.68847 15.864 2.68847 15.7811V14.6155C2.68847 13.9382 2.31933 13.678 1.88301 13.3683C1.71552 13.249 1.57894 13.0915 1.48463 12.9088C1.39032 12.726 1.34102 12.5235 1.34082 12.3179V8.14444C1.34082 7.9735 1.40872 7.80956 1.5296 7.68868C1.65047 7.56782 1.81441 7.49991 1.98535 7.49991C2.15629 7.49991 2.32023 7.56782 2.44111 7.68868C2.56197 7.80956 2.62988 7.9735 2.62988 8.14444V10.0929C2.62988 10.1758 2.66281 10.2552 2.72141 10.3139C2.78002 10.3725 2.8595 10.4054 2.94238 10.4054C3.02527 10.4054 3.10475 10.3725 3.16336 10.3139C3.22196 10.2552 3.25488 10.1758 3.25488 10.0929V2.91983C3.25488 2.74889 3.32279 2.58495 3.44366 2.46408C3.56453 2.34321 3.72847 2.2753 3.89942 2.2753C4.07036 2.2753 4.23429 2.34321 4.35517 2.46408C4.47604 2.58495 4.54394 2.74889 4.54394 2.91983V8.2128C4.54394 8.29568 4.57687 8.37513 4.63547 8.43379C4.69408 8.49238 4.77357 8.52529 4.85644 8.52529C4.93932 8.52529 5.01881 8.49238 5.07742 8.43379C5.13602 8.37513 5.16894 8.29568 5.16894 8.2128V1.89444C5.16894 1.7235 5.23685 1.55956 5.35772 1.43868C5.4786 1.31782 5.64253 1.24991 5.81347 1.24991C5.98442 1.24991 6.14836 1.31782 6.26923 1.43868C6.3901 1.55956 6.45801 1.7235 6.45801 1.89444V8.2128C6.45801 8.29568 6.49093 8.37513 6.54953 8.43379C6.60814 8.49238 6.68762 8.52529 6.77051 8.52529C6.85339 8.52529 6.93287 8.49238 6.99148 8.43379C7.05008 8.37513 7.08301 8.29568 7.08301 8.2128V1.89444C7.08209 1.56413 6.95248 1.24719 6.72168 1.01089C6.49089 0.774593 6.17709 0.637552 5.84689 0.628858C5.5167 0.620165 5.19612 0.740505 4.95321 0.964334C4.7103 1.18816 4.56419 1.49784 4.5459 1.82764C3.70176 1.32803 2.62988 1.93975 2.62988 2.91983V7.05147C1.78652 6.55225 0.71582 7.16436 0.71582 8.14522V12.3179C0.716072 12.6232 0.789304 12.9241 0.929416 13.1955C1.06952 13.4668 1.27245 13.7006 1.52129 13.8776C1.95097 14.1823 2.06347 14.2725 2.06347 14.6155V15.512C1.82194 15.5804 1.60928 15.7256 1.45773 15.9258C1.30617 16.1259 1.22399 16.37 1.22363 16.621V16.8163C1.22399 17.0674 1.30617 17.3114 1.45773 17.5115C1.60928 17.7116 1.82194 17.8569 2.06347 17.9253V19.0624C2.06347 19.1453 2.0964 19.2248 2.15501 19.2834C2.21361 19.342 2.2931 19.3749 2.37597 19.3749C2.45886 19.3749 2.53834 19.342 2.59695 19.2834C2.65555 19.2248 2.68847 19.1453 2.68847 19.0624V17.9686H9.46584V19.0624C9.46584 19.1453 9.49876 19.2248 9.55734 19.2834C9.61592 19.342 9.69542 19.3749 9.77834 19.3749C9.86117 19.3749 9.94067 19.342 9.99926 19.2834C10.0579 19.2248 10.0908 19.1453 10.0908 19.0624V17.9296C10.3369 17.8646 10.5547 17.7201 10.7101 17.5185C10.8655 17.317 10.9499 17.0697 10.9502 16.8151V16.6198C10.9496 16.3145 10.8279 16.0219 10.6119 15.8061C10.3959 15.5903 10.1032 15.469 9.79784 15.4686Z" fill="#082242"/>
<path d="M14.6517 10.1905H14.6516C14.4334 10.19 14.2268 10.081 14.0752 9.89167C13.9317 9.7125 13.8475 9.47392 13.8367 9.22325H13.4597V9.95533C13.4597 10.015 13.4411 10.0736 13.4059 10.118C13.3705 10.1627 13.3202 10.1905 13.265 10.1905H12.6528C12.5975 10.1905 12.5472 10.1627 12.5118 10.118C12.4767 10.0736 12.458 10.015 12.458 9.95533V6.86012C12.458 6.80052 12.4767 6.74193 12.5118 6.69748C12.5472 6.65278 12.5975 6.625 12.6528 6.625H13.265C13.3202 6.625 13.3705 6.65278 13.4059 6.69748C13.4411 6.74192 13.4597 6.80052 13.4597 6.86012V7.59226H13.8368C13.8479 7.34104 13.9327 7.10218 14.0768 6.92291C14.2289 6.73363 14.4362 6.62497 14.6548 6.625H18.9283C19.227 6.625 19.5109 6.77508 19.7185 7.03744C19.9259 7.29956 20.0413 7.65338 20.0413 8.02083C20.0413 8.08044 20.0227 8.13903 19.9875 8.18348C19.9522 8.22817 19.9018 8.25595 19.8466 8.25595H19.0309C18.8966 8.25643 18.7653 8.32401 18.6667 8.44867C18.5679 8.5735 18.5112 8.74442 18.5108 8.92425V8.92433L14.6517 10.1905ZM14.6517 10.1905L17.693 10.1488C17.8988 10.1488 18.0963 10.0455 18.2418 9.8615C18.3873 9.67758 18.4691 9.42817 18.4691 9.168V8.92425L18.5108 8.92433L14.6517 10.1905ZM14.6517 10.1905H15.5193V11.6547H15.4078C15.3526 11.6547 15.3023 11.6826 15.2669 11.7272C15.2318 11.7717 15.2131 11.8303 15.2131 11.8899V17.3066C15.2131 17.3662 15.2318 17.4247 15.2669 17.4692C15.3023 17.5139 15.3526 17.5417 15.4078 17.5417H16.9384C16.9937 17.5417 17.044 17.5139 17.0793 17.4692C17.1145 17.4247 17.1332 17.3662 17.1332 17.3066V11.8899C17.1332 11.8303 17.1145 11.7717 17.0793 11.7272C17.044 11.6826 16.9937 11.6547 16.9384 11.6547H16.8271V10.1905H14.6517ZM14.6517 10.1905H16.8271H14.6517ZM18.5108 8.92433V9.168C18.5108 9.43642 18.4264 9.69525 18.2744 9.88742C18.1223 10.0797 17.9135 10.1905 17.693 10.1905H16.8271L18.5108 8.92433ZM18.5108 8.92433L16.8271 10.1905L18.5108 8.92433ZM19.0307 7.78572H19.0308H19.6283C19.5888 7.59423 19.5024 7.42433 19.3824 7.30053C19.2527 7.16662 19.0921 7.0952 18.9283 7.09524H14.6548C14.5443 7.09524 14.4358 7.15061 14.3541 7.25394C14.3136 7.30513 14.2811 7.36638 14.2588 7.43437C14.2365 7.50235 14.225 7.57544 14.225 7.64941V9.16792C14.2254 9.317 14.2725 9.45842 14.3541 9.5615C14.4355 9.66442 14.5434 9.71975 14.6533 9.72025H17.6929C17.8029 9.71975 17.9108 9.66442 17.9922 9.5615C18.0738 9.45842 18.1208 9.31708 18.1213 9.168V9.16792L19.0307 7.78572ZM19.0307 7.78572L18.1629 9.168L18.1213 9.16792L19.0307 7.78572ZM19.0307 7.78572C18.7861 7.78626 18.5542 7.90937 18.3849 8.12336C18.2158 8.33708 18.1217 8.62517 18.1213 8.92417V8.92425V9.16792L19.0307 7.78572ZM19.0307 7.78572L18.1213 9.16792L19.0307 7.78572ZM13.2233 7.09524V9.72342L12.6944 9.76592V7.09524H13.2233ZM13.4597 7.84017H13.8013V8.88867H13.4597V7.84017ZM15.6026 17.0714V12.125H15.7139H16.0818H16.7438V17.0714H16.7398H15.6026ZM16.4376 11.6547H15.9087V10.1905H16.4376V11.6547Z" fill="#082242" stroke="#082242" stroke-width="0.1"/>
</g>
<defs>
<clipPath id="clip0_206_14655">
<rect width="20" height="20" fill="white"/>
</clipPath>
</defs>
</svg>
