<svg width="18.000000" height="18.000000" viewBox="0 0 18 18" fill="none" xmlns="http://www.w3.org/2000/svg" xmlns:xlink="http://www.w3.org/1999/xlink">
	<desc>
			Created with Pixso.
	</desc>
	<defs/>
	<path id="Vector" d="M3.625 7.79492C5.065 10.625 7.38 12.9404 10.215 14.3799L12.415 12.1748C12.69 11.9004 13.085 11.8203 13.43 11.9297C14.55 12.2998 15.755 12.5 17 12.5C17.555 12.5 18 12.9453 18 13.5L18 17C18 17.5547 17.555 18 17 18C7.60999 18 0 10.3896 0 1C0 0.445312 0.450012 0 1 0L4.5 0C5.05499 0 5.5 0.445312 5.5 1C5.5 2.24512 5.70001 3.4502 6.07001 4.57031C6.17999 4.91504 6.09998 5.30957 5.82501 5.58496L3.625 7.79492Z" fill="#51AAA0" fill-opacity="1.000000" fill-rule="nonzero"/>
</svg>
