<svg width="24" height="24" viewBox="0 0 24 24" fill="none" xmlns="http://www.w3.org/2000/svg">
<path d="M15.9976 19.0197C15.9984 18.2748 16.2947 17.5605 16.8214 17.0336C17.3483 16.5069 18.0626 16.2106 18.8076 16.2098C19.5526 16.2106 20.2667 16.5069 20.7936 17.0336C21.3203 17.5605 21.6166 18.2748 21.6174 19.0197C21.6166 19.7647 21.3203 20.4789 20.7936 21.0058C20.2667 21.5325 19.5526 21.8287 18.8076 21.8296C18.0626 21.8288 17.3483 21.5325 16.8216 21.0058C16.2947 20.4789 15.9984 19.7647 15.9976 19.0197ZM17.5249 19.0197C17.5253 19.3597 17.6606 19.6858 17.901 19.9262C18.1416 20.1666 18.4674 20.3018 18.8076 20.3023C19.1476 20.3018 19.4736 20.1666 19.714 19.9262C19.9544 19.6858 20.0897 19.3598 20.0901 19.0197C20.0898 18.6796 19.9545 18.3536 19.714 18.1132C19.4736 17.8726 19.1476 17.7375 18.8076 17.7371C18.4675 17.7374 18.1415 17.8726 17.9009 18.113C17.6604 18.3536 17.5251 18.6796 17.5247 19.0197L17.5249 19.0197ZM7.44301 19.0197C7.4437 18.2748 7.73998 17.5605 8.26685 17.0336C8.79358 16.5069 9.50787 16.2106 10.2529 16.2098C10.9978 16.2106 11.7121 16.5069 12.2389 17.0336C12.7657 17.5605 13.062 18.2748 13.0627 19.0197C13.062 19.7647 12.7657 20.4789 12.2389 21.0058C11.7121 21.5325 10.9978 21.8287 10.2529 21.8296C9.50787 21.8289 8.79344 21.5326 8.26657 21.0058C7.73971 20.479 7.44343 19.7647 7.44258 19.0197H7.44301ZM8.97034 19.0197H8.97021C8.97062 19.3597 9.1059 19.6858 9.34644 19.9262C9.58684 20.1666 9.91285 20.3018 10.2529 20.3023C10.5929 20.3018 10.9189 20.1666 11.1593 19.9262C11.3997 19.6858 11.5349 19.3598 11.5355 19.0197C11.5351 18.6796 11.3998 18.3536 11.1593 18.1132C10.9189 17.8728 10.5929 17.7375 10.2529 17.7371C9.91273 17.7374 9.58673 17.8726 9.34619 18.113C9.10565 18.3534 8.97038 18.6796 8.96996 19.0197L8.97034 19.0197ZM7.91704 15.8398C7.7559 15.8396 7.59904 15.7886 7.46861 15.694C7.33831 15.5994 7.24121 15.4659 7.19128 15.3127L3.35177 3.52691H0.764508H0.764646C0.562006 3.52719 0.367524 3.44683 0.224078 3.30367C0.0806391 3.1605 0 2.96617 0 2.76352C0 2.56102 0.080501 2.36683 0.223664 2.22366C0.366826 2.0805 0.561025 2 0.763524 2H3.90492C4.06606 2 4.22306 2.05104 4.35335 2.14565C4.48365 2.2404 4.58075 2.37374 4.63068 2.52702L5.42769 4.97402H23.2361C23.4386 4.97402 23.6328 5.05438 23.7759 5.19768C23.9191 5.34084 23.9996 5.53504 23.9996 5.73754C23.9997 5.77627 23.9968 5.815 23.9912 5.85345C24.0073 5.95871 24.0013 6.06633 23.9733 6.16924L21.5087 15.276C21.4649 15.4379 21.369 15.5808 21.2358 15.6827C21.1026 15.7847 20.9395 15.84 20.7718 15.84L7.91704 15.8398ZM8.47128 14.3124H20.1881L22.3026 6.50029H5.92618L8.47128 14.3124Z" fill="#082242"/>
</svg>
