<svg width="50" height="50" viewBox="0 0 50 50" fill="none" xmlns="http://www.w3.org/2000/svg">
<g clip-path="url(#clip0_206_14252)">
<path d="M49.8417 24.0362L38.7451 6.38571C38.6577 6.21095 38.3956 6.03619 38.2208 6.03619C37.9587 5.94881 37.7839 6.03619 37.5218 6.12357L32.2791 9.44397C31.8422 9.70611 31.7548 10.2304 32.0169 10.6673L32.2791 11.1042C30.182 10.7547 26.949 10.5799 24.8519 11.5411H24.7645C22.4926 10.7547 18.648 11.1915 16.3761 11.6284L17.0752 10.4925C17.3373 10.0556 17.1625 9.53135 16.7256 9.26921L11.5703 6.21095C11.3955 6.12357 11.1334 6.03619 10.8713 6.12357C10.6091 6.21095 10.4344 6.29833 10.347 6.56047L0.123164 24.5605C-0.138973 24.9974 0.0357851 25.5217 0.472679 25.7838L5.54065 28.6673C5.71541 28.7547 5.80279 28.7547 5.97755 28.7547C6.23968 28.7547 6.5892 28.5799 6.76396 28.3178L7.8125 26.4829C8.07464 27.0945 8.42415 27.6188 8.77367 27.9683C8.16202 28.6673 7.8125 29.5411 7.8125 30.4149C7.8125 31.3761 8.16202 32.3372 8.86105 33.0363C9.56008 33.7353 10.5212 34.0848 11.4824 34.0848H11.8319V34.4343C11.8319 35.3955 12.1814 36.3567 12.8805 37.0557C13.5795 37.7547 14.4533 38.1042 15.5018 38.1042H15.8514V38.4538C15.8514 39.4149 16.2009 40.3761 16.8999 41.0751C17.5989 41.7742 18.5601 42.1237 19.5213 42.1237C20.4824 42.1237 21.3562 41.7742 22.1426 41.0751L22.4921 40.7256L24.5892 42.2984C25.2883 42.8227 25.9873 43.0848 26.7737 43.0848C27.9096 43.0848 28.9582 42.6479 29.5698 41.7742C30.0067 41.1625 30.2689 40.5508 30.2689 39.8518H30.4436C31.4922 39.8518 32.5407 39.4149 33.2397 38.5411C33.6766 37.9295 33.9388 37.2305 33.9388 36.6188H34.2009C35.2495 36.6188 36.298 36.1819 36.997 35.3955C37.4339 34.8712 37.6961 34.2596 37.6961 33.4732C38.5699 33.3858 39.4436 32.9489 39.9679 32.1625C40.7543 31.1139 40.8417 29.8032 40.3174 28.7547L42.6767 27.3566L43.3757 28.4926C43.4631 28.6673 43.7252 28.8421 43.9 28.8421H44.0747C44.2495 28.8421 44.4242 28.7547 44.5116 28.6673L49.7543 25.2595C50.0165 24.91 50.1039 24.3858 49.8417 24.0362ZM5.62803 26.6576L2.0455 24.6479L11.395 8.04591L15.0649 10.2304L5.62803 26.6576ZM9.99697 31.813C9.64746 31.4634 9.4727 30.9392 9.4727 30.5023C9.4727 29.978 9.64746 29.5411 9.99697 29.1916L10.5212 28.6673C11.2203 27.9683 12.531 27.9683 13.23 28.6673C13.5795 29.0168 13.7543 29.5411 13.7543 29.978C13.7543 30.5023 13.5795 30.9392 13.23 31.2887L12.7057 31.813C12.0067 32.512 10.7834 32.512 9.99697 31.813ZM13.929 35.745C13.5795 35.3955 13.4047 34.8712 13.4047 34.4343C13.4047 33.9101 13.5795 33.4732 13.929 33.1236L14.4533 32.5994C14.8028 32.2499 15.3271 32.0751 15.764 32.0751C16.2009 32.0751 16.7251 32.2499 17.0747 32.5994C17.8611 33.3858 17.8611 34.5217 17.0747 35.3081L16.5504 35.8324C15.9387 36.444 14.7154 36.444 13.929 35.745ZM20.5698 39.6771C19.7834 40.3761 18.6475 40.3761 17.8611 39.6771C17.5116 39.3275 17.3368 38.8033 17.3368 38.3664C17.3368 37.8421 17.5116 37.4052 17.8611 37.0557L18.3853 36.5314C18.7349 36.1819 19.2591 36.0071 19.696 36.0071C20.1329 36.0071 20.6572 36.1819 21.0067 36.5314C21.3562 36.8809 21.531 37.4052 21.531 37.8421C21.531 38.3664 21.3562 38.8033 21.0067 39.1528L20.5698 39.6771ZM38.3072 30.9392C37.9577 31.3761 37.4334 31.6382 36.8218 31.5508C36.7344 31.4634 36.5596 31.4634 36.3849 31.4634L35.8606 31.2013L34.113 29.8032C33.7635 29.5411 33.1519 29.5411 32.8897 29.978C32.6276 30.3275 32.6276 30.9392 33.0645 31.2013L34.8121 32.5994C35.0742 32.7741 35.3363 32.9489 35.6859 33.1236C35.6859 33.4732 35.5985 33.8227 35.4237 34.0848C34.8121 34.7838 33.6761 34.9586 32.9771 34.4343L32.8897 34.347C32.8897 34.347 32.8023 34.347 32.8023 34.2596L31.0548 32.8615C30.7053 32.5994 30.0936 32.5994 29.8315 33.0363C29.5693 33.3858 29.5693 33.9974 30.0062 34.2596L31.7538 35.6576L31.8412 35.745C32.1033 36.1819 32.1033 36.8809 31.7538 37.3178C31.2295 37.9295 30.181 38.1916 29.482 37.7547C29.3946 37.6673 29.3072 37.6673 29.2198 37.58L29.1324 37.4926L27.3849 36.0945C27.0353 35.8324 26.4237 35.8324 26.1616 36.2693C25.8994 36.6188 25.8994 37.2305 26.3363 37.4926L28.0839 38.8907C28.1713 38.8907 28.1713 38.978 28.2586 39.0654C28.4334 39.5897 28.4334 40.114 27.9965 40.6382C27.7344 41.0751 27.2101 41.2499 26.5985 41.2499C26.1616 41.2499 25.812 41.1625 25.4625 40.813L23.715 39.5023L23.2781 39.2402C23.4528 38.8033 23.5402 38.3664 23.5402 37.8421C23.5402 36.8809 23.1907 35.9198 22.4916 35.2207C21.7052 34.4343 20.6567 34.0848 19.6081 34.1722C19.6955 33.1236 19.346 32.0751 18.5596 31.2887C17.7732 30.5023 16.7246 30.1528 15.6761 30.2401V29.8906C15.6761 28.9295 15.3266 27.9683 14.6276 27.2693C13.9285 26.5702 13.0547 26.2207 12.0062 26.2207C11.3072 26.2207 10.6081 26.3955 10.0839 26.745C9.73434 26.3081 9.21006 25.5217 9.03531 24.3858L15.3266 13.4629C17.0742 13.1134 20.7441 12.5017 23.1907 12.8512L17.1615 18.4435C16.113 19.492 16.0256 21.1522 17.0742 22.2882C17.5984 22.8998 18.3848 23.2493 19.1713 23.2493C19.6955 23.2493 20.2198 23.0746 20.6567 22.8124L25.6373 19.492C26.3363 18.9678 27.2101 18.793 28.0839 18.9678L28.9577 19.0551L36.9092 27.4435L38.3072 28.929C38.7441 29.3659 38.7441 30.327 38.3072 30.9387V30.9392ZM39.0062 27.1819L38.0451 26.1333L31.579 19.2304L32.715 19.3178C33.1519 19.4052 33.5888 19.0556 33.6761 18.5314C33.7635 18.0945 33.414 17.6576 32.8897 17.5702L29.5693 17.2207C29.3946 17.1333 29.3072 17.1333 29.1324 17.1333L28.2586 17.0459C27.0353 16.8712 25.6373 17.1333 24.5887 17.9197L19.6081 21.2401C19.1713 21.5023 18.647 21.4149 18.2975 21.0654C17.9479 20.6285 17.9479 20.0168 18.2975 19.6673L24.8509 13.5508C24.9383 13.4634 25.113 13.376 25.2004 13.2013C25.3751 13.2013 25.4625 13.1139 25.5499 13.0265C27.3849 12.1527 31.1422 12.5022 33.5014 13.0265L41.4529 25.6969L39.0062 27.1819ZM44.1616 26.6576L43.5499 25.7838C43.5499 25.6964 43.5499 25.6091 43.4626 25.5217C43.3752 25.4343 43.2878 25.3469 43.2878 25.2595L34.0257 10.4051L37.7829 8.04591L47.9189 24.2115L44.1616 26.6576Z" fill="#29B384"/>
</g>
<defs>
<clipPath id="clip0_206_14252">
<rect width="50" height="50" fill="white"/>
</clipPath>
</defs>
</svg>
