<svg width="50" height="50" viewBox="0 0 50 50" fill="none" xmlns="http://www.w3.org/2000/svg">
<g clip-path="url(#clip0_206_14235)">
<path d="M35.1562 3.51536C35.1562 4.16267 34.6316 4.68722 33.9843 4.68722C33.337 4.68722 32.8125 4.16267 32.8125 3.51536C32.8125 2.86804 33.337 2.34349 33.9843 2.34349C34.6316 2.34349 35.1562 2.86804 35.1562 3.51536Z" fill="#29B384"/>
<path d="M39.4531 3.51536C39.4531 4.16267 38.9286 4.68722 38.2813 4.68722C37.6339 4.68722 37.1094 4.16267 37.1094 3.51536C37.1094 2.86804 37.6339 2.34349 38.2813 2.34349C38.9286 2.34349 39.4531 2.86804 39.4531 3.51536Z" fill="#29B384"/>
<path d="M7.42185 25.7808H16.0155C17.7343 25.7808 19.1405 24.3745 19.1405 22.6558V16.4059C19.1405 14.6871 17.7343 13.2809 16.0155 13.2809H7.42185C5.70311 13.2809 4.29688 14.6871 4.29688 16.4059V22.6558C4.29688 24.3745 5.70311 25.7808 7.42185 25.7808ZM5.85936 16.4059C5.85936 15.5465 6.56248 14.8434 7.42185 14.8434H16.0155C16.8749 14.8434 17.578 15.5465 17.578 16.4059V22.6558C17.578 23.5152 16.8749 24.2183 16.0155 24.2183H7.42185C6.56248 24.2183 5.85936 23.5152 5.85936 22.6558V16.4059Z" fill="#29B384"/>
<path d="M38.6707 13.2809H22.2646C21.835 13.2809 21.4834 13.6324 21.4834 14.0621C21.4834 14.4918 21.835 14.8434 22.2646 14.8434H38.6707C39.1004 14.8434 39.452 14.4918 39.452 14.0621C39.452 13.6324 39.1004 13.2809 38.6707 13.2809Z" fill="#29B384"/>
<path d="M38.6707 16.4059H22.2646C21.835 16.4059 21.4834 16.7574 21.4834 17.1871C21.4834 17.6168 21.835 17.9684 22.2646 17.9684H38.6707C39.1004 17.9684 39.452 17.6168 39.452 17.1871C39.452 16.7574 39.1004 16.4059 38.6707 16.4059Z" fill="#29B384"/>
<path d="M39.453 20.3121C39.453 19.8824 39.1014 19.5308 38.6717 19.5308H22.2656C21.8359 19.5308 21.4844 19.8824 21.4844 20.3121C21.4844 20.7417 21.8359 21.0933 22.2656 21.0933H38.6717C39.1014 21.0933 39.453 20.7417 39.453 20.3121Z" fill="#29B384"/>
<path d="M29.7264 24.2183C30.1561 24.2183 30.5077 23.8667 30.5077 23.4371C30.5077 23.0074 30.1561 22.6558 29.7264 22.6558H22.2656C21.8359 22.6558 21.4844 23.0074 21.4844 23.4371C21.4844 23.8667 21.8359 24.2183 22.2656 24.2183H29.7264Z" fill="#29B384"/>
<path d="M21.0936 27.3432H4.68749C4.25781 27.3432 3.90625 27.6948 3.90625 28.1245C3.90625 28.5542 4.25781 28.9057 4.68749 28.9057H21.0936C21.5233 28.9057 21.8748 28.5542 21.8748 28.1245C21.8748 27.6948 21.5233 27.3432 21.0936 27.3432Z" fill="#29B384"/>
<path d="M21.0936 30.4682H4.68749C4.25781 30.4682 3.90625 30.8198 3.90625 31.2495C3.90625 31.6791 4.25781 32.0307 4.68749 32.0307H21.0936C21.5233 32.0307 21.8748 31.6791 21.8748 31.2495C21.8748 30.8198 21.5233 30.4682 21.0936 30.4682Z" fill="#29B384"/>
<path d="M21.0936 33.5932H4.68749C4.25781 33.5932 3.90625 33.9447 3.90625 34.3744C3.90625 34.8041 4.25781 35.1557 4.68749 35.1557H21.0936C21.5233 35.1557 21.8748 34.8041 21.8748 34.3744C21.8748 33.9447 21.5233 33.5932 21.0936 33.5932Z" fill="#29B384"/>
<path d="M3.12497 40.6244C2.2656 40.6244 1.56249 39.9213 1.56249 39.0619V7.03095H42.1871V31.4057L43.7496 31.9916V3.12496C43.7496 1.40623 42.3433 -7.62939e-06 40.6246 -7.62939e-06H3.12497C1.40624 -7.62939e-06 0 1.40623 0 3.12496V39.0621C0 40.7808 1.40624 42.1871 3.12497 42.1871H32.4997L31.9528 40.6246L3.12497 40.6244ZM3.12497 1.56225H40.6246C41.484 1.56225 42.1871 2.26537 42.1871 3.12474V5.46847H1.56249V3.12474C1.56249 2.26537 2.2656 1.56225 3.12497 1.56225Z" fill="#29B384"/>
<path d="M48.9061 44.7654L43.2811 38.7108L45.3905 37.7733C47.3826 36.6796 47.3436 35.1171 45.2343 34.2187L33.1638 29.6094C32.6951 29.4141 32.2654 29.2969 31.8747 29.2969C30.6247 29.2969 30.1169 30.3906 30.6638 32.1485L34.9607 44.6876C35.3513 45.8985 35.9373 46.5235 36.5623 46.5235C37.1482 46.5235 37.7341 46.0157 38.2419 45.0391L39.2185 42.8126L44.7653 48.75C45.5075 49.5703 46.5232 50 47.4216 50C48.0856 50 48.7107 49.7656 49.1794 49.2969C50.3513 48.2031 50.234 46.1719 48.906 44.7657L48.9061 44.7654ZM48.1639 48.2029C48.0077 48.3591 47.7733 48.4372 47.4999 48.4372C46.9921 48.4372 46.4061 48.1638 45.9765 47.6951L40.4296 41.7576L38.828 40.0389L37.8514 42.1873L36.914 44.3356C36.8358 44.4919 36.7577 44.6091 36.6796 44.6872C36.6405 44.57 36.5624 44.4137 36.4843 44.2184L32.1874 31.64C32.0702 31.2494 32.0312 31.015 32.0312 30.8587C32.1484 30.8587 32.3437 30.9369 32.578 31.015H32.6171L44.6483 35.6633C44.9217 35.7805 45.117 35.8977 45.1951 35.9758C45.117 36.054 44.9608 36.2102 44.6873 36.3274L42.6561 37.2258L40.664 38.1242L42.1483 39.7258L47.7733 45.7803C48.5545 46.6787 48.5936 47.7725 48.1639 48.2022V48.2029Z" fill="#29B384"/>
</g>
<defs>
<clipPath id="clip0_206_14235">
<rect width="50" height="50" fill="white"/>
</clipPath>
</defs>
</svg>
