<svg width="50" height="50" viewBox="0 0 50 50" fill="none" xmlns="http://www.w3.org/2000/svg">
<path d="M12.1713 11.4762L16.8664 15.9997L15.7569 22.4292C15.6397 23.0465 15.8818 23.6791 16.3896 24.0464C16.8897 24.4213 17.5537 24.476 18.1083 24.1949L24.1004 21.2029L29.78 24.1639C30.5769 24.5935 31.5691 24.2967 32.0065 23.4998C32.1784 23.1796 32.2409 22.8044 32.1784 22.4375L31.069 16.0314L35.725 11.4769C36.3733 10.8442 36.389 9.81293 35.7564 9.16464C35.5063 8.9069 35.1781 8.73496 34.8189 8.68823L28.327 7.742L25.4288 1.89849C25.1477 1.34396 24.5771 0.992445 23.9521 1.00012C23.3348 1.00012 22.7645 1.34401 22.4835 1.89849L19.5852 7.742L13.0853 8.67948C12.1869 8.79667 11.562 9.62464 11.6868 10.5153C11.7339 10.8826 11.9058 11.2184 12.1712 11.4762L12.1713 11.4762ZM20.3041 9.45306C20.5933 9.40633 20.8353 9.21869 20.9605 8.96096L23.9526 2.96888L26.9446 8.96096C27.0775 9.22672 27.3276 9.40633 27.6244 9.45306L34.2572 10.4139L29.4683 15.0466C29.2573 15.2496 29.1558 15.5467 29.2025 15.8435L30.3353 22.3982L24.5308 19.3748C24.2731 19.2419 23.9683 19.2419 23.7105 19.3748L17.6012 22.4373L18.7416 15.8515C18.7807 15.5624 18.6792 15.2656 18.4605 15.0703L13.6716 10.4377L20.3041 9.45306Z" fill="#29B384"/>
<path d="M49.1079 27.6401C48.4986 26.937 47.6392 26.5073 46.7094 26.4449C45.7796 26.3824 44.8736 26.6949 44.1861 27.3199L35.8897 34.7727C35.8663 34.6088 35.8349 34.4445 35.7959 34.2806C35.5148 33.2335 34.788 32.3589 33.8114 31.8822C32.2723 31.2338 30.1319 31.5383 28.0694 31.8354C26.8585 32.0698 25.6242 32.1479 24.3976 32.0621C23.8507 31.9216 23.3196 31.7263 22.8194 31.4605C21.2493 30.7574 19.1009 29.8042 15.101 30.6793C13.0383 31.2104 11.1401 32.2574 9.58565 33.7184V31.5233C9.58565 31.0312 9.18737 30.6249 8.68728 30.6249L0.898371 30.6245C0.39824 30.6399 0 31.0385 0 31.5383V48.9048C0 49.3969 0.398285 49.8032 0.898371 49.8032H8.67925C9.17938 49.8032 9.57762 49.4049 9.57762 48.9048V47.6625C10.7729 47.9436 16.2104 49.2092 20.2336 49.2092C24.4289 49.2092 29.5539 48.2484 32.7101 46.8813C38.5226 44.3579 48.1008 33.4834 48.8811 32.6004C50.2793 31.2727 50.3811 29.0852 49.1074 27.6399L49.1079 27.6401ZM7.78032 48.0065H1.79628V32.4364H7.78836V48.0065H7.78032ZM47.6311 31.2882L47.5453 31.374C47.4435 31.4912 37.5536 42.8193 31.9752 45.2335C29.0379 46.5068 24.202 47.4052 20.2335 47.4052C16.0382 47.4052 9.85876 45.8742 9.79626 45.8585C9.72581 45.8508 9.65571 45.8508 9.57759 45.8585L9.57724 36.2802C10.2336 35.5303 12.5382 33.1005 15.4832 32.4521C18.9049 31.7023 20.6002 32.4521 22.0689 33.1162C22.7015 33.4287 23.3736 33.663 24.0687 33.8116C25.4825 33.9445 26.9125 33.874 28.303 33.5929C30.0451 33.3509 32.0215 33.0775 33.0919 33.5305C33.5606 33.7963 33.8965 34.2413 34.0294 34.7648C34.209 35.4836 34.0217 36.2414 33.545 36.8036C32.1778 38.6395 23.8738 41.3815 20.4667 41.1081C19.9746 41.069 19.5369 41.4439 19.4978 41.936C19.4587 42.4362 19.8337 42.8658 20.3258 42.9049H20.9274C24.6459 42.9049 31.7477 40.7098 34.3485 38.5224L34.4109 38.4833L45.3321 28.663C45.6603 28.3739 46.0899 28.2177 46.5273 28.241C46.9884 28.2724 47.4257 28.4831 47.7225 28.8426C48.3723 29.5458 48.3252 30.6395 47.6301 31.2882L47.6311 31.2882Z" fill="#29B384"/>
</svg>
