<svg width="83" height="31" viewBox="0 0 83 31" fill="none" xmlns="http://www.w3.org/2000/svg">
<path d="M17.6367 18.0646C19.0017 18.0646 19.6867 15.8229 20.5052 13.8476C21.3262 11.8697 25.2029 1.9856 27.6609 1.9856H32.2175C29.7596 1.9856 25.8828 11.8697 25.0618 13.8476C24.2434 15.8229 23.5583 18.0646 22.1908 18.0646H17.6367Z" fill="url(#paint0_linear_206_14374)"/>
<path d="M22.1957 18.0646C20.8307 18.0646 20.1457 15.8229 19.3272 13.8476C18.5062 11.8697 14.6295 1.9856 12.1715 1.9856H7.6123C10.0702 1.9856 13.947 11.8697 14.768 13.8476C15.5865 15.8229 16.2715 18.0646 17.639 18.0646H22.1957Z" fill="#03499A"/>
<path d="M23.4092 18.0646C24.7741 18.0646 25.4592 15.8229 26.2776 13.8476C27.0986 11.8697 30.9754 1.9856 33.4333 1.9856H37.99C35.532 1.9856 31.6553 11.8697 30.8343 13.8476C30.0158 15.8229 29.3282 18.0646 27.9633 18.0646H23.4092Z" fill="url(#paint1_linear_206_14374)"/>
<path d="M27.9656 18.0646C26.6006 18.0646 25.9156 15.8229 25.0971 13.8476C24.2761 11.8697 20.3994 1.9856 17.9414 1.9856H13.3848C15.8427 1.9856 19.7194 11.8697 20.5405 13.8476C21.3589 15.8229 22.044 18.0646 23.4115 18.0646H27.9656Z" fill="#00AB66"/>
<path d="M48.8409 9.77917C49.0051 9.74843 49.2438 9.72281 49.6106 9.72281C50.3701 9.72281 51.009 10.0405 51.009 10.7553C51.009 11.6622 50.2033 12.2438 49.1847 12.2438H48.3765L48.8409 9.77917ZM44.6152 18.0646H47.2015L47.9378 14.1807H48.4125C49.2207 14.1807 49.6106 14.4779 49.7107 15.6538C49.821 16.9579 49.9339 17.7649 50.0237 18.0646H52.7049C52.5048 17.6317 52.4175 16.1329 52.2841 15.0953C52.1738 14.2191 51.9326 13.5812 51.3656 13.2968L51.3784 13.2404C52.7074 12.7767 53.6645 11.8979 53.6645 10.3556C53.6645 9.28471 53.1026 8.60322 52.3585 8.20868C51.5657 7.7757 50.4907 7.68091 49.5362 7.68091C48.3996 7.68091 47.2682 7.78083 46.5523 7.96017L44.6152 18.0646Z" fill="#03499A"/>
<path d="M57.5104 9.79967C57.672 9.76893 57.9389 9.74587 58.3135 9.74587C59.0267 9.74587 59.6733 9.9995 59.6733 10.8834C59.6733 11.734 58.9292 12.4821 57.7849 12.4821C57.4103 12.4821 57.1922 12.4488 57.0075 12.4129L57.5104 9.79967ZM53.3848 18.0646H55.9351L56.6124 14.5291C56.7971 14.5419 57.0948 14.5855 57.4514 14.5855C58.7496 14.5855 59.9683 14.2857 60.8304 13.6375C61.6925 12.9945 62.298 12.003 62.298 10.6502C62.298 9.57421 61.8105 8.79025 61.0177 8.31116C60.1992 7.79107 59.0883 7.68091 58.1877 7.68091C57.1204 7.68091 56.0018 7.78083 55.3013 7.96017L53.3848 18.0646Z" fill="#03499A"/>
<path d="M33.1771 18.0647L32.8281 7.75012H35.4631L35.3835 11.6418C35.3528 12.8587 35.3297 14.2268 35.2835 15.2798H35.3143C35.7325 14.1243 36.1558 12.9074 36.6023 11.6674L38.0082 7.75012H40.8972L40.7587 11.7827C40.7202 12.9714 40.674 14.0552 40.6047 15.2106H40.6355C41.0075 14.068 41.4257 12.828 41.8337 11.6418L43.1858 7.75012H45.9311L41.4873 18.0647H38.6189L38.6343 14.5419C38.6368 13.325 38.6805 12.0824 38.7497 10.9193H38.7189C38.329 12.0824 37.9338 13.325 37.3797 14.7367L36.0917 18.0647H33.1771Z" fill="#03499A"/>
<path d="M8.0385 21.2695C7.03018 21.2695 6.56323 21.3797 6.28613 21.454L6.42468 22.0151C6.71717 21.9459 7.18156 21.8665 8.0385 21.8665C8.99037 21.8665 9.90889 22.1688 10.3091 22.32L10.517 21.8076C10.5195 21.8076 9.30851 21.2695 8.0385 21.2695Z" fill="#03499A"/>
<path d="M8.0385 22.4609C7.03018 22.4609 6.56323 22.5711 6.28613 22.6454L6.42468 23.2065C6.71717 23.1373 7.18156 23.0579 8.0385 23.0579C8.99037 23.0579 9.90889 23.3602 10.3091 23.5113L10.517 22.999C10.5195 22.999 9.30851 22.4609 8.0385 22.4609Z" fill="#03499A"/>
<path d="M8.0385 20.0757C7.03018 20.0757 6.56323 20.1858 6.28613 20.2601L6.42468 20.8212C6.71717 20.752 7.18156 20.6726 8.0385 20.6726C8.99037 20.6726 9.90889 20.9749 10.3091 21.1261L10.517 20.6137C10.5195 20.6137 9.30852 20.0757 8.0385 20.0757Z" fill="#03499A"/>
<path d="M7.05587 18.8665C7.05587 18.8665 5.11877 18.9382 3.58449 20.1244C2.04765 21.3106 1.57812 22.1945 1.57812 22.1945L2.081 22.4814L2.07843 22.4865C2.08357 22.4789 2.53513 21.6769 3.92573 20.6009C5.29324 19.5454 7.05843 19.4634 7.07639 19.4608L7.05587 18.8665Z" fill="#03499A"/>
<path d="M8.0385 23.6548C6.82237 23.6548 6.3939 23.8162 6.1322 23.8777C5.8705 23.9417 5.44203 24.1031 4.22845 24.1031C3.27658 24.1031 2.35807 23.8008 1.95782 23.6497L1.75 24.1621C1.75 24.1621 2.961 24.7001 4.22845 24.7001C5.44203 24.7001 5.87306 24.5387 6.1322 24.4772C6.3939 24.4131 6.82237 24.2517 8.0385 24.2517C8.99037 24.2517 9.90889 24.554 10.3091 24.7052L10.517 24.1928C10.5195 24.1902 9.30852 23.6548 8.0385 23.6548Z" fill="#03499A"/>
<path d="M4.23138 27.6797C3.27951 27.6797 2.361 27.3774 1.96075 27.2262L1.75293 27.7386C1.75293 27.7386 2.96393 28.2766 4.23138 28.2766C5.2397 28.2766 5.70665 28.1664 5.98375 28.0921L5.8452 27.5311C5.55271 27.6002 5.08832 27.6797 4.23138 27.6797Z" fill="#03499A"/>
<path d="M4.23138 26.4883C3.27951 26.4883 2.361 26.1859 1.96075 26.0348L1.75293 26.5472C1.75293 26.5472 2.96393 27.0852 4.23138 27.0852C5.2397 27.0852 5.70665 26.975 5.98375 26.9007L5.8452 26.3397C5.55271 26.4063 5.08832 26.4883 4.23138 26.4883Z" fill="#03499A"/>
<path d="M4.23138 25.2944C3.27951 25.2944 2.361 24.9921 1.96075 24.8409L1.75293 25.3533C1.75293 25.3533 2.96393 25.8914 4.23138 25.8914C5.2397 25.8914 5.70665 25.7812 5.98375 25.7069L5.8452 25.1458C5.55271 25.215 5.08832 25.2944 4.23138 25.2944Z" fill="#03499A"/>
<path d="M5.21388 29.4859C5.21388 29.4859 7.15098 29.4142 8.68526 28.2306C10.2221 27.0444 10.6916 26.1605 10.6916 26.1605L10.1888 25.8735L10.1913 25.8684C10.1862 25.8761 9.73463 26.678 8.34402 27.754C6.97651 28.8096 5.21132 28.8941 5.19336 28.8941L5.21388 29.4859Z" fill="#03499A"/>
<path d="M15.9276 25.2868C15.9276 25.9965 15.9661 26.1016 16.3176 26.1272L16.5639 26.1477C16.6024 26.1861 16.5896 26.2937 16.5511 26.3142C16.1483 26.3014 15.9276 26.2937 15.6685 26.2937C15.3965 26.2937 15.163 26.3014 14.8192 26.3142C14.7807 26.2937 14.7679 26.1887 14.8064 26.1477L15.0065 26.1272C15.3837 26.0887 15.3965 25.994 15.3965 25.2868V24.9487C15.3965 24.5849 15.376 24.4978 15.1887 24.1263L14.4241 22.6019C14.2035 22.1638 14.106 22.1305 13.911 22.0997L13.7288 22.0664C13.6903 22.0203 13.6955 21.9281 13.7416 21.8999C13.9495 21.9127 14.1829 21.9204 14.4934 21.9204C14.791 21.9204 15.0245 21.9127 15.1861 21.8999C15.2451 21.9204 15.2451 22.0254 15.2067 22.0664L15.122 22.0792C14.8962 22.1202 14.85 22.1459 14.85 22.1997C14.85 22.2663 15.0194 22.6429 15.0501 22.7095C15.2888 23.1988 15.5299 23.7215 15.7814 24.1801C15.9815 23.8291 16.197 23.4448 16.3894 23.0605C16.5716 22.7146 16.8102 22.2663 16.8102 22.1868C16.8102 22.1484 16.6948 22.0997 16.5382 22.0818L16.4228 22.069C16.3766 22.0229 16.3843 21.9306 16.4356 21.9025C16.6691 21.9153 16.8564 21.923 17.0591 21.923C17.2592 21.923 17.4414 21.9153 17.662 21.9025C17.7133 21.9358 17.721 22.028 17.6748 22.069L17.4927 22.1023C17.1566 22.1561 16.9616 22.5788 16.6383 23.1476L16.2304 23.8701C15.9379 24.3671 15.925 24.4337 15.925 24.9435V25.2868H15.9276Z" fill="#03499A"/>
<path d="M19.2241 25.0665C19.2241 25.5764 19.0497 26.1861 18.4801 26.1861C17.9105 26.1861 17.6437 25.5379 17.6437 24.9333C17.6437 24.2057 17.9618 23.7881 18.3903 23.7881C19.006 23.7881 19.2241 24.5055 19.2241 25.0665ZM18.4673 23.5908C17.7027 23.5908 17.0869 24.1878 17.0869 25.0204C17.0869 25.8479 17.6693 26.386 18.4159 26.386C19.2267 26.386 19.7834 25.789 19.7834 24.9615C19.7834 24.1468 19.1933 23.5908 18.4673 23.5908Z" fill="#03499A"/>
<path d="M21.0411 25.3202C21.0411 25.7762 21.1514 26.0811 21.644 26.0811C21.8185 26.0811 22.0263 26.0093 22.17 25.8812C22.2547 25.8018 22.2983 25.7019 22.2983 25.4969V24.4107C22.2983 23.9802 22.2521 23.9674 22.0597 23.888L21.975 23.8547C21.9288 23.8291 21.9288 23.7343 21.9827 23.7087C22.2418 23.701 22.5985 23.6549 22.7422 23.5908C22.7755 23.5985 22.7935 23.6113 22.8012 23.6369C22.7883 23.7625 22.7806 23.9674 22.7806 24.2134V25.3253C22.7806 25.8479 22.8012 26.0478 22.9808 26.0478C23.0577 26.0478 23.1424 26.035 23.2348 26.0145C23.2733 26.0478 23.281 26.181 23.2271 26.2066C22.9731 26.2604 22.5985 26.327 22.3778 26.4526C22.3445 26.4526 22.3137 26.4321 22.3009 26.4064V26.1349C22.3009 26.0759 22.2829 26.0426 22.2419 26.0426C22.0469 26.1682 21.7287 26.3859 21.3464 26.3859C20.7768 26.3859 20.5613 26.0939 20.5613 25.5584V24.4516C20.5613 24.034 20.5613 23.9751 20.3663 23.888L20.2894 23.8547C20.2509 23.8214 20.256 23.7292 20.3022 23.7087C20.5998 23.701 20.8538 23.6421 20.9949 23.5908C21.0334 23.5985 21.0539 23.6113 21.0591 23.6369C21.0462 23.7497 21.0385 23.888 21.0385 24.2134V25.3202H21.0411Z" fill="#03499A"/>
<path d="M23.9632 24.3927C23.9632 24.1339 23.9632 24.1006 23.7887 23.9827L23.7297 23.9418C23.704 23.9161 23.704 23.8418 23.7374 23.8239C23.8862 23.7701 24.23 23.5985 24.3916 23.4985C24.425 23.5062 24.4429 23.519 24.4429 23.5447V23.9289C24.4429 23.9623 24.4506 23.9827 24.4635 23.9879C24.6892 23.7957 24.9355 23.5908 25.1767 23.5908C25.3384 23.5908 25.4692 23.6958 25.4692 23.8546C25.4692 24.0724 25.2947 24.1595 25.1896 24.1595C25.1254 24.1595 25.0921 24.139 25.0459 24.1134C24.9484 24.0468 24.8509 24.0084 24.7611 24.0084C24.6585 24.0084 24.5789 24.0673 24.5276 24.1416C24.4635 24.2338 24.4429 24.426 24.4429 24.6514V25.5532C24.4429 26.0298 24.4558 26.1092 24.7021 26.1297L24.9355 26.1502C24.9817 26.1835 24.9689 26.2962 24.9227 26.3167C24.6174 26.3039 24.4301 26.2962 24.2043 26.2962C23.9709 26.2962 23.7759 26.3039 23.6091 26.3167C23.5629 26.2962 23.5501 26.1835 23.5963 26.1502L23.7194 26.1297C23.958 26.0913 23.9657 26.0298 23.9657 25.5532V24.3927H23.9632Z" fill="#03499A"/>
<path d="M28.4612 25.2997C28.4612 25.994 28.474 26.0811 28.8896 26.1272L29.0641 26.1477C29.1026 26.181 29.0897 26.2937 29.0513 26.3142C28.6818 26.3014 28.4689 26.2937 28.2097 26.2937C27.9378 26.2937 27.7043 26.3014 27.4195 26.3142C27.381 26.2937 27.3682 26.1887 27.4067 26.1477L27.5426 26.1272C27.9198 26.0734 27.9326 25.994 27.9326 25.2997V22.8555C27.9326 22.2919 27.9198 22.174 27.6273 22.1459L27.3938 22.1202C27.3476 22.0792 27.3553 21.9819 27.4067 21.9537C27.7505 21.9076 28.1533 21.8999 28.6895 21.8999C29.2283 21.8999 29.6285 21.9716 29.9339 22.1638C30.2315 22.3559 30.4521 22.6992 30.4521 23.1578C30.4521 23.7676 30.0827 24.0725 29.803 24.2108C29.5182 24.3492 29.1744 24.4106 28.9076 24.4106C28.8614 24.3902 28.8614 24.2902 28.8999 24.2774C29.6003 24.1442 29.8518 23.742 29.8518 23.1655C29.8518 22.5225 29.4823 22.1049 28.8075 22.1049C28.4637 22.1049 28.4586 22.1305 28.4586 22.3431V25.2997H28.4612Z" fill="#03499A"/>
<path d="M31.111 25.6891C31.111 25.4303 31.2983 25.3304 31.6806 25.1998C31.7986 25.1613 31.9064 25.1331 31.9474 25.1331C31.9859 25.1331 32.0116 25.146 32.0116 25.2202L31.9988 25.6097C31.9988 25.748 31.9911 25.8402 31.9141 25.9222C31.8499 25.9888 31.6473 26.0888 31.519 26.0888C31.1906 26.0862 31.111 25.8018 31.111 25.6891ZM31.1521 25.2074C30.7364 25.3586 30.6133 25.5123 30.6133 25.7711C30.6133 25.9555 30.6903 26.1221 30.8134 26.2348C30.9237 26.3347 31.0802 26.3885 31.2675 26.3885C31.4497 26.3885 31.5908 26.3014 31.7345 26.222C31.8628 26.1503 31.9423 26.0888 31.9859 26.0888C32.0244 26.0888 32.0629 26.1426 32.0911 26.181C32.2014 26.327 32.358 26.386 32.5119 26.386C32.83 26.386 33.0558 26.1272 33.0558 26.0939C33.0558 26.0478 33.0353 26.0068 33.0096 26.0068C32.9891 26.0068 32.9583 26.0324 32.925 26.0529C32.8865 26.0734 32.8275 26.0939 32.7633 26.0939C32.5093 26.0939 32.4529 25.8223 32.4657 25.5174L32.5042 24.3645C32.5247 23.8675 32.2964 23.5908 31.8294 23.5908C31.3573 23.5908 30.6235 24.0622 30.6235 24.4055C30.6235 24.4645 30.6569 24.4978 30.7133 24.4978C30.8108 24.4978 30.9853 24.4516 31.0828 24.3722C31.1341 24.3338 31.1418 24.2544 31.1469 24.1468C31.1598 23.9418 31.3804 23.8496 31.5626 23.8496C31.9654 23.8496 32.0424 24.1801 32.0372 24.426L32.0295 24.7309C32.0244 24.8308 32.0167 24.8898 31.9192 24.9231L31.1521 25.2074Z" fill="#03499A"/>
<path d="M33.6413 24.3927C33.6413 24.1339 33.6413 24.1006 33.4668 23.9827L33.4078 23.9418C33.3821 23.9161 33.3821 23.8418 33.4155 23.8239C33.5643 23.7701 33.9081 23.5985 34.0697 23.4985C34.1031 23.5062 34.121 23.519 34.121 23.5447V23.9289C34.121 23.9623 34.1287 23.9827 34.1416 23.9879C34.3673 23.7957 34.6136 23.5908 34.8548 23.5908C35.0165 23.5908 35.1473 23.6958 35.1473 23.8546C35.1473 24.0724 34.9728 24.1595 34.8676 24.1595C34.8035 24.1595 34.7702 24.139 34.7265 24.1134C34.629 24.0468 34.5315 24.0084 34.4417 24.0084C34.3391 24.0084 34.2596 24.0673 34.2083 24.1416C34.1441 24.2338 34.1236 24.426 34.1236 24.6514V25.5532C34.1236 26.0298 34.1364 26.1092 34.3827 26.1297L34.6162 26.1502C34.6624 26.1835 34.6496 26.2962 34.6034 26.3167C34.2981 26.3039 34.1108 26.2962 33.885 26.2962C33.6515 26.2962 33.4565 26.3039 33.2898 26.3167C33.2436 26.2962 33.2307 26.1835 33.2769 26.1502L33.4001 26.1297C33.6387 26.0913 33.6464 26.0298 33.6464 25.5532V24.3927H33.6413Z" fill="#03499A"/>
<path d="M36.3733 23.9598C36.263 23.9598 36.2578 23.9803 36.2578 24.1186V25.3561C36.2578 25.7403 36.304 26.0913 36.7299 26.0913C36.7941 26.0913 36.8531 26.0785 36.9044 26.058C36.9634 26.0375 37.0481 25.9658 37.066 25.9658C37.1173 25.9658 37.143 26.0375 37.1302 26.0785C37.0147 26.2169 36.7812 26.3834 36.4503 26.3834C35.8935 26.3834 35.7755 26.0657 35.7755 25.6686V24.1519C35.7755 23.9726 35.7678 23.9598 35.6395 23.9598H35.4574C35.4189 23.9342 35.4112 23.8599 35.4368 23.8214C35.6241 23.7625 35.7858 23.6754 35.8525 23.6165C35.9371 23.537 36.0603 23.3577 36.1244 23.227C36.1578 23.2142 36.2348 23.2142 36.2604 23.2603V23.5575C36.2604 23.678 36.2655 23.6831 36.3759 23.6831H37.0943C37.1712 23.742 37.1584 23.9213 37.1019 23.9623H36.3733V23.9598Z" fill="#03499A"/>
<path d="M37.833 24.3927C37.833 24.1339 37.8331 24.1006 37.6586 23.9827L37.5996 23.9418C37.5739 23.9161 37.5739 23.8418 37.6073 23.8239C37.7561 23.7701 38.1255 23.5985 38.2564 23.4985C38.282 23.4985 38.3154 23.5113 38.3282 23.5447C38.3154 23.6958 38.3154 23.7957 38.3154 23.8547C38.3154 23.8956 38.3411 23.9264 38.3872 23.9264C38.6592 23.7547 38.9645 23.5882 39.2955 23.5882C39.8343 23.5882 40.0524 23.9648 40.0524 24.4106V25.5507C40.0524 26.0272 40.0652 26.0938 40.2987 26.1271L40.4424 26.1476C40.4886 26.1809 40.4757 26.2937 40.4295 26.3142C40.2346 26.3013 40.0473 26.2937 39.8215 26.2937C39.588 26.2937 39.393 26.3013 39.2185 26.3142C39.1723 26.2937 39.1595 26.1809 39.2057 26.1476L39.3289 26.1271C39.5675 26.0887 39.5752 26.0272 39.5752 25.5507V24.5643C39.5752 24.1877 39.4058 23.9085 38.9645 23.9085C38.7182 23.9085 38.5053 24.0135 38.4129 24.139C38.3282 24.2518 38.3154 24.344 38.3154 24.5361V25.5481C38.3154 26.0247 38.3282 26.0836 38.5617 26.1246L38.6772 26.1451C38.7233 26.1784 38.7105 26.2911 38.6643 26.3116C38.4899 26.2988 38.3026 26.2911 38.0742 26.2911C37.8407 26.2911 37.6458 26.2988 37.4636 26.3116C37.4174 26.2911 37.4046 26.1784 37.4508 26.1451L37.5867 26.1246C37.8254 26.0913 37.833 26.0247 37.833 25.5481V24.3927Z" fill="#03499A"/>
<path d="M41.3845 24.3978C41.3383 24.3978 41.3383 24.3774 41.3383 24.3645C41.346 24.1468 41.6744 23.7881 42.0567 23.7881C42.4339 23.7881 42.557 24.0187 42.557 24.2057C42.557 24.2928 42.5365 24.3184 42.5185 24.3312C42.4672 24.3697 42.3235 24.3978 41.8438 24.3978H41.3845ZM42.6417 24.5977C42.9136 24.5977 43.0034 24.59 43.024 24.5516C43.0368 24.5259 43.0496 24.4721 43.0496 24.3799C43.0496 23.9828 42.6853 23.5908 42.1286 23.5908C41.3512 23.5908 40.8252 24.2723 40.8252 25.087C40.8252 25.3791 40.9022 25.6891 41.0972 25.9479C41.2845 26.1989 41.6154 26.386 42.0362 26.386C42.3723 26.386 42.8392 26.2194 43.0548 25.7711C43.0496 25.7122 43.0034 25.6712 42.9393 25.6917C42.7392 25.9504 42.557 26.017 42.3441 26.017C41.6513 26.017 41.2691 25.4483 41.2691 24.777C41.2691 24.6105 41.2768 24.5977 41.4435 24.5977H42.6417Z" fill="#03499A"/>
<path d="M43.801 24.3927C43.801 24.1339 43.8011 24.1006 43.6266 23.9827L43.5676 23.9418C43.5419 23.9161 43.5419 23.8418 43.5753 23.8239C43.7241 23.7701 44.0679 23.5985 44.2295 23.4985C44.2629 23.5062 44.2808 23.519 44.2808 23.5447V23.9289C44.2808 23.9623 44.2885 23.9827 44.3014 23.9879C44.5271 23.7957 44.7734 23.5908 45.0146 23.5908C45.1763 23.5908 45.3071 23.6958 45.3071 23.8546C45.3071 24.0724 45.1326 24.1595 45.0275 24.1595C44.9633 24.1595 44.93 24.139 44.8838 24.1134C44.7863 24.0468 44.6888 24.0084 44.599 24.0084C44.4964 24.0084 44.4168 24.0673 44.3655 24.1416C44.3014 24.2338 44.2808 24.426 44.2808 24.6514V25.5532C44.2808 26.0298 44.2937 26.1092 44.54 26.1297L44.7734 26.1502C44.8196 26.1835 44.8068 26.2962 44.7606 26.3167C44.4553 26.3039 44.268 26.2962 44.0422 26.2962C43.8087 26.2962 43.6138 26.3039 43.447 26.3167C43.4008 26.2962 43.388 26.1835 43.4342 26.1502L43.5573 26.1297C43.7985 26.0913 43.8036 26.0298 43.8036 25.5532V24.3927H43.801Z" fill="#03499A"/>
<path d="M47.7675 22.9273C47.7675 22.2253 47.7547 22.1125 47.3724 22.0792L47.2107 22.0664C47.1723 22.0408 47.1851 21.9204 47.2236 21.8999C47.5468 21.9127 47.7675 21.9204 48.0394 21.9204C48.2986 21.9204 48.5192 21.9127 48.8425 21.8999C48.881 21.9204 48.8938 22.0382 48.8553 22.0664L48.6937 22.0792C48.3114 22.1125 48.2986 22.2253 48.2986 22.9273V25.2843C48.2986 25.9863 48.3114 26.0785 48.6937 26.1246L48.8553 26.1451C48.8938 26.1707 48.881 26.2911 48.8425 26.3116C48.5192 26.2988 48.2986 26.2911 48.0394 26.2911C47.7675 26.2911 47.5468 26.2988 47.2236 26.3116C47.1851 26.2911 47.1723 26.1861 47.2107 26.1451L47.3724 26.1246C47.7547 26.0785 47.7675 25.9863 47.7675 25.2843V22.9273Z" fill="#03499A"/>
<path d="M49.687 24.3927C49.687 24.1339 49.687 24.1006 49.5126 23.9827L49.4536 23.9418C49.4279 23.9161 49.4279 23.8418 49.4613 23.8239C49.6101 23.7701 49.9795 23.5985 50.1104 23.4985C50.136 23.4985 50.1694 23.5113 50.1822 23.5447C50.1694 23.6958 50.1694 23.7957 50.1694 23.8547C50.1694 23.8956 50.195 23.9264 50.2412 23.9264C50.5132 23.7547 50.8185 23.5882 51.1495 23.5882C51.6883 23.5882 51.9089 23.9648 51.9089 24.4106V25.5507C51.9089 26.0272 51.9217 26.0938 52.1552 26.1271L52.2989 26.1476C52.3451 26.1809 52.3322 26.2937 52.2861 26.3142C52.0911 26.3013 51.9038 26.2937 51.678 26.2937C51.4445 26.2937 51.2495 26.3013 51.0751 26.3142C51.0289 26.2937 51.016 26.1809 51.0622 26.1476L51.1854 26.1271C51.424 26.0887 51.4317 26.0272 51.4317 25.5507V24.5643C51.4317 24.1877 51.2624 23.9085 50.8236 23.9085C50.5773 23.9085 50.3644 24.0135 50.272 24.139C50.1873 24.2518 50.1745 24.344 50.1745 24.5361V25.5481C50.1745 26.0247 50.1873 26.0836 50.4208 26.1246L50.5388 26.1451C50.585 26.1784 50.5722 26.2911 50.526 26.3116C50.3515 26.2988 50.1617 26.2911 49.9359 26.2911C49.7024 26.2911 49.5074 26.2988 49.3278 26.3116C49.2817 26.2911 49.2688 26.1784 49.315 26.1451L49.451 26.1246C49.6922 26.0913 49.6973 26.0247 49.6973 25.5481V24.3927H49.687Z" fill="#03499A"/>
<path d="M55.4367 25.2997C55.4367 25.994 55.4496 26.0811 55.8652 26.1272L56.0397 26.1477C56.0782 26.181 56.0653 26.2937 56.0268 26.3142C55.6574 26.3014 55.4444 26.2937 55.1853 26.2937C54.9133 26.2937 54.6799 26.3014 54.3951 26.3142C54.3566 26.2937 54.3438 26.1887 54.3822 26.1477L54.5182 26.1272C54.8954 26.0734 54.9082 25.994 54.9082 25.2997V22.8555C54.9082 22.2919 54.8954 22.174 54.6029 22.1459L54.3694 22.1202C54.3232 22.0792 54.3309 21.9819 54.3822 21.9537C54.726 21.9076 55.1289 21.8999 55.6651 21.8999C56.2039 21.8999 56.6041 21.9716 56.9095 22.1638C57.2071 22.3559 57.4277 22.6992 57.4277 23.1578C57.4277 23.7676 57.0583 24.0725 56.7786 24.2108C56.4938 24.3492 56.15 24.4106 55.8832 24.4106C55.837 24.3902 55.837 24.2902 55.878 24.2774C56.5785 24.1442 56.8299 23.742 56.8299 23.1655C56.8299 22.5225 56.4605 22.1049 55.7857 22.1049C55.4419 22.1049 55.4367 22.1305 55.4367 22.3431V25.2997Z" fill="#03499A"/>
<path d="M58.0741 24.3927C58.0741 24.1339 58.0741 24.1006 57.8996 23.9827L57.8406 23.9418C57.815 23.9161 57.815 23.8418 57.8458 23.8239C57.9946 23.7701 58.3384 23.5985 58.5 23.4985C58.5334 23.5062 58.5513 23.519 58.5513 23.5447V23.9289C58.5513 23.9623 58.559 23.9827 58.5718 23.9879C58.7976 23.7957 59.0439 23.5908 59.2851 23.5908C59.4467 23.5908 59.5776 23.6958 59.5776 23.8546C59.5776 24.0724 59.4031 24.1595 59.2979 24.1595C59.2338 24.1595 59.2004 24.139 59.1542 24.1134C59.0568 24.0468 58.9593 24.0084 58.8695 24.0084C58.7668 24.0084 58.6873 24.0673 58.636 24.1416C58.5718 24.2338 58.5513 24.426 58.5513 24.6514V25.5532C58.5513 26.0298 58.5641 26.1092 58.8104 26.1297L59.0439 26.1502C59.0901 26.1835 59.0773 26.2962 59.0311 26.3167C58.7258 26.3039 58.5385 26.2962 58.3127 26.2962C58.0792 26.2962 57.8843 26.3039 57.7175 26.3167C57.6713 26.2962 57.6585 26.1835 57.7047 26.1502L57.8278 26.1297C58.0664 26.0913 58.0741 26.0298 58.0741 25.5532V24.3927Z" fill="#03499A"/>
<path d="M61.92 25.0665C61.92 25.5764 61.7456 26.1861 61.1734 26.1861C60.6039 26.1861 60.337 25.5379 60.337 24.9333C60.337 24.2057 60.6552 23.7881 61.0836 23.7881C61.6994 23.7881 61.92 24.5055 61.92 25.0665ZM61.1606 23.5908C60.396 23.5908 59.7803 24.1878 59.7803 25.0204C59.7803 25.8479 60.3627 26.386 61.1093 26.386C61.9201 26.386 62.4768 25.789 62.4768 24.9615C62.4768 24.1468 61.8867 23.5908 61.1606 23.5908Z" fill="#03499A"/>
<path d="M63.8698 23.9598C63.7595 23.9598 63.7544 23.9803 63.7544 24.1186V25.3561C63.7544 25.7403 63.8005 26.0913 64.2264 26.0913C64.2906 26.0913 64.3496 26.0785 64.4009 26.058C64.4599 26.0375 64.542 25.9658 64.5625 25.9658C64.6139 25.9658 64.6395 26.0375 64.6267 26.0785C64.5112 26.2169 64.2778 26.3834 63.9468 26.3834C63.39 26.3834 63.272 26.0657 63.272 25.6686V24.1519C63.272 23.9726 63.2643 23.9598 63.136 23.9598H62.9539C62.9154 23.9342 62.9077 23.8599 62.9359 23.8214C63.1232 23.7625 63.2848 23.6754 63.3515 23.6165C63.4362 23.537 63.5594 23.3577 63.6235 23.227C63.6569 23.2142 63.7338 23.2142 63.7595 23.2603V23.5575C63.7595 23.678 63.7646 23.6831 63.8775 23.6831H64.5959C64.6729 23.742 64.66 23.9213 64.601 23.9623H63.8698V23.9598Z" fill="#03499A"/>
<path d="M65.4783 24.3978C65.4321 24.3978 65.4321 24.3774 65.4321 24.3645C65.4398 24.1468 65.7682 23.7881 66.1505 23.7881C66.5251 23.7881 66.6482 24.0187 66.6482 24.2057C66.6482 24.2928 66.6277 24.3184 66.6097 24.3312C66.5584 24.3697 66.4147 24.3978 65.935 24.3978H65.4783ZM66.7355 24.5977C67.0074 24.5977 67.0998 24.59 67.1177 24.5516C67.1306 24.5259 67.1434 24.4721 67.1434 24.3799C67.1434 23.9828 66.7816 23.5908 66.2223 23.5908C65.4449 23.5908 64.9189 24.2723 64.9189 25.087C64.9189 25.3791 64.9959 25.6891 65.1909 25.9479C65.3782 26.1989 65.7092 26.386 66.1299 26.386C66.4661 26.386 66.933 26.2194 67.1485 25.7711C67.1408 25.7122 67.0972 25.6712 67.0331 25.6917C66.8329 25.9504 66.6508 26.017 66.4378 26.017C65.7451 26.017 65.3628 25.4483 65.3628 24.777C65.3628 24.6105 65.3705 24.5977 65.5373 24.5977H66.7355Z" fill="#03499A"/>
<path d="M69.6374 23.7035C69.6887 23.7497 69.7349 23.8547 69.7349 23.9674C69.7349 24.0878 69.6707 24.2134 69.5912 24.2134C69.5579 24.2134 69.5271 24.2006 69.5014 24.1673C69.3577 23.9879 69.1191 23.8163 68.8523 23.8163C68.3981 23.8163 67.9568 24.1801 67.9568 24.8821C67.9568 25.3996 68.3058 26.0145 69.0011 26.0145C69.3783 26.0145 69.5707 25.8428 69.7195 25.6174C69.7708 25.6045 69.8298 25.6507 69.835 25.7096C69.6143 26.1989 69.1294 26.386 68.7522 26.386C68.4084 26.386 68.0903 26.2732 67.8645 26.0478C67.6361 25.8223 67.4873 25.4969 67.4873 25.0665C67.4873 24.3517 67.9799 23.5908 69.055 23.5908C69.2115 23.5908 69.4629 23.6241 69.6374 23.7035Z" fill="#03499A"/>
<path d="M71.0178 23.9598C70.9075 23.9598 70.9024 23.9803 70.9024 24.1186V25.3561C70.9024 25.7403 70.9485 26.0913 71.3744 26.0913C71.4386 26.0913 71.4976 26.0785 71.5489 26.058C71.6079 26.0375 71.6926 25.9658 71.7106 25.9658C71.7619 25.9658 71.7875 26.0375 71.7747 26.0785C71.6567 26.2169 71.4258 26.3834 71.0948 26.3834C70.538 26.3834 70.42 26.0657 70.42 25.6686V24.1519C70.42 23.9726 70.4123 23.9598 70.284 23.9598H70.1019C70.0634 23.9342 70.0557 23.8599 70.0814 23.8214C70.2687 23.7625 70.4303 23.6754 70.497 23.6165C70.5817 23.537 70.7048 23.3577 70.769 23.227C70.8023 23.2142 70.8793 23.2142 70.9049 23.2603V23.5575C70.9049 23.678 70.9126 23.6831 71.0204 23.6831H71.7413C71.8183 23.742 71.8055 23.9213 71.749 23.9623H71.0178V23.9598Z" fill="#03499A"/>
<path d="M72.4776 24.3927C72.4776 24.134 72.4776 24.1007 72.3031 23.9828L72.2441 23.9418C72.2184 23.9162 72.2184 23.8419 72.2492 23.824C72.398 23.7702 72.7675 23.5985 72.9163 23.4986C72.9497 23.4986 72.9753 23.5114 72.9805 23.537C72.9676 23.7676 72.9548 24.0878 72.9548 24.3594V25.5507C72.9548 26.0273 72.9676 26.0939 73.2011 26.1272L73.3371 26.1477C73.3833 26.181 73.3704 26.2937 73.3243 26.3142C73.1293 26.3014 72.942 26.2937 72.7162 26.2937C72.4827 26.2937 72.2877 26.3014 72.1081 26.3142C72.0619 26.2937 72.0491 26.181 72.0953 26.1477L72.2313 26.1272C72.4724 26.0939 72.4776 26.0273 72.4776 25.5507V24.3927ZM73.0087 22.2458C73.0087 22.4789 72.847 22.584 72.6726 22.584C72.4724 22.584 72.3416 22.4379 72.3416 22.2586C72.3416 22.0408 72.5032 21.9076 72.6905 21.9076C72.8855 21.9076 73.0087 22.0588 73.0087 22.2458Z" fill="#03499A"/>
<path d="M75.8751 25.0665C75.8751 25.5764 75.7007 26.1861 75.1285 26.1861C74.5589 26.1861 74.2921 25.5379 74.2921 24.9333C74.2921 24.2057 74.6103 23.7881 75.0362 23.7881C75.6545 23.7881 75.8751 24.5055 75.8751 25.0665ZM75.1157 23.5908C74.3511 23.5908 73.7354 24.1878 73.7354 25.0204C73.7354 25.8479 74.3178 26.386 75.0644 26.386C75.8751 26.386 76.4319 25.789 76.4319 24.9615C76.4319 24.1468 75.8418 23.5908 75.1157 23.5908Z" fill="#03499A"/>
<path d="M77.2941 24.3927C77.2941 24.1339 77.2941 24.1006 77.1196 23.9827L77.0606 23.9418C77.035 23.9161 77.035 23.8418 77.0683 23.8239C77.2171 23.7701 77.5866 23.5985 77.7174 23.4985C77.7431 23.4985 77.7764 23.5113 77.7893 23.5447C77.7764 23.6958 77.7764 23.7957 77.7764 23.8547C77.7764 23.8956 77.8021 23.9264 77.8483 23.9264C78.1202 23.7547 78.4255 23.5882 78.7565 23.5882C79.2953 23.5882 79.5159 23.9648 79.5159 24.4106V25.5507C79.5159 26.0272 79.5288 26.0938 79.7623 26.1271L79.9059 26.1476C79.9521 26.1809 79.9393 26.2937 79.8931 26.3142C79.6981 26.3013 79.5108 26.2937 79.285 26.2937C79.0516 26.2937 78.8566 26.3013 78.6821 26.3142C78.6359 26.2937 78.6231 26.1809 78.6693 26.1476L78.7924 26.1271C79.031 26.0887 79.0387 26.0272 79.0387 25.5507V24.5643C79.0387 24.1877 78.8694 23.9085 78.4307 23.9085C78.1844 23.9085 77.9714 24.0135 77.8791 24.139C77.7944 24.2518 77.7816 24.344 77.7816 24.5361V25.5481C77.7816 26.0247 77.7944 26.0836 78.0279 26.1246L78.1433 26.1451C78.1895 26.1784 78.1741 26.2911 78.1305 26.3116C77.956 26.2988 77.7687 26.2911 77.5404 26.2911C77.3069 26.2911 77.1119 26.2988 76.9323 26.3116C76.8862 26.2911 76.8733 26.1784 76.9195 26.1451L77.0555 26.1246C77.2941 26.0913 77.3018 26.0247 77.3018 25.5481V24.3927H77.2941Z" fill="#03499A"/>
<path d="M80.642 22.0049H80.3623V21.9025H81.0448V22.0049H80.7626V22.8401H80.642V22.0049Z" fill="#03499A"/>
<path d="M81.945 22.4277C81.9373 22.297 81.9296 22.1382 81.9296 22.0229H81.9245C81.8937 22.133 81.8552 22.2509 81.809 22.379L81.6474 22.835H81.5576L81.4088 22.3892C81.3652 22.256 81.3293 22.1356 81.3036 22.0254H81.301C81.2985 22.1433 81.2908 22.2996 81.2831 22.4405L81.2574 22.8427H81.1445L81.2087 21.9025H81.3626L81.5191 22.3559C81.5576 22.4712 81.5884 22.5737 81.6115 22.6736H81.614C81.6371 22.5788 81.6705 22.4738 81.7115 22.3559L81.8757 21.9025H82.0296L82.0861 22.8427H81.9681L81.945 22.4277Z" fill="#03499A"/>
<defs>
<linearGradient id="paint0_linear_206_14374" x1="17.6377" y1="10.0243" x2="32.2204" y2="10.0243" gradientUnits="userSpaceOnUse">
<stop stop-color="#D9E4F0"/>
<stop offset="0.056628" stop-color="#C9D8E9"/>
<stop offset="0.3146" stop-color="#83A6CD"/>
<stop offset="0.5471" stop-color="#4C7EB7"/>
<stop offset="0.746" stop-color="#2461A7"/>
<stop offset="0.9035" stop-color="#0C4F9E"/>
<stop offset="1" stop-color="#03499A"/>
</linearGradient>
<linearGradient id="paint1_linear_206_14374" x1="23.4096" y1="10.0243" x2="37.9922" y2="10.0243" gradientUnits="userSpaceOnUse">
<stop stop-color="#D9F2E8"/>
<stop offset="0.0649491" stop-color="#C6ECDD"/>
<stop offset="0.3206" stop-color="#80D5B3"/>
<stop offset="0.5511" stop-color="#49C392"/>
<stop offset="0.7482" stop-color="#21B67A"/>
<stop offset="0.9044" stop-color="#09AE6B"/>
<stop offset="1" stop-color="#00AB66"/>
</linearGradient>
</defs>
</svg>
