<svg width="174" height="52" viewBox="0 0 174 52" fill="none" xmlns="http://www.w3.org/2000/svg">
<path d="M56.1758 15.0399H58.9839V22.9501H59.208C59.5596 22.1415 60.1309 21.5131 60.9219 21.0648C61.7129 20.6078 62.6489 20.3793 63.73 20.3793C65.3472 20.3793 66.5952 20.8451 67.4741 21.7767C68.3618 22.7084 68.8057 24.0267 68.8057 25.7318V34.9999H65.9712V26.4305C65.9712 24.1278 64.9033 22.9764 62.7676 22.9764C61.6162 22.9764 60.7021 23.3104 60.0254 23.9784C59.3486 24.6376 59.0103 25.5165 59.0103 26.6151V34.9999H56.1758V15.0399Z" fill="#1E91D0"/>
<path d="M78.7065 22.7787C77.6606 22.7787 76.7993 23.1171 76.1226 23.7938C75.4458 24.4706 75.0679 25.3715 74.9888 26.4965H82.2397C82.2046 25.3627 81.8706 24.4618 81.2378 23.7938C80.5962 23.1171 79.7524 22.7787 78.7065 22.7787ZM84.9556 31.1239C84.6304 32.4159 83.9229 33.431 82.833 34.1693C81.7344 34.9076 80.3677 35.2767 78.7329 35.2767C76.6763 35.2767 75.0591 34.6132 73.8813 33.286C72.6948 31.9677 72.1016 30.1615 72.1016 27.8676C72.1016 25.5736 72.6992 23.7499 73.8945 22.3964C75.0898 21.0428 76.6982 20.3661 78.7197 20.3661C80.7148 20.3661 82.2837 21.0077 83.4263 22.2909C84.5601 23.5741 85.127 25.3451 85.127 27.6039V28.5927H74.9888V28.7509C75.0327 30.0165 75.3975 31.0184 76.083 31.7567C76.7686 32.495 77.6782 32.8641 78.812 32.8641C80.5435 32.8641 81.6816 32.2841 82.2266 31.1239H84.9556Z" fill="#1E91D0"/>
<path d="M88.6602 15.0399H91.4946V34.9999H88.6602V15.0399Z" fill="#1E91D0"/>
<path d="M95.8057 20.6429H98.627V34.9999H95.8057V20.6429ZM97.2163 18.1249C96.689 18.1249 96.2539 17.9579 95.9111 17.6239C95.5596 17.2987 95.3838 16.89 95.3838 16.3978C95.3838 15.9056 95.5596 15.4926 95.9111 15.1586C96.2539 14.8246 96.689 14.6576 97.2163 14.6576C97.7437 14.6576 98.1831 14.8246 98.5347 15.1586C98.8774 15.4926 99.0488 15.9056 99.0488 16.3978C99.0488 16.89 98.8774 17.2987 98.5347 17.6239C98.1831 17.9579 97.7437 18.1249 97.2163 18.1249Z" fill="#1E91D0"/>
<path d="M108.857 32.7587C110.079 32.7587 111.028 32.3236 111.705 31.4535C112.373 30.5922 112.707 29.3793 112.707 27.8148C112.707 26.2592 112.373 25.0463 111.705 24.1761C111.028 23.3148 110.079 22.8842 108.857 22.8842C107.627 22.8842 106.678 23.3148 106.01 24.1761C105.342 25.0375 105.008 26.2504 105.008 27.8148C105.008 29.3881 105.342 30.6053 106.01 31.4667C106.678 32.328 107.627 32.7587 108.857 32.7587ZM108.857 35.2767C106.748 35.2767 105.091 34.6132 103.887 33.286C102.683 31.9589 102.081 30.1351 102.081 27.8148C102.081 25.5033 102.688 23.684 103.9 22.3568C105.104 21.0297 106.757 20.3661 108.857 20.3661C110.949 20.3661 112.597 21.0297 113.801 22.3568C115.014 23.684 115.621 25.5033 115.621 27.8148C115.621 30.1351 115.019 31.9589 113.814 33.286C112.61 34.6132 110.958 35.2767 108.857 35.2767Z" fill="#1E91D0"/>
<path d="M119.035 20.6429H121.764V22.9501H121.975C122.643 21.2274 123.975 20.3661 125.97 20.3661C127.912 20.3661 129.23 21.2274 129.925 22.9501H130.149C130.518 22.1591 131.089 21.5306 131.863 21.0648C132.645 20.599 133.528 20.3661 134.513 20.3661C135.963 20.3661 137.092 20.7836 137.901 21.6185C138.701 22.4535 139.101 23.618 139.101 25.1122V34.9999H136.266V25.8505C136.266 23.9257 135.339 22.9633 133.484 22.9633C132.579 22.9633 131.845 23.2533 131.283 23.8334C130.729 24.3959 130.452 25.1078 130.452 25.9691V34.9999H127.67V25.5736C127.67 24.765 127.42 24.1278 126.919 23.662C126.418 23.1962 125.746 22.9633 124.902 22.9633C124.041 22.9633 123.32 23.2753 122.74 23.8993C122.16 24.5233 121.87 25.2968 121.87 26.2196V34.9999H119.035V20.6429Z" fill="#1E91D0"/>
<path d="M148.975 22.7787C147.929 22.7787 147.068 23.1171 146.391 23.7938C145.714 24.4706 145.336 25.3715 145.257 26.4965H152.508C152.473 25.3627 152.139 24.4618 151.506 23.7938C150.865 23.1171 150.021 22.7787 148.975 22.7787ZM155.224 31.1239C154.899 32.4159 154.191 33.431 153.102 34.1693C152.003 34.9076 150.636 35.2767 149.001 35.2767C146.945 35.2767 145.328 34.6132 144.15 33.286C142.963 31.9677 142.37 30.1615 142.37 27.8676C142.37 25.5736 142.968 23.7499 144.163 22.3964C145.358 21.0428 146.967 20.3661 148.988 20.3661C150.983 20.3661 152.552 21.0077 153.695 22.2909C154.829 23.5741 155.396 25.3451 155.396 27.6039V28.5927H145.257V28.7509C145.301 30.0165 145.666 31.0184 146.352 31.7567C147.037 32.495 147.947 32.8641 149.081 32.8641C150.812 32.8641 151.95 32.2841 152.495 31.1239H155.224Z" fill="#1E91D0"/>
<path d="M164.044 35.2372C162.216 35.2372 160.766 34.5692 159.693 33.2333C158.621 31.8973 158.085 30.0912 158.085 27.8148C158.085 25.5472 158.625 23.7455 159.707 22.4095C160.779 21.0736 162.225 20.4056 164.044 20.4056C165.028 20.4056 165.912 20.6254 166.694 21.0648C167.476 21.5131 168.061 22.1327 168.447 22.9237H168.658V15.0399H171.493V34.9999H168.777V32.7323H168.553C167.639 34.4022 166.136 35.2372 164.044 35.2372ZM164.848 22.9501C163.653 22.9501 162.717 23.3851 162.04 24.2552C161.354 25.1166 161.012 26.3031 161.012 27.8148C161.012 29.3353 161.35 30.5306 162.027 31.4008C162.712 32.2621 163.653 32.6927 164.848 32.6927C166.043 32.6927 166.984 32.2577 167.669 31.3876C168.364 30.5175 168.711 29.3309 168.711 27.828C168.711 26.3339 168.364 25.1473 167.669 24.2684C166.975 23.3895 166.035 22.9501 164.848 22.9501Z" fill="#1E91D0"/>
<circle cx="26" cy="26" r="11" fill="#1E91D0"/>
<rect x="3.53553" y="25.7782" width="31.4559" height="31.4559" rx="3.5" transform="rotate(-45 3.53553 25.7782)" stroke="#1E91D0" stroke-width="5"/>
</svg>
