<svg xmlns="http://www.w3.org/2000/svg" width="20" height="20" fill="none"><path fill="#082242" d="M7.415 1.963a.313.313 0 0 1 .313-.313 1.271 1.271 0 0 1 1.27 1.27V7.87a.312.312 0 1 1-.626 0V2.92a.646.646 0 0 0-.644-.645.312.312 0 0 1-.313-.312Zm2.246 1.68a.625.625 0 0 1 .625.624v8.091c0 .294-.114.577-.32.787-.54.551-.5 1.149-.5 1.513a.312.312 0 1 0 .625 0c0-.312-.042-.706.32-1.076.322-.327.501-.766.5-1.224v-8.09a1.25 1.25 0 0 0-1.25-1.25.312.312 0 1 0 0 .624Zm.137 11.826H3.854a.312.312 0 1 0 0 .625h5.944a.528.528 0 0 1 .527.527v.195a.529.529 0 0 1-.527.528H2.376a.528.528 0 0 1-.527-.528v-.195a.528.528 0 0 1 .527-.527.313.313 0 0 0 .312-.313v-1.165c0-.678-.369-.938-.805-1.248a1.291 1.291 0 0 1-.542-1.05V8.144a.645.645 0 1 1 1.289 0v1.949a.313.313 0 0 0 .625 0V2.92a.645.645 0 0 1 1.289 0v5.293a.313.313 0 0 0 .625 0V1.894a.645.645 0 0 1 1.289 0v6.319a.313.313 0 0 0 .625 0V1.894a1.27 1.27 0 0 0-2.537-.066A1.271 1.271 0 0 0 2.63 2.92V7.05C1.787 6.552.716 7.164.716 8.145v4.173a1.917 1.917 0 0 0 .805 1.56c.43.304.542.395.542.738v.896a1.154 1.154 0 0 0-.84 1.109v.195a1.154 1.154 0 0 0 .84 1.11v1.136a.313.313 0 1 0 .625 0V17.97h6.778v1.093a.313.313 0 1 0 .625 0V17.93a1.154 1.154 0 0 0 .86-1.115v-.195a1.153 1.153 0 0 0-1.153-1.151Z"/><path stroke="#082242" stroke-linejoin="round" stroke-width=".5" d="M15.682 9.318c1.004 0 1.818-.78 1.818-1.742s-.814-1.743-1.818-1.743-1.818.78-1.818 1.743c0 .962.814 1.742 1.818 1.742ZM14.317 8.883l2.727-2.614M14.318 14.11c1.004 0 1.818-.78 1.818-1.742 0-.963-.814-1.743-1.818-1.743s-1.818.78-1.818 1.742c0 .963.814 1.743 1.818 1.743ZM12.955 13.675l2.727-2.614M15.682 18.902c1.004 0 1.818-.78 1.818-1.743 0-.962-.814-1.742-1.818-1.742s-1.818.78-1.818 1.742c0 .963.814 1.743 1.818 1.743ZM14.317 18.466l2.727-2.614"/></svg>