<svg width="52" height="52" viewBox="0 0 52 52" fill="none" xmlns="http://www.w3.org/2000/svg">
<path d="M10.5062 25.8493L2.30773 33.9014C-0.0346107 47.487 10.7011 50.493 16.3618 50.2978L23.3888 43.2707M10.5062 25.8493L1.13688 16.9195C0.356098 10.2828 2.54228 -2.0535 17.5332 1.69427L26.903 9.74539M10.5062 25.8493L26.903 9.74539M26.903 9.74539L28.6597 8.02M41.5426 25.117L49.7401 16.9195C52.0824 1.92851 40.9563 0.523104 35.1005 1.69427L28.6597 8.02M41.5426 25.117L49.7401 33.9014C53.2543 40.3428 49.7401 52.6401 35.1005 48.541L25.1462 41.5134M41.5426 25.117L25.1462 41.5134M25.1462 41.5134L23.3888 43.2707M28.6597 8.02L37.4435 16.9195M39.7858 18.6762L41.5426 20.4329M11.0922 30.3879L12.8489 32.1446M14.6057 33.9014L23.3888 43.2707M17.5332 27.46L26.903 16.9195C30.4165 15.9435 37.0921 16.0996 35.6867 24.532L25.1462 35.6581C21.8277 36.0485 15.6591 34.9554 17.5332 27.46Z" stroke="#29B384" stroke-width="1.5" stroke-linecap="round" stroke-linejoin="round"/>
<path d="M22.4033 30.0178C22.8718 29.5493 27.2832 24.7475 29.4303 22.4052" stroke="#29B384" stroke-width="1.5" stroke-linecap="round" stroke-linejoin="round"/>
</svg>
