<svg xmlns="http://www.w3.org/2000/svg" width="50" height="50" fill="none"><path fill="#29B384" d="M0 37.287h3.826v.212c0 2.975 2.445 5.42 5.42 5.42 2.976 0 5.42-2.445 5.42-5.42v-.212h19.713v.212c0 2.975 2.444 5.42 5.42 5.42 2.975 0 5.42-2.445 5.42-5.42v-.212H50V23.472l-5.313-1.222-1.382-6.908H32.943V7H0v30.287Zm9.246 3.506A3.31 3.31 0 0 1 5.952 37.5c0-.319.053-.69.159-.956a3.32 3.32 0 0 1 3.135-2.285 3.32 3.32 0 0 1 3.135 2.285c.106.319.159.637.159.956a3.276 3.276 0 0 1-3.294 3.294Zm30.499 0A3.31 3.31 0 0 1 36.45 37.5c0-.319.053-.69.159-.956.425-1.382 1.7-2.285 3.135-2.285 1.434 0 2.71.903 3.135 2.285.106.319.159.637.159.956-.053 1.86-1.488 3.294-3.294 3.294Zm1.753-23.379 1.329 6.536 4.994 1.169V35.16h-3.188c-.106-.212-.212-.372-.319-.585 0-.053-.053-.053-.053-.106a3.726 3.726 0 0 0-.425-.532c0-.053-.053-.053-.053-.106l-.478-.478-.053-.053c-.16-.16-.372-.266-.532-.372 0 0-.053 0-.053-.053-.212-.106-.372-.212-.584-.319-.053 0-.053-.053-.106-.053-.213-.106-.425-.16-.638-.212-.053 0-.053 0-.106-.053l-.638-.16h-.106c-.212-.053-.478-.053-.691-.053-.266 0-.478 0-.69.053H39l-.638.16c-.053 0-.053 0-.106.053-.212.053-.425.16-.637.212-.053 0-.053.053-.107.053-.212.106-.425.212-.584.319-.213.106-.373.266-.585.425h-.053l-.478.478-.053.053c-.16.16-.266.372-.425.532l-.053.053c-.106.212-.266.372-.319.584H14.135c-.107-.212-.213-.372-.32-.584 0-.053-.052-.053-.052-.106a3.739 3.739 0 0 0-.425-.532c0-.053-.053-.053-.053-.106l-.478-.478s-.053 0-.053-.053c-.16-.16-.372-.266-.532-.373h-.053c-.212-.106-.372-.212-.584-.318-.053 0-.053-.053-.107-.053-.212-.107-.425-.16-.637-.213-.053 0-.053 0-.107-.053l-.637-.159H9.99c-.212-.053-.478-.053-.69-.053-.266 0-.479 0-.691.053h-.107l-.637.16c-.053 0-.053 0-.106.052-.213.053-.426.16-.638.213-.053 0-.053.053-.106.053-.213.106-.425.212-.585.319-.212.106-.372.265-.584.425h-.053c-.16.159-.32.318-.478.478l-.053.053c-.16.16-.266.372-.426.531l-.053.053c-.106.213-.265.372-.318.585H2.126v-3.932h30.818V17.15h8.554v.265ZM2.126 9.125h28.692v20.032H2.126V9.125Z"/></svg>