<svg xmlns="http://www.w3.org/2000/svg" width="50" height="50" fill="none"><path fill="#29B384" d="M5.174 29.9h2.584v1.667H5.174V29.9ZM9.482 29.9h2.583v1.667H9.482V29.9ZM5.174 33.35h2.584v1.667H5.174v-1.666ZM9.482 33.35h2.583v1.667H9.482v-1.666ZM5.174 36.8h2.584v1.667H5.174V36.8ZM9.482 36.8h2.583v1.667H9.482V36.8ZM5.174 40.242h2.584v1.666H5.174v-1.666ZM9.482 40.242h2.583v1.666H9.482v-1.666ZM5.174 43.691h2.584v1.667H5.174v-1.667ZM9.482 43.691h2.583v1.667H9.482v-1.667ZM37.582 16.967h2.583v1.667h-2.583v-1.667ZM41.9 16.967h2.583v1.667H41.9v-1.667ZM37.582 20.417h2.583v1.667h-2.583v-1.667ZM41.9 20.417h2.583v1.667H41.9v-1.667ZM37.582 23.867h2.583v1.666h-2.583v-1.666ZM41.9 23.867h2.583v1.666H41.9v-1.666ZM37.582 27.317h2.583v1.667h-2.583v-1.667ZM41.9 27.317h2.583v1.667H41.9v-1.667ZM37.582 30.76h2.583v1.666h-2.583v-1.667ZM41.9 30.76h2.583v1.666H41.9v-1.667ZM17.184 20.067h11.791v1.666H17.184v-1.666ZM17.184 23.45h11.791v1.667H17.184v-1.666ZM17.184 26.833h11.791V28.5H17.184v-1.667ZM17.184 30.217h11.791v1.667H17.184v-1.667ZM17.184 33.6h11.791v1.667H17.184V33.6ZM17.184 36.993h11.791v1.666H17.184v-1.666ZM17.184 40.375h11.791v1.667H17.184v-1.667ZM18.866 14.142h8.425v1.667h-8.425v-1.667ZM18.866 10.76h8.425v1.666h-8.425v-1.667Z"/><path fill="#29B384" d="M47.9 47.142V13.525H34.166v33.617h-1.833v-33h-1.667V1L15.508 7.808v6.334h-1.667V26.45H1.75v20.692H0v1.666h50v-1.666h-2.1Zm-34.076 0H3.416V28.117h10.408v19.025Zm16.842 0H15.491V15.809h1.667V8.884l11.824-5.309V15.81h1.667l.017 31.333Zm15.567 0h-10.4v-31.95h10.4v31.95Z"/></svg>