<svg xmlns="http://www.w3.org/2000/svg" width="18" height="18" fill="none"><path fill="#29B384" d="M1.317 3c-.259 0-.496.078-.7.206L8.41 9.798a.9.9 0 0 0 1.194 0l7.779-6.592a1.306 1.306 0 0 0-.7-.206H1.317Zm-1.242.885C.028 4.02 0 4.165 0 4.317v8.78c0 .265.08.508.213.714L5.79 8.728.075 3.885Zm17.85 0L12.223 8.72l5.563 5.09c.134-.206.213-.449.213-.713v-8.78c0-.153-.029-.297-.076-.433Zm-6.373 5.412-1.386 1.173a1.8 1.8 0 0 1-2.325 0L6.462 9.304.926 14.353c.124.038.254.061.391.061h15.366c.137 0 .267-.023.391-.061l-5.522-5.056Z"/></svg>