<svg xmlns="http://www.w3.org/2000/svg" width="50" height="50" fill="none"><path fill="#29B384" d="M49.799 29.15a3.399 3.399 0 0 0-1.763-1.94 3.403 3.403 0 0 0-2.619-.13l-3.05 1.09-5.453-15.249a2.149 2.149 0 0 0-2.739-1.294l-15.414 5.515-3.891-10.87a3.397 3.397 0 0 0-1.768-1.943A3.41 3.41 0 0 0 10.49 4.2L2.274 7.138c-.86.307-1.55.933-1.942 1.764a3.403 3.403 0 0 0-.13 2.62c.307.859.933 1.548 1.764 1.94.829.393 1.76.44 2.62.131l4.983-1.784 7.503 20.964c-2.173 2.198-3.038 5.525-1.93 8.621a8.308 8.308 0 0 0 7.802 5.496c.95 0 1.89-.163 2.791-.487a8.231 8.231 0 0 0 4.699-4.258c.407-.86.65-1.768.745-2.689l16.549-5.921a3.397 3.397 0 0 0 1.94-1.764c.392-.831.439-1.762.13-2.62ZM29.813 14.899l1.654 4.62-1.546-.42a.808.808 0 0 0-.87.311l-.928 1.307-1.654-4.62 3.344-1.198Zm-4.863 1.74 2.175 6.076a.806.806 0 0 0 1.417.195l1.498-2.107 2.496.68a.806.806 0 0 0 .97-1.05l-2.174-6.077 3.387-1.212c.269-.097.581.05.678.32l5.453 15.248-11.855 4.242a8.3 8.3 0 0 0-5.51-2.617l-4.18-11.679 5.645-2.019ZM11.032 5.715a1.804 1.804 0 0 1 1.384.07c.44.207.773.572.935 1.027l8.444 23.59a8.256 8.256 0 0 0-1.642.399 8.225 8.225 0 0 0-1.756.886l-7.582-21.182-1.494-4.178 1.711-.612ZM9.025 10.29l-2.518.901-1.223-3.418 2.519-.902 1.222 3.419Zm-4.982 1.784a1.805 1.805 0 0 1-1.388-.07A1.8 1.8 0 0 1 1.79 9.59c.208-.44.572-.772 1.026-.934l.949-.34 1.223 3.42-.946.338Zm24.934 29.38a6.63 6.63 0 0 1-3.784 3.43 6.649 6.649 0 0 1-2.248.393 6.691 6.691 0 0 1-6.283-4.426c-1.239-3.462.572-7.289 4.035-8.53a6.657 6.657 0 0 1 2.246-.392 6.688 6.688 0 0 1 6.282 4.427 6.623 6.623 0 0 1-.249 5.099Zm19.232-10.373c-.208.44-.571.773-1.025.935l-16.007 5.729a8.323 8.323 0 0 0-.434-1.933 8.272 8.272 0 0 0-.727-1.51l15.946-5.705a1.815 1.815 0 0 1 1.386.071 1.802 1.802 0 0 1 .862 2.413Z"/><path fill="#29B384" d="M22.942 35.063a3.536 3.536 0 0 0-3.199 2.029 3.545 3.545 0 0 0 3.202 5.052c.407 0 .808-.07 1.193-.209a3.512 3.512 0 0 0 2.007-1.819 3.51 3.51 0 0 0 .13-2.705 3.547 3.547 0 0 0-3.333-2.348Zm1.744 4.364c-.219.465-.608.817-1.091.99-.985.352-2.115-.192-2.464-1.167a1.901 1.901 0 0 1 .071-1.469 1.915 1.915 0 0 1 1.74-1.105 1.93 1.93 0 0 1 1.744 2.75Z"/></svg>