<svg width="27" height="52" viewBox="0 0 27 52" fill="none" xmlns="http://www.w3.org/2000/svg">
<path d="M19.5661 44.4288H21.8138M21.8138 44.4288H24.0615V51.0001H2.4018V44.4288H3.42349M21.8138 44.4288V41.1432M21.8138 41.1432H4.44517M21.8138 41.1432C22.9581 41.1432 24.8789 33.203 25.6962 29.2328V16.9116C23.7346 14.2831 21.8819 15.8164 21.2008 16.9116M4.44517 41.1432V44.4288M4.44517 41.1432C3.35538 38.2683 1.17578 31.8613 1.17578 29.2328C1.17578 26.6043 1.17578 16.638 1.17578 11.9833C1.8569 10.4774 3.70956 8.36915 5.67119 11.9833V22.2509V5.41207C6.48854 4.04306 8.61365 2.12645 10.5753 5.41207V21.0187V3.35847C11.5289 1.57876 13.9264 -0.912835 15.888 3.35847V5.41207M4.44517 44.4288H17.1141H3.42349M4.44517 44.4288H3.42349M15.888 18.6603V5.41207M15.888 5.41207C16.7054 4.04312 18.9122 2.12659 21.2008 5.41207V16.9116M21.2008 24.3042V16.9116M8.89518 24.6364C6.44313 26.2792 4.24767 31.1155 7.71456 36.4546C8.89518 38.2728 15.0178 40.7259 19.5661 36.4546C20.7921 34.9487 22.5086 31.0333 19.5661 27.4192C18.6125 26.5978 15.888 25.4478 12.6186 27.4192C11.5289 28.5144 10.0031 31.2798 12.6186 33.5797C14.3896 33.9904 18.3401 33.9904 17.9314 31.1155C17.5227 29.4727 16.1605 28.2728 13.8901 30.091" stroke="#29B384" stroke-width="1.5" stroke-linecap="round" stroke-linejoin="round"/>
</svg>
