<svg width="52" height="33" viewBox="0 0 52 33" fill="none" xmlns="http://www.w3.org/2000/svg">
<path d="M19.8976 9.04602V7.86379L20.685 4.31707H8.48031L1 11.4105L8.48031 18.5039H20.685L19.8976 13.775H24.2283M19.8976 9.04602H24.2283V13.775M19.8976 9.04602H16.3543L14.7795 11.4105H8.48031M24.2283 13.775L24.622 5.49931C25.2782 3.92299 27.378 3.52887 28.9528 5.49931V12.5928V2.7408C29.7402 1.4272 31.7874 -0.411843 33.6772 2.7408M24.2283 13.775C25.4094 15.4827 27.9291 18.898 28.5591 18.898V22.4447M33.6772 2.7408V7.07559M33.6772 2.7408C34.3333 1.68995 36.0394 0.218754 37.6142 2.7408M37.6142 2.7408V7.07559M37.6142 2.7408C38.0079 1.55847 40.685 0.533988 41.9449 2.7408V3.92295M41.9449 7.07559V3.92295M41.9449 3.92295C42.7323 2.87207 44.3858 1.40084 46.2756 3.92295V9.04599M46.2756 14.169C45.8819 15.3513 44.8583 17.8734 43.9134 18.5039M46.2756 14.169L43.9134 18.5039M46.2756 14.169H50.2126L51 12.5928V9.83415L50.2126 9.04599H46.2756M46.2756 14.169V9.04599M43.9134 18.5039V22.4447M43.9134 22.4447H28.5591M43.9134 22.4447L46.2756 23.6269V26.7796L45.0945 27.9618L43.9134 27.99M28.5591 22.4447L26.5906 23.6269V26.7796L28.0669 27.9618M28.0669 27.9618V31.5085H43.9134V27.99M28.0669 27.9618L43.9134 27.99" stroke="#29B384" stroke-width="1.5" stroke-linecap="round" stroke-linejoin="round"/>
</svg>
