<svg xmlns="http://www.w3.org/2000/svg" width="40" height="40" fill="none"><path fill="#29B384" fill-rule="evenodd" stroke="#29B384" stroke-width=".4" d="M11.163 8.517c.065-.316.311-.617.701-.86.543-.337 1.372-.577 2.224-.639 1.365-.099 5.072.22 6.203.583.8.256 1.456.7 1.79 1.813l.075.006c3.433.252 8.903.033 9.399-.016.693-.07 1.45.004 1.982.451.3.253.432.606.43 1.032-.001.367-.038.72-.205 1.03-.125.23-.303.367-.554.476-.248.107-2.15.707-4.38.866 2.72.75 7.34 2.042 8.146 2.405.615.277 1.256.714 1.64 1.224.433.574.559 1.234.078 1.89-.368.501-.96.699-1.548.74a4.01 4.01 0 0 1-.517 0c.183.174.363.374.504.588.363.548.483 1.178-.051 1.76-.489.53-1.108.812-2.016.775-.465-.02-1.013-.126-1.667-.332.09.13.164.264.218.396.212.52.141 1.03-.373 1.38-.327.222-.617.39-.926.493a2.233 2.233 0 0 1-1.159 1.363c-.611.296-1.322.278-1.867-.227l-.137-.128c.131.253.32.674.422 1.157.175.829.094 1.825-.878 2.512-.41.29-.8.382-1.165.342-.357-.039-.695-.21-1.005-.47-.784-.66-1.398-1.927-1.799-2.766-.02-.008-.043-.015-.064-.024.169.54.432 1.417.701 2.45.201.774.106 1.346-.11 1.767-.33.642-.955.942-1.35 1.06-.375.111-1.095.243-1.666.128-.456-.093-.82-.335-.943-.794-.145-.54-1.228-3.274-2.042-5.304.316 2.04.679 4.761.523 5.642-.15.858-.843 1.289-1.627 1.362-.748.07-1.569-.199-2.018-.691-.112-.123-.231-.345-.344-.65-.148-.404-.298-.966-.44-1.62-.295-1.364-.562-3.131-.745-4.665-.113 1.04-.25 2.16-.393 3.009-.314 1.858-1.114 2.886-2.444 2.567-.952-.229-1.526-1.259-1.514-2.45.032-3.107.445-7.814.523-8.671l-.017-.01a50.557 50.557 0 0 1-1.6-.964 34.188 34.188 0 0 1-.696-.451 22.485 22.485 0 0 1-1.027-.727 5.56 5.56 0 0 1-.192-.15 3.853 3.853 0 0 1-.212-.185 2.859 2.859 0 0 1-.366-.416 2.294 2.294 0 0 1-.27-.504 1.972 1.972 0 0 1-.106-.412v-.003c-.652-.072-2.634-.342-4.22-1.098-.675-.322-.98-.936-1.052-1.551-.072-.608.092-1.21.318-1.513.873-1.175 3.898-2.986 4.964-3.681 1.097-.715 2.029-.312 2.18-.238l2.684.943Zm.127 11.256c-.113 1.284-.468 5.516-.498 8.382-.009.914.37 1.743 1.1 1.918.581.14 1-.1 1.296-.6.226-.383.384-.907.489-1.531.357-2.116.674-5.923.674-5.923a.27.27 0 0 1 .54.02c.01 1.263.45 5.068.986 7.534.135.625.276 1.162.418 1.547.081.22.156.386.236.473.347.381.99.571 1.569.517.542-.05 1.041-.323 1.145-.917.232-1.316-.738-6.837-.901-7.748-2.29-1.116-4.856-2.424-7.054-3.672Zm7.807 4.036c.69 1.708 2.527 6.281 2.72 7 .067.247.283.354.53.403.48.098 1.087-.022 1.404-.116.297-.088.774-.306 1.023-.789.169-.33.225-.778.068-1.383a50.782 50.782 0 0 0-.83-2.848l-.007-.004c-.305-.13-.61-.265-.913-.4a176.894 176.894 0 0 1-3.97-1.85l-.025-.013Zm9.493 1.872a1.64 1.64 0 0 1-.391.358c-.948.638-1.71.801-2.767.54.36.738.844 1.63 1.443 2.135.223.187.46.318.716.346.25.028.514-.047.795-.246.755-.534.796-1.315.66-1.959a4.21 4.21 0 0 0-.456-1.174Zm7.147-6.857a4.39 4.39 0 0 0 1.37.155c.433-.03.88-.152 1.15-.52.317-.432.212-.867-.074-1.246-.334-.443-.897-.815-1.43-1.056-1.146-.515-10.066-2.923-10.066-2.923a.27.27 0 0 1 .098-.53c2.248.239 4.947-.383 6.068-.737a.768.768 0 0 0 .497-.54c.049-.192.077-.374.077-.541.001-.252-.06-.468-.238-.617-.422-.356-1.03-.382-1.58-.327-.627.062-9.068.38-11.63-.275-1.753-.448-4.242-.512-5.753-.403a7.5 7.5 0 0 0-.921.112c-.225.047-.433.187-.557.264-.795.488-2.752 1.71-4.162 2.865-.682.559-1.238 1.094-1.437 1.52-.324.694-.409 1.237-.299 1.69.108.44.401.785.8 1.095 3.872 3.012 15.032 8.15 16.898 8.904l-.324-.136c.072 0 .14.03.19.08l.134.055c.118.048.232.092.342.132a.271.271 0 0 1 .203.071c1.136.38 1.865.306 2.804-.325.193-.13.31-.269.362-.418.079-.223.008-.458-.111-.682-.326-.61-1.04-1.142-1.195-1.254-1.427-.845-7.403-3.735-7.403-3.735a.27.27 0 0 1 .235-.486s5.771 2.797 7.38 3.722a.48.48 0 0 1 .015.006c1.609.67 2.678 1.082 3.464 1.277 1.09.27 1.589.097 2.294-.383.27-.184.287-.456.176-.73-.171-.422-.607-.85-1.087-1.109-.092-.038-.186-.08-.282-.121a.262.262 0 0 1-.073-.022c-1.332-.61-9.175-4.562-9.175-4.562a.27.27 0 0 1 .243-.483s7.43 3.745 9.041 4.5a2.731 2.731 0 0 1 .463.193c1.216.512 2.13.768 2.843.798.716.029 1.21-.183 1.595-.602.333-.362.224-.755 0-1.096-.412-.622-1.2-1.1-1.2-1.1l-.008-.006c-1.799-.791-9.827-3.688-9.827-3.688a.27.27 0 0 1 .184-.508s8.133 2.936 9.887 3.713a.325.325 0 0 1 .02.01h-.001Zm-4.043 5.87c-.331.015-.709-.032-1.18-.148-.558-.14-1.258-.384-2.185-.75.112.14.215.288.296.44.038.072.072.145.1.217l.933.865c.368.342.851.337 1.264.137.322-.155.606-.427.772-.762Zm-19.146-11.13c1.72.353 6.305 2.188 6.305 2.188a.145.145 0 1 0 .108-.27s-4.62-1.848-6.353-2.204a.145.145 0 0 0-.06.285Zm-.463-4.15L8.283 8.079a.254.254 0 0 1-.038-.016s-.75-.384-1.65.203c-1.034.674-3.98 2.412-4.827 3.551-.167.226-.267.676-.214 1.127.052.444.26.894.748 1.127 1.467.7 3.29.962 3.973 1.04.032-.384.153-.818.384-1.313.222-.475.825-1.087 1.585-1.71 1.24-1.017 2.9-2.085 3.841-2.672Zm2.461 2.321c1.72.354 6.304 2.19 6.304 2.19a.145.145 0 1 0 .108-.27s-4.62-1.849-6.353-2.205a.145.145 0 0 0-.059.285ZM4.1 12.925l2.009.465a.146.146 0 0 0 .066-.283l-2.01-.465a.145.145 0 1 0-.065.284Zm1.304-1.319 1.975.376a.145.145 0 0 0 .055-.286l-1.975-.376a.146.146 0 0 0-.055.286Zm2.035-1.202 1.709.452a.146.146 0 1 0 .074-.281l-1.71-.452a.145.145 0 1 0-.073.281Zm1.765-.9 1.41.402a.146.146 0 0 0 .08-.28l-1.41-.4a.146.146 0 0 0-.08.279Zm12.289-.141c-.285-.74-.777-1.058-1.367-1.247-1.094-.35-4.679-.654-5.998-.559-.758.055-1.496.26-1.978.56-.256.159-.443.334-.462.543a.293.293 0 0 1-.008.04l.997.35.1-.061c.056-.035.15-.07.277-.103l-.114-.302a.145.145 0 1 1 .272-.103l.13.344c.23-.041.516-.076.845-.1.444-.032.97-.05 1.537-.047l-.108-.304a.146.146 0 0 1 .275-.097l.143.404c.775.013 1.61.063 2.407.16l-.156-.337a.146.146 0 0 1 .264-.122l.234.505c.468.067.895.16 1.306.265.117.03.27.05.412.076l-.132-.31a.146.146 0 1 1 .267-.114l.206.48c.201.03.42.055.65.079Z" clip-rule="evenodd"/></svg>