<svg width="52" height="52" viewBox="0 0 52 52" fill="none" xmlns="http://www.w3.org/2000/svg">
<path d="M30.3269 51.0002H17.8269V44.2315L16.5618 41.8142M30.3269 51.0002V42.781L26.4808 35.0454V17.6402C27.1218 16.1897 28.9808 14.1591 31.2885 17.6402M30.3269 51.0002H47.1538V42.781L51 34.5619V11.355C49.0769 8.64749 46.9936 10.2268 46.1923 11.355M31.2885 17.6402V26.3428M31.2885 17.6402V6.03673C32.0897 4.74745 34.2692 2.94246 36.5769 6.03673M36.5769 6.03673V21.0245M36.5769 6.03673V3.13582C37.3782 2.16885 39.4615 0.815089 41.3846 3.13582V5.06974M41.3846 21.0245V5.06974M41.3846 5.06974C42.1859 3.78047 44.2692 1.97548 46.1923 5.06974V11.355M46.1923 21.0245V11.355M44.2692 47.6159H38.9808M17.8269 17.6402C15.9038 14.9327 13.8205 16.512 13.0192 17.6402V19.0907M17.8269 17.6402V25.8593M17.8269 17.6402V9.42116M23.1154 6.03673C21.1923 2.5557 18.7885 4.5863 17.8269 6.03673V9.42116M23.1154 6.03673V21.0245M23.1154 6.03673V3.13582C23.9167 1.52422 26.0962 -0.732022 28.4038 3.13582M28.4038 3.13582V11.355M28.4038 3.13582C29.5256 2.16885 32.0577 0.815089 33.2115 3.13582M9.65385 9.42116H17.8269M6.28846 9.42116H1M13.0192 19.0907H1.48077M13.0192 19.0907V27.0681M13.0192 27.0681V35.0454L16.5618 41.8142M13.0192 27.0681H8.21154M5.80769 27.0681H4.36538M8.69231 30.2107H1.48077M4.84615 38.4299H1M1.48077 41.8142H16.5618" stroke="#29B384" stroke-width="1.5" stroke-linecap="round" stroke-linejoin="round"/>
</svg>
