<svg xmlns="http://www.w3.org/2000/svg" width="40" height="40" fill="none"><g fill="#29B384" clip-path="url(#a)"><path d="M4.088 39.977h22.753a.606.606 0 0 0 .606-.606V23.556h2.876a.606.606 0 0 0 .458-1.002L15.923 5.341a.626.626 0 0 0-.917 0l-4.87 5.643v-3.64a.606.606 0 0 0-.607-.605H4.583a.606.606 0 0 0-.606.606v10.773l-3.83 4.437a.605.605 0 0 0 .459 1.002h2.876v15.815c0 .335.272.606.607.606Zm8.52-1.212v-7.69h5.713v7.69h-5.713Zm13.627 0h-6.702v-8.297a.606.606 0 0 0-.606-.606h-6.925a.606.606 0 0 0-.606.606v8.297H4.695V23.556h21.54v15.209ZM5.189 7.95h3.734v4.437L5.19 16.713V7.95Zm-.177 10.824 10.452-12.11 13.534 15.68H1.93l3.082-3.57Z"/><path d="M15.465 19.914a3.3 3.3 0 0 0 3.295-3.295 3.3 3.3 0 0 0-3.295-3.296 3.3 3.3 0 0 0-3.296 3.296 3.3 3.3 0 0 0 3.296 3.295Zm0-5.38c1.149 0 2.083.936 2.083 2.085a2.086 2.086 0 0 1-2.083 2.083 2.086 2.086 0 0 1-2.083-2.084c0-1.148.934-2.083 2.083-2.083ZM37.024 8.017a5.047 5.047 0 0 0-5.04-5.041 5.047 5.047 0 0 0-5.042 5.041 5.047 5.047 0 0 0 5.041 5.041c2.78 0 5.041-2.261 5.041-5.041Zm-5.04 3.829a3.833 3.833 0 0 1-3.83-3.829 3.833 3.833 0 0 1 3.83-3.83 3.833 3.833 0 0 1 3.828 3.83 3.833 3.833 0 0 1-3.829 3.829ZM32.59 1.129V.606a.606.606 0 1 0-1.213 0v.523a.606.606 0 1 0 1.213 0ZM31.377 14.905v.523a.606.606 0 1 0 1.213 0v-.523a.606.606 0 1 0-1.213 0ZM37.652 2.348a.606.606 0 0 0-.857 0l-.37.37a.606.606 0 0 0 .858.857l.369-.37a.606.606 0 0 0 0-.857ZM26.314 13.686a.605.605 0 0 0 .857 0l.37-.37a.606.606 0 0 0-.857-.857l-.37.37a.606.606 0 0 0 0 .857ZM39.394 7.411h-.523a.606.606 0 1 0 0 1.212h.523a.606.606 0 1 0 0-1.212ZM25.094 8.623a.606.606 0 1 0 0-1.212h-.522a.606.606 0 1 0 0 1.212h.522ZM36.795 13.686a.604.604 0 0 0 .857 0 .606.606 0 0 0 0-.857l-.37-.37a.606.606 0 0 0-.856.858l.369.37ZM26.684 3.575a.604.604 0 0 0 .857 0 .606.606 0 0 0 0-.857l-.37-.37a.606.606 0 0 0-.856.857l.37.37Z"/></g><defs><clipPath id="a"><path fill="#fff" d="M0 0h40v40H0z"/></clipPath></defs></svg>