<svg xmlns="http://www.w3.org/2000/svg" aria-hidden="true" style="position:absolute;width:0;height:0;overflow:hidden"><defs><symbol id="beauty" viewBox="0 0 32 32"><path d="M11.864 3.14a.498.498 0 0 1 .5-.5 2.035 2.035 0 0 1 2.032 2.032v7.922a.5.5 0 0 1-1 0V4.672a1.033 1.033 0 0 0-1.031-1.031.498.498 0 0 1-.5-.5zm3.594 2.688a1 1 0 0 1 1 1v12.945c.001.471-.184.922-.513 1.258-.862.882-.799 1.839-.799 2.422a.5.5 0 1 0 .999 0c0-.5-.068-1.129.513-1.723a2.783 2.783 0 0 0 .8-1.957V6.828a2 2 0 0 0-2-2 .498.498 0 0 0-.5.5.498.498 0 0 0 .5.5zm.219 18.922H6.166a.5.5 0 0 0 0 1h9.511a.85.85 0 0 1 .844.844v.312a.846.846 0 0 1-.844.843H3.802a.842.842 0 0 1-.844-.843v-.312c0-.224.089-.438.248-.596s.373-.247.596-.248a.498.498 0 0 0 .5-.5v-1.865c0-1.084-.591-1.5-1.289-1.996a2.07 2.07 0 0 1-.867-1.68v-6.678a1.03 1.03 0 1 1 2.062 0v3.118a.498.498 0 0 0 .5.5.5.5 0 0 0 .5-.5V4.672a1.03 1.03 0 1 1 2.062 0v8.469a.498.498 0 0 0 .5.5.5.5 0 0 0 .5-.5V3.032a1.033 1.033 0 0 1 1.76-.729c.193.193.302.456.302.729v10.109a.498.498 0 0 0 .5.5.5.5 0 0 0 .5-.5V3.032a2.03 2.03 0 0 0-3.408-1.488 2.034 2.034 0 0 0-.652 1.381c-1.351-.799-3.066.179-3.066 1.748v6.611c-1.349-.799-3.063.181-3.063 1.75v6.676a3.064 3.064 0 0 0 1.289 2.495c.688.488.868.632.868 1.181v1.434a1.845 1.845 0 0 0-1.344 1.774v.312A1.845 1.845 0 0 0 3.3 28.68v1.819a.498.498 0 0 0 .5.5.498.498 0 0 0 .5-.5v-1.75h10.844v1.75a.498.498 0 0 0 .853.354.502.502 0 0 0 .146-.354v-1.812a1.845 1.845 0 0 0 1.375-1.783v-.312a1.849 1.849 0 0 0-1.844-1.842zM32 16.828c0-.491-.081-.977-.238-1.426s-.386-.85-.673-1.178c-.287-.328-.624-.575-.991-.725s-.753-.2-1.136-.146c-.02 0-.04.006-.059.01l-8.679 1.335c-.062.009-.119.048-.161.108s-.064.137-.064.217v3.535c0 .079.021.156.062.216s.097.099.158.109l7.213 1.26-.024.113-.715.715c-.042.042-.072.099-.087.164s-.014.134.004.198c.017.064.093.159.093.159a.22.22 0 0 0 .148.06c.057 0 .513-1.251.558-1.296l-.228 1.053-1.056 4.945a.409.409 0 0 0 .044.283c.024.04.054.072.089.094s.074.034.113.034h1.601c.045 0 .09-.016.129-.045s.072-.072.094-.123l3.414-7.876a4.213 4.213 0 0 0 .39-1.796zm-.509 0c-.001.671-.187 1.321-.526 1.834s-.809.857-1.327.971l-.054.011-.064.011-.078.01-.048.004c-.044 0-.087.006-.131.006s-.103 0-.155-.007h-.036a1.545 1.545 0 0 1-.253-.046l-.018-.005-.086-.025-.02-.007a3.019 3.019 0 0 1-.087-.031h-.006l-.012-.005a1.748 1.748 0 0 1-.09-.039l-.01-.005-.017-.008a2.39 2.39 0 0 1-.112-.059l-.034-.02a2.52 2.52 0 0 1-.22-.149 2.265 2.265 0 0 1-.158-.136l-.034-.032-.064-.062-.025-.027a2.785 2.785 0 0 1-.216-.272l-.048-.071-.032-.049-.041-.067-.039-.068-.029-.053c-.022-.042-.044-.081-.064-.128l-.011-.024a4.076 4.076 0 0 1-.052-.116l-.012-.03-.046-.12c0-.008-.005-.016-.008-.024l-.047-.145a3.207 3.207 0 0 1-.079-.325v-.005a2.468 2.468 0 0 1-.025-.15c0-.011-.003-.021-.004-.032-.005-.042-.011-.084-.015-.127 0-.014-.003-.028-.004-.041a2.452 2.452 0 0 1-.009-.123V17c0-.054-.004-.108-.004-.163V16.659c0-.034.004-.068.006-.102 0-.013 0-.026.003-.039l.01-.102c0-.011.003-.022.004-.032l.015-.109.003-.022.022-.122v-.006c.096-.468.283-.898.544-1.248s.588-.61.95-.755l.093-.033.03-.01.064-.019.051-.013.046-.011.064-.014c.1-.017.202-.027.303-.028h.006c.591-.002 1.158.296 1.577.828s.655 1.255.657 2.009zm-10.984 1.448V15.31l6.905-1.062c-.391.457-.669 1.051-.801 1.707l-.004.018c-.01.049-.019.098-.027.148 0 .014-.004.028-.006.042-.006.042-.013.081-.018.128 0 .023-.004.046-.007.068l-.011.107-.006.101c-.002.034-.004.053-.004.081 0 .061-.004.122-.004.184s0 .126.004.188v.041c0 .05.005.099.009.148l.004.039.016.148c0 .012.003.023.005.034.007.052.014.102.023.151l.006.03.03.153.006.028a2.525 2.525 0 0 0 .044.178c.013.049.028.097.043.146l.009.028c.015.047.031.094.048.14l.011.031a4.033 4.033 0 0 0 .066.166c.017.042.036.081.055.124l.016.037c.023.048.047.096.072.143s.04.073.064.109l.017.031.068.11.016.025c.024.037.048.072.073.107l.015.021c.026.037.052.072.079.106l.013.017.086.104.008.009c.022.026.044.052.067.076l-6.987-1.225zm7.319 7.736h-1.121l1.293-6.057c0-.008.003-.016.005-.024l.032.02.087.054.047.026c.039.022.078.042.118.062l.016.008.01.005.015.007.015.007.059.026.034.014.023.009.047.018.057.02.03.01.022.006a.875.875 0 0 0 .073.021h.007l.024.007h.007c.038.01.076.018.113.026h.026c.033.006.067.012.1.016l.044.006.086.008h.041c.042 0 .084.004.127.004s.098 0 .146-.005c.024 0 .046-.005.069-.007s.048 0 .073-.007c.024-.007.064-.01.097-.015l.039-.007c.04-.008.08-.017.119-.027h.01c.214-.055.422-.143.62-.262l-2.61 6.032z"/><path d="M31.999 16.828h-.133.133zm-3.037-3.474v.135l.019-.003-.019-.132zm-.06.01.02.132.007-.001-.027-.131zm-8.678 1.335.02.132-.02-.132zm-.225.325h.133v-.001l-.133.001zm0 3.535.133.001v-.001h-.133zm.22.325.023-.131-.023.131zm7.214 1.261.13.028.029-.135-.136-.024-.023.131zm-.024.113.13.028-.13-.028zm-.715.715.094.094-.094-.094zm.009.521-.104.083.007.008.008.007.09-.099zm.148.06v.133-.133zm.33-.243-.13-.028.13.028zm-1.056 4.945zm.245.411v-.133.133zm1.602 0zm.223-.168.122.053-.122-.053zm3.411-7.866.123.053.004-.012-.127-.041zm.003-.009-.122-.057-.005.016.127.041zm-.119-1.796h.133-.133zm-1.854 2.804.025.131.003-.001-.028-.13zm-.054.011.022.132.004-.001-.026-.131zm-.063.01.016.132.005-.001-.022-.132zm-.079.01.011.133.005-.001-.016-.132zm-.048.004v.134l.011-.001-.011-.133zm-.286-.001.019-.133h-.019v.133zm-.036 0-.013.133h.013v-.133zm-.152-.022-.028.13.002.001.025-.131zm-.101-.024.035-.129h-.001l-.034.129zm-.018-.005-.037.128.004.001.034-.129zm-.086-.025-.042.127.004.001.037-.128zm-.02-.006-.042.127.042-.127zm-.087-.032.049-.124-.024-.009h-.025v.133zm-.005 0-.052.123.025.011h.027v-.133zm-.012-.004.052-.123-.002-.001-.05.123zm-.09-.039-.058.12.002.001.056-.121zm-.01-.005.058-.12h-.001l-.057.12zm-.017-.008-.06.119.002.001.057-.121zm-.112-.06-.067.115h.001l.066-.116zm-.034-.019-.07.114.003.002.067-.116zm-.096-.06-.075.11.001.001.074-.111zm-.123-.089-.081.105.081-.106zm-.159-.136-.092.097.001.001.091-.098zm-.034-.033-.093.096.001.001.092-.097zm-.064-.062-.097.092.004.004.093-.096zm-.025-.027-.099.089.002.002.097-.092zm-.191-.237.108-.078-.003-.004-.105.082zm-.074-.105-.112.073.001.002.111-.075zm-.032-.049-.114.069.002.003.112-.073zm-.079-.135-.117.065v.001l.116-.065zm-.03-.053-.118.062.001.003.117-.065zm-.063-.128.123-.052-.004-.009-.119.06zm-.011-.025.125-.048-.004-.008-.121.056zm-.052-.116-.124.05.001.002.123-.052zm-.012-.03-.124.049.124-.05zm-.046-.12h-.133v.024l.008.023.125-.047zm-.008-.025-.126.044.002.005.124-.049zm-.047-.144-.128.038.128-.038zm-.079-.326h-.133v.012l.002.012.131-.025zm0-.005h.133v-.013l-.002-.012-.131.025zm-.025-.149h-.133v.01l.002.01.132-.02zm-.005-.032.132-.016v-.001l-.132.017zm-.015-.127h-.134l.002.015.132-.015zm-.004-.041.133-.006-.001-.006-.133.012zm-.009-.123h-.133v.006l.133-.006zm.003-.486.133.01v-.01h-.133zm.003-.039.13.032.002-.009.001-.01-.133-.012zm.01-.101.133.015v-.015h-.133zm.005-.033zm.015-.109-.131-.025-.001.004.132.021zm.003-.022-.132-.023-.001.009.133.013zm.022-.122.131.027.003-.013v-.013h-.133zm0-.005-.131-.027-.003.013v.014h.133zm1.495-2.004-.049-.124h-.001l.05.124zm.093-.033zm.03-.01.041.127h.001l-.043-.126zm.064-.019-.033-.129-.004.001.037.128zm.051-.013-.03-.13-.003.001.033.129zm.046-.011-.028-.13h-.001l.029.13zm.064-.014-.023-.131-.005.001.028.13zm.303-.027v-.133h-.001l.001.133zm.006 0v.133-.133zm-8.75 4.284h-.133v.112l.11.019.023-.131zm0-2.966-.02-.132-.113.017v.114h.133zm6.905-1.062.101.087.233-.273-.355.055.02.132zm-.801 1.707.13.028v-.002l-.131-.026zm-.003.017-.13-.028v.002l.131.026zm-.027.148-.132-.022-.002.011v.011h.133zm-.007.043-.131-.023v.003l.132.02zm-.017.128-.133-.014v.014h.133zm-.007.068-.133-.015v.001l.133.014zm-.022.289-.133-.003v.003h.133zm0 .372h.134l-.001-.008-.133.008zm.009.188-.133.012v.001l.133-.013zm.004.04.133-.012v-.001l-.133.013zm.016.148h.135l-.002-.017-.132.017zm.005.034.132-.017-.001-.004-.131.022zm.023.151-.132.023v.002l.131-.025zm.006.03.132-.023v-.002l-.131.025zm.03.153.131-.027v-.001l-.13.028zm.006.027-.131.027.001.003.13-.03zm.037.151-.129.035.001.004.128-.038zm.006.027-.131.027.002.008.128-.035zm.043.147-.128.038.002.006.126-.045zm.009.028.127-.041-.127.041zm.048.14-.126.045.125-.045zm.011.031.125-.046-.001-.002-.124.049zm.051.132.124-.049-.001-.001-.124.05zm.014.034.124-.05-.002-.004-.122.054zm.055.125-.122.052.001.002.121-.055zm.016.036-.121.055.001.003.12-.057zm.136.252.117-.065-.006-.008-.111.073zm.017.031-.117.065.001.002.115-.067zm.068.11-.113.071.113-.071zm.016.025-.113.071.001.001.112-.072zm.073.107.109-.076-.001-.001-.109.077zm.014.021.109-.078-.004-.005-.105.082zm.079.106.107-.08-.002-.003-.105.082zm.013.017-.107.08.003.004.104-.083zm.086.104-.101.087.003.004.098-.091zm.008.009.101-.087-.004-.004-.098.091zm.067.076-.023.131.394.069-.274-.292-.097.091zm.332 6.512v.133h.088l.035-.08-.122-.053zm-1.121 0-.13-.028-.034.161h.165v-.133zm1.293-6.056.13.028.003-.014v-.014h-.133zm.005-.024.069-.114-.167-.1-.033.192.131.023zm.032.02.073-.112-.004-.003-.069.114zm.087.053-.069.114.004.002.065-.116zm.046.026.066-.116-.065.116zm.118.062.061-.119-.002-.001-.058.12zm.016.008-.061.119.003.001.057-.12zm.01.005.06-.119-.002-.001-.058.12zm.015.007-.06.119.002.001.058-.12zm.015.008-.058.12.004.002.054-.122zm.059.026-.054.122.004.002.05-.124zm.035.013-.05.124h.001l.048-.124zm.022.009-.048.124h.001l.047-.125zm.048.018-.047.125.002.001.045-.125zm.056.021-.045.126.004.001.041-.127zm.03.009-.041.127.003.001.038-.128zm.022.007.042-.126-.004-.001-.038.128zm.073.021-.034.129.017.004h.017v-.133zm.007 0 .036-.129-.017-.005h-.018v.133zm.024.007-.036.128.017.005h.018v-.133zm.007 0 .034-.129-.016-.004h-.017v.133zm.113.026-.028.13.014.003h.014v-.133zm.026 0 .026-.131-.013-.002h-.013v.133zm.1.016.017-.132h-.001l-.016.132zm.044.006-.017.132h.005l.012-.133zm.086.008-.013.133h.013v-.133zm.315-.001v-.134l-.013.001.013.133zm.238-.03.023.131h.002l-.024-.131zm.04-.008.024.131h.002l-.027-.131zm.119-.026v-.133h-.016l-.016.004.032.13zm.01 0v.133h.017l.016-.004-.033-.129zm.62-.262.122.053.165-.382-.356.214.069.114zm1.697-3.153c0-.506-.084-1.006-.246-1.47l-.252.088c.152.434.231.905.231 1.382h.267zm-.245-1.47c-.162-.463-.4-.88-.698-1.221l-.201.176c.274.314.495.7.647 1.134l.252-.088zm-.699-1.221a2.795 2.795 0 0 0-1.04-.76l-.101.247c.345.141.666.375.941.689l.201-.176zm-1.04-.76a2.302 2.302 0 0 0-1.205-.154l.037.264a2.044 2.044 0 0 1 1.067.137l.101-.247zm-1.186-.156c-.038 0-.081.011-.086.012l.054.261.017-.004.011-.002.004-.001v-.267zm-.08.011-8.679 1.335.04.264 8.679-1.335-.04-.264zm-8.678 1.335a.377.377 0 0 0-.251.164l.219.152c.024-.035.051-.049.071-.052l-.04-.264zm-.251.164a.508.508 0 0 0-.087.294l.267-.001c0-.055.016-.106.04-.141l-.219-.152zm-.087.293v3.535h.267v-3.535h-.267zm0 3.534a.517.517 0 0 0 .085.292l.221-.15a.246.246 0 0 1-.039-.14l-.267-.002zm.085.292a.38.38 0 0 0 .246.166l.046-.263a.117.117 0 0 1-.071-.053l-.221.15zm.245.166 7.213 1.26.046-.263-7.213-1.26-.046.263zm7.106 1.101-.024.113.261.056.024-.113-.261-.056zm.012.047-.715.715.189.188.715-.715-.189-.189zm-.714.715a.472.472 0 0 0-.123.228l.26.06a.206.206 0 0 1 .052-.1l-.188-.189zm-.123.228a.544.544 0 0 0 .005.263l.257-.07a.272.272 0 0 1-.002-.133l-.26-.06zm.004.263c.015.055.049.11.071.142l.032.045.01.013.003.004.001.001.104-.083.104-.083-.002-.002-.007-.01-.024-.034a.267.267 0 0 1-.035-.064l-.257.07zm.132.223a.354.354 0 0 0 .238.095v-.267a.084.084 0 0 1-.058-.026l-.179.197zm.238.095a.137.137 0 0 0 .097-.04c.012-.011.021-.023.027-.031a.33.33 0 0 0 .032-.055c.02-.039.044-.092.071-.151.052-.12.117-.28.18-.439s.126-.32.176-.443a5.086 5.086 0 0 1 .081-.19l.003-.006-.003.004a.072.072 0 0 1-.012.015l-.189-.188a.176.176 0 0 0-.026.034l-.012.022-.024.053c-.018.04-.04.095-.065.157l-.176.444c-.063.158-.126.315-.177.431a2.649 2.649 0 0 1-.062.134l-.014.025c-.001.002.002-.004.009-.01.001-.001.032-.032.084-.032l.001.267zm.427-1.458-.228 1.053.261.056.228-1.053-.261-.056zm-.228 1.054-1.056 4.945.261.056 1.056-4.945-.261-.056zm-1.056 4.944a.538.538 0 0 0-.006.196l.264-.04a.28.28 0 0 1 .003-.1l-.261-.056zm-.005.196c.01.065.032.128.065.183l.229-.137a.241.241 0 0 1-.03-.087l-.264.04zm.065.184a.4.4 0 0 0 .133.138l.142-.225a.15.15 0 0 1-.046-.05l-.229.137zm.132.138a.341.341 0 0 0 .184.054v-.267a.087.087 0 0 1-.042-.013l-.142.225zm.184.054h1.601v-.267H26.37v.267zm1.602 0a.341.341 0 0 0 .209-.072l-.16-.213a.085.085 0 0 1-.049.018v.267zm.209-.072a.436.436 0 0 0 .136-.176l-.244-.106a.177.177 0 0 1-.051.069l.16.213zm.136-.176 3.411-7.866-.245-.106-3.411 7.866.245.106zm3.415-7.877.003-.01-.253-.083-.003.01.254.083zm-.003.005a4.358 4.358 0 0 0 .403-1.852h-.267a4.092 4.092 0 0 1-.377 1.738l.241.114zm-.373-1.852c-.001.648-.181 1.271-.504 1.76l.222.147c.355-.537.548-1.212.548-1.907h-.267zm-.504 1.76c-.323.489-.766.809-1.244.914l.057.26c.557-.123 1.055-.49 1.41-1.027l-.222-.147zm-1.241.913-.054.011.051.262.054-.011-.051-.262zm-.051.01-.064.011.044.263.064-.011-.044-.263zm-.058.01-.078.01.033.265.078-.01-.033-.264zm-.073.009-.048.004.022.266.048-.004-.022-.266zm-.037.004c-.027 0-.053.002-.074.003l-.057.003v.267c.027 0 .053-.002.074-.003l.057-.003v-.267zm-.131.006c-.046 0-.095 0-.136-.006l-.037.264c.063.009.131.008.173.008v-.267zm-.155-.008h-.036v.267h.036v-.267zm-.023.001a1.292 1.292 0 0 1-.139-.02l-.051.262c.055.011.11.018.165.024l.025-.265zm-.137-.02a1.325 1.325 0 0 1-.094-.022l-.07.257c.037.01.074.018.108.025l.056-.261zm-.095-.022-.018-.005-.068.258.018.005.068-.258zm-.015-.004-.086-.025-.075.256.086.025.075-.256zm-.082-.024-.02-.007-.084.253.02.006.083-.253zm-.019-.006c-.029-.01-.055-.018-.079-.028l-.098.248c.032.013.064.024.094.034l.084-.253zm-.129-.038H28.6v.267h.006v-.267zm.047.011-.011-.005-.104.245.012.005.104-.245zm-.013-.006a2.177 2.177 0 0 1-.085-.037l-.112.242c.032.015.065.029.096.041l.1-.247zm-.084-.036-.01-.005-.115.24.01.005.115-.241zm-.01-.005-.017-.008-.114.241.017.008.114-.241zm-.015-.007a1.745 1.745 0 0 1-.105-.056l-.132.231c.04.023.08.044.119.063l.119-.239zm-.105-.055-.034-.02-.133.231.034.019.134-.231zm-.031-.018c-.032-.02-.062-.038-.091-.058l-.148.222c.034.023.068.044.1.063l.139-.227zm-.09-.057c-.04-.028-.08-.055-.117-.084l-.163.211c.043.033.087.064.13.093l.149-.221zm-.117-.083a2.141 2.141 0 0 1-.149-.129l-.182.195c.053.049.108.099.168.144l.163-.211zm-.148-.128-.034-.033-.183.194.034.032.183-.194zm-.033-.032-.064-.062-.186.191.064.062.186-.191zm-.06-.058-.026-.027-.193.184.025.027.194-.184zm-.023-.024a2.722 2.722 0 0 1-.182-.226l-.217.155c.063.088.13.171.2.249l.198-.179zm-.185-.23-.02-.028-.221.15a.65.65 0 0 0 .031.042l.21-.164zm-.02-.028-.048-.071-.221.149.049.071.221-.15zm-.047-.068-.032-.049-.223.146.032.049.223-.146zm-.03-.046a1.973 1.973 0 0 1-.04-.065l-.23.135.042.068.228-.139zm-.04-.065-.037-.066-.233.13.04.071.23-.135zm-.037-.065-.029-.053-.233.129.029.053.233-.129zm-.028-.05c-.024-.045-.042-.077-.059-.118l-.246.103c.023.054.048.1.069.139l.236-.124zm-.062-.127-.005-.012-.249.096.016.037.238-.121zm-.009-.02-.05-.112-.245.104.053.121.242-.113zm-.049-.11-.012-.03-.248.1.012.03.247-.1zm-.012-.03-.045-.118-.25.094.047.123.248-.099zm-.036-.07a.157.157 0 0 0-.013-.063l-.005-.011v.001l-.248.097a.123.123 0 0 0 .005.013l.001.002-.004-.011a.091.091 0 0 1-.003-.027h.267zm-.016-.068c-.016-.047-.032-.093-.045-.14l-.256.077c.015.051.032.101.049.15l.252-.087zm-.045-.14a3.226 3.226 0 0 1-.076-.312l-.262.05a3.4 3.4 0 0 0 .082.338l.256-.076zm-.074-.287v-.005h-.267v.005h.267zm-.002-.03a3.324 3.324 0 0 1-.024-.144l-.264.04c.008.052.016.103.026.155l.262-.05zm-.023-.124c0-.018-.003-.033-.004-.039l-.001-.005v-.003c0-.001 0-.001 0 0l-.265.032.002.016.001.005.001.003v-.008h.267zm-.006-.049-.015-.124-.265.029.016.129.264-.034zm-.014-.11c0-.016-.002-.03-.003-.037l-.001-.008v-.002l-.266.012.002.019.001.012.001.004h.267zm-.004-.053a1.542 1.542 0 0 1-.008-.116l-.266.012c.002.044.005.087.009.129l.265-.025zm-.009-.111h-.267.267zm0-.042-.002-.085-.002-.077h-.267a2.255 2.255 0 0 0 .004.162h.267zm-.003-.162h-.267.267zm0-.141v-.038h-.267v.038h.267zm0-.038c0-.027.003-.052.006-.092l-.266-.02c-.002.027-.007.072-.007.112h.267zm.006-.103v-.011l-.001.004-.259-.063c-.008.031-.007.06-.007.071h.267zm.003-.026a2.76 2.76 0 0 1 .01-.099l-.265-.03-.01.104.265.025zm.01-.114v.007-.003l.001-.005.002-.016-.265-.032c0-.001 0-.001 0 0l-.001.003-.001.005c-.001.007-.004.022-.004.04h.267zm.004-.017c.004-.035.009-.07.015-.104l-.263-.042-.016.114.265.032zm.014-.1.005-.033-.265-.027-.002.011.262.05zm.003-.024.022-.118-.261-.053c-.009.043-.016.085-.023.126l.263.045zm.025-.145v-.006h-.267v.006h.267zm-.003.021c.092-.451.272-.862.521-1.195l-.214-.159a3.28 3.28 0 0 0-.568 1.301l.261.053zm.521-1.195c.248-.333.556-.577.893-.711l-.099-.248a2.366 2.366 0 0 0-1.007.799l.214.159zm.891-.711a1.48 1.48 0 0 1 .086-.031l-.083-.253c-.032.01-.067.023-.101.036l.097.248zm.087-.03.03-.01-.083-.253-.03.01.083.253zm.031-.01.058-.018-.074-.256-.069.021.085.253zm.054-.017.051-.013-.066-.258-.051.013.066.258zm.047-.012.046-.011-.059-.26-.047.011.059.26zm.046-.011.064-.014-.056-.261-.064.014.057.261zm.058-.012a1.77 1.77 0 0 1 .281-.026l-.003-.267a1.952 1.952 0 0 0-.324.03l.046.263zm.28-.026h.006v-.267h-.006v.267zm.007 0c.543-.002 1.074.272 1.472.777l.209-.165c-.44-.559-1.044-.881-1.682-.879l.001.267zm1.471.777c.398.506.627 1.198.628 1.927l.267-.001c-.002-.78-.246-1.533-.685-2.091l-.209.165zm-10.089 3.374V15.31h-.267v2.966h.267zm-.113-2.834 6.905-1.062-.04-.264-6.905 1.062.04.264zm6.784-1.281a3.9 3.9 0 0 0-.83 1.767l.261.052c.128-.636.397-1.208.771-1.646l-.203-.173zm-.83 1.766-.004.018.261.056.004-.018-.261-.056zm-.004.02c-.01.05-.019.101-.027.151l.263.044.026-.144-.262-.051zm-.03.173v-.003l-.002.008a.325.325 0 0 0-.003.014l.263.046.001-.007.002-.013c0-.005.004-.026.004-.045h-.267zm-.004.023c-.006.04-.013.083-.019.134l.265.029c.005-.044.011-.079.017-.123l-.264-.04zm-.02.148c0 .013-.002.016-.006.053l.265.03c.001-.008.008-.051.008-.083h-.267zm-.006.054-.011.11.266.024.011-.105-.265-.028zm-.011.11c-.004.039-.005.073-.007.105l.266.015.006-.096-.266-.024zm-.007.105-.005.086.267.006c0-.026.002-.037.004-.077l-.266-.015zm-.004.088-.002.088a2.95 2.95 0 0 0-.002.096h.267l.002-.088a2.95 2.95 0 0 0 .002-.096h-.267zm-.004.184c0 .061 0 .129.004.196l.266-.017a3.434 3.434 0 0 1-.004-.179h-.267zm.004.188h.267-.267zm0 .041c0 .057.006.114.01.16l.265-.024a1.406 1.406 0 0 1-.009-.136h-.267zm.01.161.004.039.265-.026-.004-.039-.265.026zm.004.038c.004.051.01.102.016.153l.264-.035a2.993 2.993 0 0 1-.015-.143l-.266.024zm.015.136c0 .018.003.032.004.041l.003.015.263-.044-.002-.013-.001-.006v.007h-.267zm.006.051c.007.053.015.105.024.156l.263-.045a2.997 2.997 0 0 1-.022-.146l-.264.035zm.024.159.006.03.262-.05-.006-.03-.262.05zm.006.028c.009.053.02.106.031.158l.261-.056a7.726 7.726 0 0 1-.029-.148l-.263.046zm.03.157.006.028.261-.054-.006-.028-.261.054zm.007.03c.012.051.024.104.038.155l.257-.069c-.013-.047-.024-.096-.036-.145l-.26.059zm.039.159.004.016.261-.054-.01-.039-.255.077zm.006.024.044.15.255-.077a5.462 5.462 0 0 1-.042-.143l-.257.071zm.046.156.008.025.254-.083-.004-.012-.007-.02-.251.089zm.007.025.049.144.251-.09-.047-.136-.254.082zm.049.144.004.013.008.021.248-.097-.01-.028-.251.091zm.012.032.053.136.247-.1-.05-.129-.25.093zm.052.135.016.04.244-.109-.012-.028-.248.097zm.015.036.056.127.245-.105c-.023-.054-.036-.078-.054-.122l-.247.1zm.056.129.017.036.243-.11-.016-.036-.243.11zm.018.039.074.148.236-.124c-.024-.046-.048-.092-.07-.138l-.241.115zm.074.148c.027.05.044.08.07.12l.223-.147a.99.99 0 0 1-.057-.098l-.236.124zm.066.111.017.031.233-.13-.017-.031-.233.13zm.018.033c.023.04.048.079.07.114l.226-.142c-.024-.038-.045-.071-.065-.106l-.231.134zm.07.114.016.025.226-.142-.016-.025-.225.142zm.017.026c.025.039.051.077.076.112l.217-.154c-.024-.034-.048-.068-.07-.102l-.224.144zm.075.112.006.009.013.018.21-.164-.002-.002-.003-.005-.005-.008-.219.152zm.016.022c.027.038.055.075.083.11l.21-.164-.076-.101-.217.155zm.081.108.013.017.214-.159-.013-.017-.214.16zm.015.021c.029.036.058.072.089.108l.202-.174a3.998 3.998 0 0 1-.083-.1l-.208.167zm.092.111.008.009.196-.181-.008-.009-.196.181zm.005.005c.02.024.045.054.071.081l.194-.183c-.02-.021-.039-.044-.063-.072l-.203.173zm.191-.142-6.988-1.225-.046.263 6.988 1.225.046-.263zm.309 6.51h-1.122v.267h1.122v-.267zm-.991.161 1.293-6.057-.261-.056-1.293 6.057.261.056zm1.297-6.084-.001.015-.001.004v-.001l.001-.004a.096.096 0 0 0 .003-.015l-.263-.046.001-.004v.002l-.001.005a.152.152 0 0 0-.006.043h.267zm-.198.09.032.02.137-.229-.032-.019-.137.228zm.028.017.09.056.139-.228c-.031-.019-.057-.034-.083-.052l-.146.223zm.095.059.046.026.13-.233-.046-.026-.13.233zm.046.025c.041.023.083.045.125.066l.116-.24c-.038-.018-.074-.038-.11-.058l-.131.232zm.122.065.016.008.121-.237-.016-.008-.121.237zm.019.009.01.005.115-.24-.01-.005-.115.24zm.009.004.015.007.119-.239-.015-.007-.119.239zm.016.009.015.007.115-.24-.015-.007-.115.24zm.019.009.059.026.107-.244-.059-.026-.107.244zm.063.027.034.014.1-.248-.034-.014-.1.248zm.036.015.023.009.097-.248-.023-.009-.097.248zm.024.009.047.018.095-.249-.047-.018-.095.249zm.05.019.057.02.09-.251-.057-.02-.09.251zm.06.021.03.01.083-.253-.03-.01-.083.253zm.033.011.022.006.077-.255-.022-.007-.077.255zm.017.005c.029.01.057.017.082.024l.068-.258a.646.646 0 0 1-.065-.019l-.085.253zm.116.028h.007v-.267h-.007v.267zm-.029-.004.024.006.071-.257-.024-.007-.071.257zm.06.011h.007v-.267h-.007v.267zm-.027-.005c.041.011.082.02.119.027l.056-.261a2.182 2.182 0 0 1-.108-.025l-.067.258zm.147.031h.003v-.267h-.003v.267zm.003 0h.023v-.267h-.023v.267zm-.003-.003c.035.007.072.013.109.018l.032-.265a1.535 1.535 0 0 1-.09-.015l-.051.262zm.109.018.044.006.034-.264-.044-.006-.034.264zm.048.006.086.008.025-.265-.086-.008-.025.266zm.099.009h.041v-.267h-.041v.267zm.041 0 .057.002.071.002v-.267l-.058-.002a1.505 1.505 0 0 0-.07-.002v.267zm.127.004c.042 0 .104 0 .16-.006l-.027-.265c-.04.004-.088.004-.133.004v.267zm.147-.005c.032 0 .08-.008.083-.008l-.028-.265c-.042.005-.04.007-.055.007v.267zm.083-.008.028-.001c.016-.001.041-.002.069-.011l-.077-.255h-.005l-.017.001-.027.002.028.265zm.097-.012.005-.001.018-.003c.007-.001.037-.004.057-.008l-.045-.263-.046.006a.445.445 0 0 0-.066.013l.077.255zm.083-.012.04-.007-.049-.262-.039.007.048.262zm.041-.008c.042-.008.083-.018.124-.028l-.064-.259-.114.026.053.261zm.093-.024h.01v-.267h-.01v.267zm.043-.004c.227-.058.447-.151.656-.276l-.138-.22g8a2.218 2.218 0 0 1-.584.247l.066.258zm.465-.444-2.61 6.032.245.106 2.61-6.031-.245-.106z"/></symbol><symbol id="cleaning" viewBox="0 0 32 32"><path d="M11.864 3.14a.498.498 0 0 1 .5-.5 2.035 2.035 0 0 1 2.032 2.032v7.922a.5.5 0 0 1-1 0V4.672a1.033 1.033 0 0 0-1.031-1.031.498.498 0 0 1-.5-.5zm3.594 2.688a1 1 0 0 1 1 1v12.945c.001.471-.184.922-.513 1.258-.862.882-.799 1.839-.799 2.422a.5.5 0 1 0 .999 0c0-.5-.068-1.129.513-1.723a2.783 2.783 0 0 0 .8-1.957V6.828a2 2 0 0 0-2-2 .498.498 0 0 0-.5.5.498.498 0 0 0 .5.5zm.219 18.922H6.166a.5.5 0 0 0 0 1h9.511a.85.85 0 0 1 .844.844v.312a.846.846 0 0 1-.844.843H3.802a.842.842 0 0 1-.844-.843v-.312c0-.224.089-.438.248-.596s.373-.247.596-.248a.498.498 0 0 0 .5-.5v-1.865c0-1.084-.591-1.5-1.289-1.996a2.07 2.07 0 0 1-.867-1.68v-6.678a1.03 1.03 0 1 1 2.062 0v3.118a.498.498 0 0 0 .5.5.5.5 0 0 0 .5-.5V4.672a1.03 1.03 0 1 1 2.062 0v8.469a.498.498 0 0 0 .5.5.5.5 0 0 0 .5-.5V3.032a1.033 1.033 0 0 1 1.76-.729c.193.193.302.456.302.729v10.109a.498.498 0 0 0 .5.5.5.5 0 0 0 .5-.5V3.032a2.03 2.03 0 0 0-3.408-1.488 2.034 2.034 0 0 0-.652 1.381c-1.351-.799-3.066.179-3.066 1.748v6.611c-1.349-.799-3.063.181-3.063 1.75v6.676a3.064 3.064 0 0 0 1.289 2.495c.688.488.868.632.868 1.181v1.434a1.845 1.845 0 0 0-1.344 1.774v.312A1.845 1.845 0 0 0 3.3 28.68v1.819a.498.498 0 0 0 .5.5.498.498 0 0 0 .5-.5v-1.75h10.844v1.75a.498.498 0 0 0 .853.354.502.502 0 0 0 .146-.354v-1.812a1.845 1.845 0 0 0 1.375-1.783v-.312a1.849 1.849 0 0 0-1.844-1.842z"/><path fill="none" stroke="#082242" stroke-linejoin="round" stroke-width="1.12" d="M26.208 11.494h-2.329v2.329h2.329v-2.329zM29.119 8.291h1.456v1.456h-1.456M24.169 11.494v-.874a.58.58 0 0 0-.583-.583h-2.038a2.038 2.038 0 0 1 2.038-2.038h5.532v2.038h-2.621a.58.58 0 0 0-.583.583v.874M26.498 13.824a.58.58 0 0 1 .583.583v2.038c0 1.144.672 2.067 1.494 2.038a1.433 1.433 0 0 1 1.015.43 1.425 1.425 0 0 1 .403 1.025v3.785a1.168 1.168 0 0 1-1.165 1.165h-7.571a1.168 1.168 0 0 1-1.165-1.165v-3.785a1.414 1.414 0 0 1 .404-1.025 1.42 1.42 0 0 1 1.015-.43c.821.029 1.494-.894 1.494-2.038v-2.038a.58.58 0 0 1 .583-.583H26.5zM29.7 13.824c-.964 0-1.747-1.305-1.747-2.912" style="stroke:var(--color1, currentColor)"/></symbol><symbol id="dental" viewBox="0 0 32 32"><path d="M11.864 3.14a.498.498 0 0 1 .5-.5 2.035 2.035 0 0 1 2.032 2.032v7.922a.5.5 0 0 1-1 0V4.672a1.033 1.033 0 0 0-1.031-1.031.498.498 0 0 1-.5-.5zm3.594 2.688a1 1 0 0 1 1 1v12.945c.001.471-.184.922-.513 1.258-.862.882-.799 1.839-.799 2.422a.5.5 0 1 0 .999 0c0-.5-.068-1.129.513-1.723a2.783 2.783 0 0 0 .8-1.957V6.828a2 2 0 0 0-2-2 .498.498 0 0 0-.5.5.498.498 0 0 0 .5.5zm.219 18.922H6.166a.5.5 0 0 0 0 1h9.511a.85.85 0 0 1 .844.844v.312a.846.846 0 0 1-.844.843H3.802a.842.842 0 0 1-.844-.843v-.312c0-.224.089-.438.248-.596s.373-.247.596-.248a.498.498 0 0 0 .5-.5v-1.865c0-1.084-.591-1.5-1.289-1.996a2.07 2.07 0 0 1-.867-1.68v-6.678a1.03 1.03 0 1 1 2.062 0v3.118a.498.498 0 0 0 .5.5.5.5 0 0 0 .5-.5V4.672a1.03 1.03 0 1 1 2.062 0v8.469a.498.498 0 0 0 .5.5.5.5 0 0 0 .5-.5V3.032a1.033 1.033 0 0 1 1.76-.729c.193.193.302.456.302.729v10.109a.498.498 0 0 0 .5.5.5.5 0 0 0 .5-.5V3.032a2.03 2.03 0 0 0-3.408-1.488 2.034 2.034 0 0 0-.652 1.381c-1.351-.799-3.066.179-3.066 1.748v6.611c-1.349-.799-3.063.181-3.063 1.75v6.676a3.064 3.064 0 0 0 1.289 2.495c.688.488.868.632.868 1.181v1.434a1.845 1.845 0 0 0-1.344 1.774v.312A1.845 1.845 0 0 0 3.3 28.68v1.819a.498.498 0 0 0 .5.5.498.498 0 0 0 .5-.5v-1.75h10.844v1.75a.498.498 0 0 0 .853.354.502.502 0 0 0 .146-.354v-1.812a1.845 1.845 0 0 0 1.375-1.783v-.312a1.849 1.849 0 0 0-1.844-1.842z"/><path fill="none" stroke="#082242" stroke-linecap="round" stroke-linejoin="round" stroke-width="1.12" d="M25.375 12.406c-.219.126-.462.192-.709.192s-.49-.066-.709-.192c-1.422-.814-4.491-1.922-4.491 3.657 0 3.742 1.823 9.538 3.12 9.538s.781-5.777 2.08-5.777.779 5.777 2.08 5.777 3.12-5.795 3.12-9.538c0-5.578-3.069-4.47-4.491-3.657z" style="stroke:var(--color1, currentColor)"/></symbol><symbol id="economic" viewBox="0 0 32 32"><path d="M11.864 3.14a.498.498 0 0 1 .5-.5 2.035 2.035 0 0 1 2.032 2.032v7.922a.5.5 0 0 1-1 0V4.672a1.033 1.033 0 0 0-1.031-1.031.498.498 0 0 1-.5-.5zm3.594 2.688a1 1 0 0 1 1 1v12.945c.001.471-.184.922-.513 1.258-.862.882-.799 1.839-.799 2.422a.5.5 0 1 0 .999 0c0-.5-.068-1.129.513-1.723a2.783 2.783 0 0 0 .8-1.957V6.828a2 2 0 0 0-2-2 .498.498 0 0 0-.5.5.498.498 0 0 0 .5.5zm.219 18.922H6.166a.5.5 0 0 0 0 1h9.511a.85.85 0 0 1 .844.844v.312a.846.846 0 0 1-.844.843H3.802a.842.842 0 0 1-.844-.843v-.312c0-.224.089-.438.248-.596s.373-.247.596-.248a.498.498 0 0 0 .5-.5v-1.865c0-1.084-.591-1.5-1.289-1.996a2.07 2.07 0 0 1-.867-1.68v-6.678a1.03 1.03 0 1 1 2.062 0v3.118a.498.498 0 0 0 .5.5.5.5 0 0 0 .5-.5V4.672a1.03 1.03 0 1 1 2.062 0v8.469a.498.498 0 0 0 .5.5.5.5 0 0 0 .5-.5V3.032a1.033 1.033 0 0 1 1.76-.729c.193.193.302.456.302.729v10.109a.498.498 0 0 0 .5.5.5.5 0 0 0 .5-.5V3.032a2.03 2.03 0 0 0-3.408-1.488 2.034 2.034 0 0 0-.652 1.381c-1.351-.799-3.066.179-3.066 1.748v6.611c-1.349-.799-3.063.181-3.063 1.75v6.676a3.064 3.064 0 0 0 1.289 2.495c.688.488.868.632.868 1.181v1.434a1.845 1.845 0 0 0-1.344 1.774v.312A1.845 1.845 0 0 0 3.3 28.68v1.819a.498.498 0 0 0 .5.5.498.498 0 0 0 .5-.5v-1.75h10.844v1.75a.498.498 0 0 0 .853.354.502.502 0 0 0 .146-.354v-1.812a1.845 1.845 0 0 0 1.375-1.783v-.312a1.849 1.849 0 0 0-1.844-1.842zM30 25.405h.067v-5.684c0-.187-.141-.347-.326-.347s-.326.161-.326.347v4.989h-2.459v-3.651h-3.244v3.651h-2.459v-5.27c0-.187-.141-.348-.326-.348s-.326.161-.326.348v5.965h3.763v-3.651h1.941v3.651h3.696z"/><path d="M31.533 19.398a.366.366 0 0 0-.01-.488l-6.19-6.414-6.19 6.415a.366.366 0 0 0-.01.488.312.312 0 0 0 .464.011l5.736-5.944 5.736 5.944a.314.314 0 0 0 .464-.011zm0 0zm0 0zm-.05-.044a.248.248 0 0 1-.187.087.247.247 0 0 1-.179-.078H19.549c-.103.107-.268.103-.367-.009s-.095-.29.008-.397l6.142-6.365.048.046-.002.002 6.096 6.317a.298.298 0 0 1 .008.397zM29.548 13.543v-.067h-2.141c-.185 0-.326.161-.326.347s.141.348.326.348h1.489v1.619c0 .187.141.348.326.348s.326-.161.326-.348v-2.247z"/></symbol><symbol id="examination" viewBox="0 0 35 32"><path fill="none" stroke="#082242" stroke-linecap="round" stroke-linejoin="round" stroke-miterlimit="10" stroke-width=".8" d="M32 15.528a24.656 24.656 0 0 1-9.6 0l.96-3.53a9.638 9.638 0 0 1 7.68 0l.96 3.53zM30.681 18.061c.289-.375.577-.535.866-.428.433.214.577 1.07.337 1.926s-.818 1.445-1.251 1.231c0 0-.048 0-.048-.053-.385 1.873-1.732 3.264-3.368 3.264s-3.032-1.391-3.369-3.264l-.048.053c-.433.214-1.011-.375-1.251-1.231-.289-.856-.144-1.712.337-1.926.289-.107.626.053.866.428M27.2 12.8v1.6M25.6 14.4h3.2" style="stroke:var(--color1, currentColor)"/><path d="M13.121 2.278a.539.539 0 0 1 .538-.533c.579.001 1.134.229 1.543.635s.64.957.64 1.532v8.452a.539.539 0 0 1-1.075 0V3.912c0-.292-.117-.571-.325-.778s-.49-.322-.783-.323c-.142 0-.279-.056-.38-.156s-.158-.236-.158-.377zm3.862 2.867c.285 0 .558.112.76.312s.315.471.315.754v13.811a1.9 1.9 0 0 1-.552 1.342c-.926.942-.859 1.962-.859 2.584a.535.535 0 0 0 .537.533c.142 0 .279-.056.38-.156s.158-.236.158-.377c0-.533-.073-1.205.551-1.838a2.956 2.956 0 0 0 .859-2.088V6.211c0-.566-.227-1.109-.63-1.509s-.95-.625-1.52-.625a.53.53 0 0 0-.38.91c.101.1.237.156.38.156zm.235 20.187H6.996a.53.53 0 0 0-.38.91c.1.1.237.156.38.156h10.222c.24 0 .471.095.641.264s.266.398.266.636v.333a.908.908 0 0 1-.907.9H4.455c-.24 0-.471-.095-.641-.264s-.266-.397-.266-.636v-.333a.908.908 0 0 1 .907-.9.53.53 0 0 0 .537-.533v-1.99c0-1.156-.635-1.6-1.385-2.129a2.19 2.19 0 0 1-.932-1.793v-7.124c0-.292.117-.572.325-.778a1.115 1.115 0 0 1 1.568 0c.208.206.325.486.325.778v3.326a.535.535 0 0 0 .537.533.53.53 0 0 0 .537-.533V3.911c0-.292.117-.572.325-.778a1.115 1.115 0 0 1 1.568 0c.208.206.325.486.325.778v9.035a.539.539 0 0 0 1.075 0V2.161c0-.292.117-.572.325-.778a1.115 1.115 0 0 1 1.568 0c.208.206.325.486.325.778v10.785a.533.533 0 0 0 .537.533.53.53 0 0 0 .537-.533V2.161c-.002-.564-.224-1.105-.621-1.508A2.194 2.194 0 0 0 8.89.574a2.158 2.158 0 0 0-.7 1.474c-1.452-.853-3.295.191-3.295 1.864v7.053c-1.45-.852-3.292.193-3.292 1.867v7.123c0 .521.126 1.035.367 1.498s.59.862 1.018 1.165c.739.52.932.674.932 1.259v1.53c-.415.117-.781.365-1.042.706s-.402.758-.403 1.187v.333a1.978 1.978 0 0 0 1.445 1.893v1.941a.535.535 0 0 0 .537.533.53.53 0 0 0 .537-.533V29.6h11.655v1.867a.535.535 0 0 0 .537.533c.142 0 .279-.056.38-.156s.158-.236.158-.377v-1.934c.423-.111.798-.358 1.065-.702s.412-.766.413-1.201v-.333c-.001-.521-.21-1.021-.582-1.389s-.875-.575-1.4-.576z"/></symbol><symbol id="food" viewBox="0 0 32 32"><path d="M10.719 3.14a.498.498 0 0 1 .5-.5 2.037 2.037 0 0 1 2.032 2.032v7.922a.498.498 0 0 1-.5.5.498.498 0 0 1-.5-.5V4.672a1.033 1.033 0 0 0-1.031-1.031.498.498 0 0 1-.5-.5zm3.594 2.688a.997.997 0 0 1 1 1v12.945c.001.471-.183.922-.513 1.258-.862.882-.799 1.839-.799 2.422a.5.5 0 1 0 1 0c0-.5-.067-1.129.513-1.723a2.778 2.778 0 0 0 .799-1.957V6.828a2 2 0 0 0-2-2 .498.498 0 0 0-.5.5.498.498 0 0 0 .5.5zm.218 18.922H5.02a.5.5 0 0 0 0 1h9.511a.844.844 0 0 1 .843.844v.312a.842.842 0 0 1-.843.843H2.656a.842.842 0 0 1-.844-.843v-.312c0-.224.089-.438.248-.596s.373-.247.596-.248a.498.498 0 0 0 .5-.5v-1.865c0-1.084-.591-1.5-1.289-1.996A2.07 2.07 0 0 1 1 19.709v-6.678a1.03 1.03 0 1 1 2.062 0v3.118a.498.498 0 0 0 .5.5.498.498 0 0 0 .5-.5V4.672a1.03 1.03 0 1 1 2.062 0v8.469a.498.498 0 0 0 .5.5.5.5 0 0 0 .5-.5V3.032a1.033 1.033 0 0 1 1.76-.729c.193.193.302.456.302.729v10.109a.498.498 0 0 0 .5.5.498.498 0 0 0 .5-.5V3.032a2.03 2.03 0 0 0-3.408-1.488 2.034 2.034 0 0 0-.652 1.381c-1.351-.799-3.066.179-3.066 1.748v6.611c-1.349-.799-3.063.181-3.063 1.75v6.676a3.064 3.064 0 0 0 1.289 2.495c.688.488.868.632.868 1.181v1.434A1.845 1.845 0 0 0 .81 26.594v.312a1.845 1.845 0 0 0 1.344 1.774v1.819a.498.498 0 0 0 .5.5.498.498 0 0 0 .5-.5v-1.75h10.844v1.75a.498.498 0 0 0 .5.5.5.5 0 0 0 .5-.5v-1.812a1.845 1.845 0 0 0 1.375-1.783v-.312a1.849 1.849 0 0 0-1.844-1.842zM28.76 18.722l2.995-2.872-.733-.794-4.095 3.667h1.833zm.673-5.439-.978-.55-4.033 5.989h1.467l3.544-5.439zm-12.1 6.661.061.367c.244 2.628 1.895 5.072 4.278 6.111l.061.244H27.6l.122-.367c2.383-1.1 4.033-3.239 4.278-5.805v-.55H17.333zm9.961 5.5h-5.256c-1.711-.611-2.933-2.444-3.3-4.278h11.978c-.428 1.833-1.711 3.667-3.422 4.278z"/></symbol><symbol id="garden" viewBox="0 0 32 32"><path d="M11.864 3.14a.498.498 0 0 1 .5-.5 2.035 2.035 0 0 1 2.032 2.032v7.922a.5.5 0 0 1-1 0V4.672a1.033 1.033 0 0 0-1.031-1.031.498.498 0 0 1-.5-.5zm3.594 2.688a1 1 0 0 1 1 1v12.945c.001.471-.184.922-.513 1.258-.862.882-.799 1.839-.799 2.422a.5.5 0 1 0 .999 0c0-.5-.068-1.129.513-1.723a2.783 2.783 0 0 0 .8-1.957V6.828a2 2 0 0 0-2-2 .498.498 0 0 0-.5.5.498.498 0 0 0 .5.5zm.219 18.922H6.166a.5.5 0 0 0 0 1h9.511a.85.85 0 0 1 .844.844v.312a.846.846 0 0 1-.844.843H3.802a.842.842 0 0 1-.844-.843v-.312c0-.224.089-.438.248-.596s.373-.247.596-.248a.498.498 0 0 0 .5-.5v-1.865c0-1.084-.591-1.5-1.289-1.996a2.07 2.07 0 0 1-.867-1.68v-6.678a1.03 1.03 0 1 1 2.062 0v3.118a.498.498 0 0 0 .5.5.5.5 0 0 0 .5-.5V4.672a1.03 1.03 0 1 1 2.062 0v8.469a.498.498 0 0 0 .5.5.5.5 0 0 0 .5-.5V3.032a1.033 1.033 0 0 1 1.76-.729c.193.193.302.456.302.729v10.109a.498.498 0 0 0 .5.5.5.5 0 0 0 .5-.5V3.032a2.03 2.03 0 0 0-3.408-1.488 2.034 2.034 0 0 0-.652 1.381c-1.351-.799-3.066.179-3.066 1.748v6.611c-1.349-.799-3.063.181-3.063 1.75v6.676a3.064 3.064 0 0 0 1.289 2.495c.688.488.868.632.868 1.181v1.434a1.845 1.845 0 0 0-1.344 1.774v.312A1.845 1.845 0 0 0 3.3 28.68v1.819a.498.498 0 0 0 .5.5.498.498 0 0 0 .5-.5v-1.75h10.844v1.75a.498.498 0 0 0 .853.354.502.502 0 0 0 .146-.354v-1.812a1.845 1.845 0 0 0 1.375-1.783v-.312a1.849 1.849 0 0 0-1.844-1.842zM28.471 22.639h-.052l-.013.051-.134.538H21.06l-.147-.588h-.45l.021.083 1.189 4.756h5.987l1.21-4.839h-.398zm-.674 1.31-.702 2.808h-4.859l-.702-2.808h6.263z"/><path d="m28.095 23.31.021-.083h-6.899l.021.083.16.639h6.538l.16-.639z"/><path d="M19.96 21.463h-.085l.021.083.588 2.353.012.051h8.34l.012-.051.609-2.436H19.96zm8.573.721-.261 1.043H21.06l-.261-1.043h7.734zM25.026 13.294v-.067h-.722v.193l.051.012c.073.017.147.028.222.033l.088.094.049-.053.039-.042a1.19 1.19 0 0 0 .222-.033l.051-.012v-.126z"/><path d="m24.714 13.799-.049-.053-.049.053-.312.336v7.461h.722v-7.461l-.018-.019-.294-.317z"/><path d="M24.666 10.757a1.32 1.32 0 0 0-1.3 1.176 1.325 1.325 0 0 0 1.006 1.435c.078.019.157.03.237.032l.057.062.057-.062a1.324 1.324 0 0 0-.057-2.646v.003zm0 .589a.73.73 0 0 1 .679.454.736.736 0 1 1-.679-.455zm0-.589a1.32 1.32 0 0 0-1.3 1.176 1.325 1.325 0 0 0 1.006 1.435c.078.019.157.03.237.032l.057.062.057-.062a1.324 1.324 0 0 0-.057-2.646v.003zm0 .589a.73.73 0 0 1 .679.454.736.736 0 1 1-.679-.455zm0-.589a1.32 1.32 0 0 0-1.3 1.176 1.325 1.325 0 0 0 1.006 1.435c.078.019.157.03.237.032l.057.062.057-.062a1.324 1.324 0 0 0-.057-2.646v.003zm0 .589a.73.73 0 0 1 .679.454.736.736 0 1 1-.679-.455zm0-.589a1.32 1.32 0 0 0-1.3 1.176 1.325 1.325 0 0 0 1.006 1.435c.078.019.157.03.237.032l.057.062.057-.062a1.324 1.324 0 0 0-.057-2.646v.003zm0 .589a.73.73 0 0 1 .679.454.736.736 0 1 1-.679-.455zm3.309.241a1.552 1.552 0 0 0-1.761-1.537 1.549 1.549 0 0 0-3.094 0 1.554 1.554 0 0 0-1.638 2.146c.135.316.37.578.669.746a1.518 1.518 0 0 0-.173.713 1.528 1.528 0 0 0 .718 1.311 1.548 1.548 0 0 0 1.45.11c.197-.086.374-.211.52-.368a1.551 1.551 0 0 0 2.514-1.764 1.556 1.556 0 0 0 .794-1.358zm-1.082.841-.497.278.262.506a.955.955 0 0 1-.059.984.965.965 0 0 1-1.503.111l-.137-.147-.294-.317-.431.464a.967.967 0 0 1-1.121.216.966.966 0 0 1-.536-1.017.899.899 0 0 1 .096-.294l.263-.506-.498-.279a.966.966 0 0 1-.462-1.084.964.964 0 0 1 1.063-.711l.63.088.035-.635a.963.963 0 0 1 1.923 0l.036.634.629-.085a.976.976 0 0 1 .544.084h.005a.967.967 0 0 1 .546.868.958.958 0 0 1-.494.841zm-2.227-1.671a1.32 1.32 0 0 0-1.3 1.176 1.325 1.325 0 0 0 1.006 1.435c.078.019.157.03.237.032l.057.062.057-.062a1.324 1.324 0 0 0-.057-2.646v.003zm0 .589a.73.73 0 0 1 .679.454.736.736 0 1 1-.679-.455zm0-.589a1.32 1.32 0 0 0-1.3 1.176 1.325 1.325 0 0 0 1.006 1.435c.078.019.157.03.237.032l.057.062.057-.062a1.324 1.324 0 0 0-.057-2.646v.003zm0 .589a.73.73 0 0 1 .679.454.736.736 0 1 1-.679-.455zm0-.589a1.32 1.32 0 0 0-1.3 1.176 1.325 1.325 0 0 0 1.006 1.435c.078.019.157.03.237.032l.057.062.057-.062a1.324 1.324 0 0 0-.057-2.646v.003zm0 .589a.73.73 0 0 1 .679.454.736.736 0 1 1-.679-.455z"/><path fill="none" stroke="#082242" stroke-width=".32" d="M24.666 10.757a1.32 1.32 0 0 0-1.3 1.176 1.325 1.325 0 0 0 1.006 1.435c.078.019.157.03.237.032l.057.062.057-.062a1.324 1.324 0 0 0-.057-2.646v.003zm0 .589a.73.73 0 0 1 .679.454.736.736 0 1 1-.679-.455zm0-.589a1.32 1.32 0 0 0-1.3 1.176 1.325 1.325 0 0 0 1.006 1.435c.078.019.157.03.237.032l.057.062.057-.062a1.324 1.324 0 0 0-.057-2.646v.003zm0 .589a.73.73 0 0 1 .679.454.736.736 0 1 1-.679-.455zm0-.589a1.32 1.32 0 0 0-1.3 1.176 1.325 1.325 0 0 0 1.006 1.435c.078.019.157.03.237.032l.057.062.057-.062a1.324 1.324 0 0 0-.057-2.646v.003zm0 .589a.73.73 0 0 1 .679.454.736.736 0 1 1-.679-.455zm0-.589a1.32 1.32 0 0 0-1.3 1.176 1.325 1.325 0 0 0 1.006 1.435c.078.019.157.03.237.032l.057.062.057-.062a1.324 1.324 0 0 0-.057-2.646v.003zm0 .589a.73.73 0 0 1 .679.454.736.736 0 1 1-.679-.455zm3.309.241a1.552 1.552 0 0 0-1.761-1.537 1.549 1.549 0 0 0-3.094 0 1.554 1.554 0 0 0-1.638 2.146c.135.316.37.578.669.746a1.518 1.518 0 0 0-.173.713 1.528 1.528 0 0 0 .718 1.311 1.548 1.548 0 0 0 1.45.11c.197-.086.374-.211.52-.368a1.551 1.551 0 0 0 2.514-1.764 1.556 1.556 0 0 0 .794-1.358zm-1.082.841-.497.278.262.506a.955.955 0 0 1-.059.984.965.965 0 0 1-1.503.111l-.137-.147-.294-.317-.431.464a.967.967 0 0 1-1.121.216.966.966 0 0 1-.536-1.017.899.899 0 0 1 .096-.294l.263-.506-.498-.279a.966.966 0 0 1-.462-1.084.964.964 0 0 1 1.063-.711l.63.088.035-.635a.963.963 0 0 1 1.923 0l.036.634.629-.085a.976.976 0 0 1 .544.084h.005a.967.967 0 0 1 .546.868.958.958 0 0 1-.494.841zm-2.227-1.671a1.32 1.32 0 0 0-1.3 1.176 1.325 1.325 0 0 0 1.006 1.435c.078.019.157.03.237.032l.057.062.057-.062a1.324 1.324 0 0 0-.057-2.646v.003zm0 .589a.73.73 0 0 1 .679.454.736.736 0 1 1-.679-.455zm0-.589a1.32 1.32 0 0 0-1.3 1.176 1.325 1.325 0 0 0 1.006 1.435c.078.019.157.03.237.032l.057.062.057-.062a1.324 1.324 0 0 0-.057-2.646v.003zm0 .589a.73.73 0 0 1 .679.454.736.736 0 1 1-.679-.455zm0-.589a1.32 1.32 0 0 0-1.3 1.176 1.325 1.325 0 0 0 1.006 1.435c.078.019.157.03.237.032l.057.062.057-.062a1.324 1.324 0 0 0-.057-2.646v.003zm0 .589a.73.73 0 0 1 .679.454.736.736 0 1 1-.679-.455z" style="stroke:var(--color1, #082242)"/><path d="m24.558 13.249.1.106.01.011.381-.411c.074-.079.159-.146.254-.199l.441-.247-.233-.448a.996.996 0 0 1-.113-.413l-.84 1.602zm0 0-.273-.294a1.06 1.06 0 0 0-.253-.199l-.441-.247.233-.448c.067-.128.105-.269.113-.413l.621 1.602zm0 0zm.865-2.173-.057.008-.003-.05.059.042zm0 0 .01.008-.001-.009-.01.001zm0 0a.792.792 0 0 0-.059-.042l.059.042zm-.059-.042-.001-.017-.02.003.021.014zm-.64 2.369-.003-.067a.826.826 0 0 0 .07-.006l-.067.072zm0 0 .049.045.05-.054a1.654 1.654 0 0 1-.099.009zm-.788-1.757zm0 0zm.032-.562zm0 0 .002-.038-.07.052.024-.019.043.006zm.558.074a.952.952 0 0 0 .282 0h-.282zm0 0zm.282 0h.001-.001zm-.918-.219-.047-.006-.002.042a1.392 1.392 0 0 0 .517 2.459c.072.017.145.028.219.033l-.011.012.146-.007.06.002-.005-.005c.071-.006.142-.017.211-.035a1.387 1.387 0 0 0 .516-2.47l-.002-.03-.033.004a1.392 1.392 0 0 0-.791-.249h-.067v.005a1.391 1.391 0 0 0-.711.246zm1.999 1.641.033-.018-.015-.028-.018.047zm-.391-1.53a1.185 1.185 0 0 0-.056-.043l-.015-.011c-.023-.016-.046-.032-.07-.046l.141.1z"/><path d="M24.357 13.433c.082.02.166.031.25.034h.12a1.394 1.394 0 0 0 1.319-1.544 1.391 1.391 0 0 0-1.378-1.235h-.067v.005a1.39 1.39 0 0 0-1.056 2.187c.195.278.484.475.813.554zm.31-2.021a.667.667 0 0 1 .473 1.141.666.666 0 0 1-1.028-.101.672.672 0 0 1 .083-.844.667.667 0 0 1 .473-.196zM28.952 15.846l.021-.063h-.001l-.004-.001-.013-.004a5.343 5.343 0 0 0-.24-.063 4.54 4.54 0 0 0-.648-.1c-.522-.042-1.194-.003-1.773.332-.648.372-1.143.858-1.391 1.317-.188.348-.236.698-.083.968a.628.628 0 0 0 .093.124c.226.243.627.325 1.088.278.464-.048 1.007-.229 1.536-.535.579-.335.949-.898 1.173-1.371a4.631 4.631 0 0 0 .291-.798l.013-.052.003-.014.001-.004v-.001l-.065-.014zm0 0 .021-.063.057.019-.012.058-.065-.014zm-1.223.41v.067c.122 0 .244.007.365.019-.177.397-.469.873-.918 1.133-.491.284-1.022.45-1.417.45a.805.805 0 0 1-.262-.035.312.312 0 0 1-.052-.023l-.002-.001a.471.471 0 0 1 .029-.128c.033-.085.093-.196.188-.323.189-.253.509-.564.995-.844.281-.163.643-.248 1.075-.248v-.067zm0 0c.131 0 .263.008.393.022l-1.501.236c.294-.171.668-.257 1.108-.257z"/></symbol><symbol id="gloves" viewBox="0 0 18 32"><path d="M11.864 3.14a.498.498 0 0 1 .5-.5 2.035 2.035 0 0 1 2.032 2.032v7.922a.5.5 0 0 1-1 0V4.672a1.033 1.033 0 0 0-1.031-1.031.498.498 0 0 1-.5-.5zm3.594 2.688a1 1 0 0 1 1 1v12.945c.001.471-.184.922-.513 1.258-.862.882-.799 1.839-.799 2.422a.5.5 0 1 0 .999 0c0-.5-.068-1.129.513-1.723a2.783 2.783 0 0 0 .8-1.957V6.828a2 2 0 0 0-2-2 .498.498 0 0 0-.5.5.498.498 0 0 0 .5.5zm.219 18.922H6.166a.5.5 0 0 0 0 1h9.511a.85.85 0 0 1 .844.844v.312a.846.846 0 0 1-.844.843H3.802a.842.842 0 0 1-.844-.843v-.312c0-.224.089-.438.248-.596s.373-.247.596-.248a.498.498 0 0 0 .5-.5v-1.865c0-1.084-.591-1.5-1.289-1.996a2.07 2.07 0 0 1-.867-1.68v-6.678a1.03 1.03 0 1 1 2.062 0v3.118a.498.498 0 0 0 .5.5.5.5 0 0 0 .5-.5V4.672a1.03 1.03 0 1 1 2.062 0v8.469a.498.498 0 0 0 .5.5.5.5 0 0 0 .5-.5V3.032a1.033 1.033 0 0 1 1.76-.729c.193.193.302.456.302.729v10.109a.498.498 0 0 0 .5.5.5.5 0 0 0 .5-.5V3.032a2.03 2.03 0 0 0-3.408-1.488 2.034 2.034 0 0 0-.652 1.381c-1.351-.799-3.066.179-3.066 1.748v6.611c-1.349-.799-3.063.181-3.063 1.75v6.676a3.064 3.064 0 0 0 1.289 2.495c.688.488.868.632.868 1.181v1.434a1.845 1.845 0 0 0-1.344 1.774v.312A1.845 1.845 0 0 0 3.3 28.68v1.819a.498.498 0 0 0 .5.5.498.498 0 0 0 .5-.5v-1.75h10.844v1.75a.498.498 0 0 0 .853.354.502.502 0 0 0 .146-.354v-1.812a1.845 1.845 0 0 0 1.375-1.783v-.312a1.849 1.849 0 0 0-1.844-1.842z"/></symbol><symbol id="medical" viewBox="0 0 32 32"><path d="M11.864 3.14a.498.498 0 0 1 .5-.5 2.035 2.035 0 0 1 2.032 2.032v7.922a.5.5 0 0 1-1 0V4.672a1.033 1.033 0 0 0-1.031-1.031.498.498 0 0 1-.5-.5zm3.594 2.688a1 1 0 0 1 1 1v12.945c.001.471-.184.922-.513 1.258-.862.882-.799 1.839-.799 2.422a.5.5 0 1 0 .999 0c0-.5-.068-1.129.513-1.723a2.783 2.783 0 0 0 .8-1.957V6.828a2 2 0 0 0-2-2 .498.498 0 0 0-.5.5.498.498 0 0 0 .5.5zm.219 18.922H6.166a.5.5 0 0 0 0 1h9.511a.85.85 0 0 1 .844.844v.312a.846.846 0 0 1-.844.843H3.802a.842.842 0 0 1-.844-.843v-.312c0-.224.089-.438.248-.596s.373-.247.596-.248a.498.498 0 0 0 .5-.5v-1.865c0-1.084-.591-1.5-1.289-1.996a2.07 2.07 0 0 1-.867-1.68v-6.678a1.03 1.03 0 1 1 2.062 0v3.118a.498.498 0 0 0 .5.5.5.5 0 0 0 .5-.5V4.672a1.03 1.03 0 1 1 2.062 0v8.469a.498.498 0 0 0 .5.5.5.5 0 0 0 .5-.5V3.032a1.033 1.033 0 0 1 1.76-.729c.193.193.302.456.302.729v10.109a.498.498 0 0 0 .5.5.5.5 0 0 0 .5-.5V3.032a2.03 2.03 0 0 0-3.408-1.488 2.034 2.034 0 0 0-.652 1.381c-1.351-.799-3.066.179-3.066 1.748v6.611c-1.349-.799-3.063.181-3.063 1.75v6.676a3.064 3.064 0 0 0 1.289 2.495c.688.488.868.632.868 1.181v1.434a1.845 1.845 0 0 0-1.344 1.774v.312A1.845 1.845 0 0 0 3.3 28.68v1.819a.498.498 0 0 0 .5.5.498.498 0 0 0 .5-.5v-1.75h10.844v1.75a.498.498 0 0 0 .853.354.502.502 0 0 0 .146-.354v-1.812a1.845 1.845 0 0 0 1.375-1.783v-.312a1.849 1.849 0 0 0-1.844-1.842zM24.149 21.067h.933v-.933h-.933v.933zm-4.011 0h-.933V22h.933v-.933zm0-1.494v-.933h-.933v.933h.933zm4.011 0v.933h.933v-.933h-.933zm0-4.074v-.933h-.933v.933h.933zm1.6 0h.933v-.933h-.933v.933zm0 4.074h-.933v.933h.933v-.933zm4.074 0h.933v-.933h-.933v.933zm0 1.494V22h.933v-.933h-.933zm-4.074 0v-.933h-.933v.933h.933zm0 4.117v.933h.933v-.933h-.933zm-1.6 0h-.933v.933h.933v-.933zm0-5.051h-4.011V22h4.011v-1.867zm-3.078.934v-1.493h-1.867v1.493h1.867zm-.933-.56h4.011V18.64h-4.011v1.867zm4.944-.934v-4.075h-1.867v4.075h1.867zm-.933-3.141h1.6v-1.867h-1.6v1.867zm.666-.933v4.075h1.867v-4.075h-1.867zm.934 5.008h4.075V18.64h-4.075v1.867zm3.141-.934v1.493h1.867v-1.493H28.89zm.933.56h-4.075V22h4.075v-1.867zm-5.008.934v4.117h1.867v-4.117h-1.867zm.934 3.184h-1.6v1.867h1.6v-1.867zm-.667.933v-4.117h-1.867v4.117h1.867z"/></symbol><symbol id="pharmaceutical" viewBox="0 0 20 20"><path fill="currentColor" d="M7.415 1.963a.313.313 0 0 1 .313-.313 1.271 1.271 0 0 1 1.27 1.27V7.87a.312.312 0 1 1-.626 0V2.92a.646.646 0 0 0-.644-.645.312.312 0 0 1-.313-.312Zm2.246 1.68a.625.625 0 0 1 .625.624v8.091c0 .294-.114.577-.32.787-.54.551-.5 1.149-.5 1.513a.312.312 0 1 0 .625 0c0-.312-.042-.706.32-1.076.322-.327.501-.766.5-1.224v-8.09a1.25 1.25 0 0 0-1.25-1.25.312.312 0 1 0 0 .624Zm.137 11.826H3.854a.312.312 0 1 0 0 .625h5.944a.528.528 0 0 1 .527.527v.195a.529.529 0 0 1-.527.528H2.376a.528.528 0 0 1-.527-.528v-.195a.528.528 0 0 1 .527-.527.313.313 0 0 0 .312-.313v-1.165c0-.678-.369-.938-.805-1.248a1.291 1.291 0 0 1-.542-1.05V8.144a.645.645 0 1 1 1.289 0v1.949a.313.313 0 0 0 .625 0V2.92a.645.645 0 0 1 1.289 0v5.293a.313.313 0 0 0 .625 0V1.894a.645.645 0 0 1 1.289 0v6.319a.313.313 0 0 0 .625 0V1.894a1.27 1.27 0 0 0-2.537-.066A1.271 1.271 0 0 0 2.63 2.92V7.05C1.787 6.552.716 7.164.716 8.145v4.173a1.917 1.917 0 0 0 .805 1.56c.43.304.542.395.542.738v.896a1.154 1.154 0 0 0-.84 1.109v.195a1.154 1.154 0 0 0 .84 1.11v1.136a.313.313 0 1 0 .625 0V17.97h6.778v1.093a.313.313 0 1 0 .625 0V17.93a1.154 1.154 0 0 0 .86-1.115v-.195a1.153 1.153 0 0 0-1.153-1.151Z"/><path stroke="#082242" stroke-linejoin="round" stroke-width=".5" d="M15.682 9.318c1.004 0 1.818-.78 1.818-1.742s-.814-1.743-1.818-1.743-1.818.78-1.818 1.743c0 .962.814 1.742 1.818 1.742ZM14.317 8.883l2.727-2.614M14.318 14.11c1.004 0 1.818-.78 1.818-1.742 0-.963-.814-1.743-1.818-1.743s-1.818.78-1.818 1.742c0 .963.814 1.743 1.818 1.743ZM12.955 13.675l2.727-2.614M15.682 18.902c1.004 0 1.818-.78 1.818-1.743 0-.962-.814-1.742-1.818-1.742s-1.818.78-1.818 1.742c0 .963.814 1.743 1.818 1.743ZM14.317 18.466l2.727-2.614"/></symbol><symbol id="remont" viewBox="0 0 32 32"><path d="M11.864 3.14a.498.498 0 0 1 .5-.5 2.035 2.035 0 0 1 2.032 2.032v7.922a.5.5 0 0 1-1 0V4.672a1.033 1.033 0 0 0-1.031-1.031.498.498 0 0 1-.5-.5zm3.594 2.688a1 1 0 0 1 1 1v12.945c.001.471-.184.922-.513 1.258-.862.882-.799 1.839-.799 2.422a.5.5 0 1 0 .999 0c0-.5-.068-1.129.513-1.723a2.783 2.783 0 0 0 .8-1.957V6.828a2 2 0 0 0-2-2 .498.498 0 0 0-.5.5.498.498 0 0 0 .5.5zm.219 18.922H6.166a.5.5 0 0 0 0 1h9.511a.85.85 0 0 1 .844.844v.312a.846.846 0 0 1-.844.843H3.802a.842.842 0 0 1-.844-.843v-.312c0-.224.089-.438.248-.596s.373-.247.596-.248a.498.498 0 0 0 .5-.5v-1.865c0-1.084-.591-1.5-1.289-1.996a2.07 2.07 0 0 1-.867-1.68v-6.678a1.03 1.03 0 1 1 2.062 0v3.118a.498.498 0 0 0 .5.5.5.5 0 0 0 .5-.5V4.672a1.03 1.03 0 1 1 2.062 0v8.469a.498.498 0 0 0 .5.5.5.5 0 0 0 .5-.5V3.032a1.033 1.033 0 0 1 1.76-.729c.193.193.302.456.302.729v10.109a.498.498 0 0 0 .5.5.5.5 0 0 0 .5-.5V3.032a2.03 2.03 0 0 0-3.408-1.488 2.034 2.034 0 0 0-.652 1.381c-1.351-.799-3.066.179-3.066 1.748v6.611c-1.349-.799-3.063.181-3.063 1.75v6.676a3.064 3.064 0 0 0 1.289 2.495c.688.488.868.632.868 1.181v1.434a1.845 1.845 0 0 0-1.344 1.774v.312A1.845 1.845 0 0 0 3.3 28.68v1.819a.498.498 0 0 0 .5.5.498.498 0 0 0 .5-.5v-1.75h10.844v1.75a.498.498 0 0 0 .853.354.502.502 0 0 0 .146-.354v-1.812a1.845 1.845 0 0 0 1.375-1.783v-.312a1.849 1.849 0 0 0-1.844-1.842zM23.443 16.305c-.349-.001-.68-.175-.922-.478a1.849 1.849 0 0 1-.382-1.069h-.603v1.171c0 .095-.03.189-.086.26s-.137.116-.225.116h-.98c-.088 0-.169-.044-.226-.116s-.086-.165-.086-.26v-4.952c0-.095.03-.189.086-.26s.137-.116.226-.116h.98c.088 0 .169.044.225.116s.086.165.086.26v1.171h.603c.018-.402.153-.784.384-1.071.243-.303.575-.477.925-.477h6.838c.478 0 .932.24 1.264.66s.516.986.516 1.573c0 .095-.03.189-.086.26s-.137.116-.225.116H30.45c-.215.001-.425.109-.583.308s-.249.473-.249.761l-6.175 2.026zm0 0 4.866-.067c.329 0 .645-.165.878-.46s.364-.693.364-1.11v-.39h.067l-6.175 2.026zm0 0h1.388v2.343h-.178c-.088 0-.169.045-.225.116s-.086.165-.086.26v8.667c0 .095.03.189.086.26s.137.116.225.116h2.449c.088 0 .169-.044.225-.116s.086-.165.086-.26v-8.667c0-.095-.03-.189-.086-.26s-.137-.116-.225-.116h-.178v-2.343h-3.481zm0 0zm6.174-2.026v.39c0 .429-.135.844-.378 1.151s-.577.485-.93.485h-1.385l2.694-2.026zm0 0zm.832-1.822h.956a1.568 1.568 0 0 0-.393-.776 1.01 1.01 0 0 0-.727-.328h-6.838a.62.62 0 0 0-.481.254c-.065.082-.117.18-.152.289s-.054.226-.054.344v2.43c.001.239.076.465.207.63s.303.253.479.254h4.863c.176-.001.349-.089.479-.254s.206-.391.207-.63l1.455-2.212zm0 0-1.388 2.212h-.067l1.455-2.212zm0 0c-.391.001-.762.198-1.033.54s-.421.803-.422 1.281v.39l1.455-2.212zm0 0zm-9.292-1.105v4.205l-.846.068v-4.273h.846zm.379 1.192h.547v1.678h-.547v-1.678zm3.428 14.77V19.4h1.826v7.914h-1.826zm1.336-8.666h-.846v-2.343h.846v2.343z"/></symbol><symbol id="surgical" viewBox="0 0 32 32"><path d="M11.864 3.14a.498.498 0 0 1 .5-.5 2.035 2.035 0 0 1 2.032 2.032v7.922a.5.5 0 0 1-1 0V4.672a1.033 1.033 0 0 0-1.031-1.031.498.498 0 0 1-.5-.5zm3.594 2.688a1 1 0 0 1 1 1v12.945c.001.471-.184.922-.513 1.258-.862.882-.799 1.839-.799 2.422a.5.5 0 1 0 .999 0c0-.5-.068-1.129.513-1.723a2.783 2.783 0 0 0 .8-1.957V6.828a2 2 0 0 0-2-2 .498.498 0 0 0-.5.5.498.498 0 0 0 .5.5zm.219 18.922H6.166a.5.5 0 0 0 0 1h9.511a.85.85 0 0 1 .844.844v.312a.846.846 0 0 1-.844.843H3.802a.842.842 0 0 1-.844-.843v-.312c0-.224.089-.438.248-.596s.373-.247.596-.248a.498.498 0 0 0 .5-.5v-1.865c0-1.084-.591-1.5-1.289-1.996a2.07 2.07 0 0 1-.867-1.68v-6.678a1.03 1.03 0 1 1 2.062 0v3.118a.498.498 0 0 0 .5.5.5.5 0 0 0 .5-.5V4.672a1.03 1.03 0 1 1 2.062 0v8.469a.498.498 0 0 0 .5.5.5.5 0 0 0 .5-.5V3.032a1.033 1.033 0 0 1 1.76-.729c.193.193.302.456.302.729v10.109a.498.498 0 0 0 .5.5.5.5 0 0 0 .5-.5V3.032a2.03 2.03 0 0 0-3.408-1.488 2.034 2.034 0 0 0-.652 1.381c-1.351-.799-3.066.179-3.066 1.748v6.611c-1.349-.799-3.063.181-3.063 1.75v6.676a3.064 3.064 0 0 0 1.289 2.495c.688.488.868.632.868 1.181v1.434a1.845 1.845 0 0 0-1.344 1.774v.312A1.845 1.845 0 0 0 3.3 28.68v1.819a.498.498 0 0 0 .5.5.498.498 0 0 0 .5-.5v-1.75h10.844v1.75a.498.498 0 0 0 .853.354.502.502 0 0 0 .146-.354v-1.812a1.845 1.845 0 0 0 1.375-1.783v-.312a1.849 1.849 0 0 0-1.844-1.842z"/><path fill="none" stroke="#082242" stroke-width="1.12" d="m24.291 22.262-.583.869L20 24l2.596-3.919m1.695 2.181 5.801-8.209c.264-.374.547-.764.572-1.221.05-.909-.619-1.8-1.226-2.077-.629-.287-1.049.579-1.431 1.155l-5.411 8.171 1.695 2.181zm0 0z" style="stroke:var(--color1,currentColor)"/></symbol><symbol id="arrow-down" viewBox="0 0 32 32"><path d="M14.586 22.243a2 2 0 0 0 2.828 0L30.142 9.515a2 2 0 1 0-2.828-2.828L16 18.001 4.686 6.687a2 2 0 1 0-2.828 2.828l12.728 12.728zM14 18v2.828h4V18h-4z"/></symbol><symbol id="basket" viewBox="0 0 32 32"><path d="M21.33 25.36a3.751 3.751 0 0 1 3.746-3.746 3.753 3.753 0 0 1 3.746 3.746 3.751 3.751 0 0 1-3.746 3.746 3.751 3.751 0 0 1-3.747-3.746zm2.037 0a1.706 1.706 0 0 0 2.919 1.209 1.706 1.706 0 0 0 0-2.418 1.706 1.706 0 0 0-2.418 0c-.321.32-.501.755-.502 1.209zm-13.443 0a3.751 3.751 0 0 1 3.746-3.746 3.751 3.751 0 0 1 3.746 3.746 3.751 3.751 0 0 1-3.746 3.746 3.751 3.751 0 0 1-3.747-3.746h.001zm2.036 0a1.715 1.715 0 0 0 1.711 1.71 1.712 1.712 0 0 0 1.711-1.71 1.715 1.715 0 0 0-1.711-1.71 1.712 1.712 0 0 0-1.711 1.71h.001zm-1.404-4.24a1.02 1.02 0 0 1-.968-.702L4.469 4.704h-3.45a1.022 1.022 0 0 1-1.02-1.018 1.018 1.018 0 0 1 1.018-1.018h4.189a1.02 1.02 0 0 1 .968.702l1.063 3.263h23.745a1.018 1.018 0 0 1 1.007 1.173c.021.14.013.284-.024.421l-3.286 12.142a1.019 1.019 0 0 1-.983.752h-17.14zm.739-2.037h15.622l2.819-10.416H7.901l3.393 10.416z"/></symbol><symbol id="noun-achievement-certificate" viewBox="0 0 32 32"><path fill="#29b384" d="M27.07 19.795a5.67 5.67 0 0 0-2.25-4.5V3.935a.17.17 0 0 0 0-.045.521.521 0 0 0-.045-.155v-.04a.783.783 0 0 0-.095-.12L21.085.135a.5.5 0 0 0-.34-.135H5.93a1.433 1.433 0 0 0-1.45 1.415v22.22a1.432 1.432 0 0 0 1.45 1.415h12.04v6.45a.501.501 0 0 0 .845.325L21.39 29l2.575 2.84a.502.502 0 0 0 .535.13.5.5 0 0 0 .31-.455V24.32a5.66 5.66 0 0 0 2.26-4.525zm-.97 0a4.71 4.71 0 1 1-9.419 0 4.71 4.71 0 0 1 9.419 0zM21.23 1.62l1.9 1.83h-1.415a.47.47 0 0 1-.5-.445l.015-1.385zm-15.78 22V1.415a.458.458 0 0 1 .5-.445h14.325V3a1.44 1.44 0 0 0 1.455 1.415h2.135v10.27a5.621 5.621 0 0 0-2.46-.57 5.668 5.668 0 0 0-3.73 9.964H5.93a.46.46 0 0 1-.48-.445v-.015zm13.5 1.275c.616.3 1.282.483 1.965.54v2.645l-1.965 2.165v-5.35zm4.9 5.35-1.975-2.15V25.45a5.65 5.65 0 0 0 1.965-.535l.01 5.33z" style="fill:var(--color2, #29b384)"/><path fill="#29b384" d="M21.391 16.4a3.397 3.397 0 0 0-3.405 3.388 3.395 3.395 0 1 0 3.406-3.388zm0 5.82a2.423 2.423 0 0 1-1.715-4.14 2.423 2.423 0 0 1 3.43 0 2.423 2.423 0 0 1-.002 3.428 2.433 2.433 0 0 1-1.713.712zM15.165 12.04h-7.28a.5.5 0 0 0 0 .97h7.28a.5.5 0 1 0 0-.97zM7.886 17.175h4.39a.5.5 0 0 0 0-.97h-4.39a.5.5 0 0 0 0 .97zM13.226 20.375h-5.34a.5.5 0 0 0 0 .97h5.34a.5.5 0 1 0 0-.97zM7.886 4.675h10.14a.5.5 0 0 0 0-.97H7.886a.5.5 0 0 0 0 .97zM7.886 8.845h10.14a.5.5 0 0 0 0-.97H7.886a.5.5 0 0 0 0 .97z" style="fill:var(--color2, #29b384)"/></symbol><symbol id="noun-order" viewBox="0 0 32 32"><path fill="#29b384" d="M22.5 2.25a.75.75 0 1 1-1.5 0 .75.75 0 0 1 1.5 0zM25.25 2.25a.75.75 0 1 1-1.5 0 .75.75 0 0 1 1.5 0zM4.75 16.5h5.5c1.1 0 2-.9 2-2v-4c0-1.1-.9-2-2-2h-5.5c-1.1 0-2 .9-2 2v4c0 1.1.9 2 2 2zm-1-6c0-.55.45-1 1-1h5.5c.55 0 1 .45 1 1v4c0 .55-.45 1-1 1h-5.5c-.55 0-1-.45-1-1v-4zM24.749 8.5h-10.5c-.275 0-.5.225-.5.5s.225.5.5.5h10.5c.275 0 .5-.225.5-.5s-.225-.5-.5-.5zM24.749 10.5h-10.5c-.275 0-.5.225-.5.5s.225.5.5.5h10.5c.275 0 .5-.225.5-.5s-.225-.5-.5-.5zM25.25 13c0-.275-.225-.5-.5-.5h-10.5c-.275 0-.5.225-.5.5s.225.5.5.5h10.5c.275 0 .5-.225.5-.5zM19.025 15.5c.275 0 .5-.225.5-.5s-.225-.5-.5-.5H14.25c-.275 0-.5.225-.5.5s.225.5.5.5h4.775zM13.5 17.5H3c-.275 0-.5.225-.5.5s.225.5.5.5h10.5c.275 0 .5-.225.5-.5s-.225-.5-.5-.5zM13.5 19.5H3c-.275 0-.5.225-.5.5s.225.5.5.5h10.5c.275 0 .5-.225.5-.5s-.225-.5-.5-.5zM13.5 21.5H3c-.275 0-.5.225-.5.5s.225.5.5.5h10.5c.275 0 .5-.225.5-.5s-.225-.5-.5-.5z" style="fill:var(--color2, #29b384)"/><path fill="#29b384" d="M2 26c-.55 0-1-.45-1-1V4.5h26v15.6l1 .375V2c0-1.1-.9-2-2-2H2C.9 0 0 .9 0 2v23c0 1.1.9 2 2 2h18.8l-.35-1H2zM2 1h24c.55 0 1 .45 1 1v1.5H1V2c0-.55.45-1 1-1z" style="fill:var(--color2, #29b384)"/><path fill="#29b384" d="m31.3 28.65-3.6-3.875 1.35-.6c1.275-.7 1.25-1.7-.1-2.275l-7.725-2.95c-.3-.125-.575-.2-.825-.2-.8 0-1.125.7-.775 1.825l2.75 8.025c.25.775.625 1.175 1.025 1.175.375 0 .75-.325 1.075-.95L25.1 27.4l3.55 3.8c.475.525 1.125.8 1.7.8.425 0 .825-.15 1.125-.45.75-.7.675-2-.175-2.9zm-.475 2.2c-.1.1-.25.15-.425.15-.325 0-.7-.175-.975-.475l-4.575-4.9L24.225 27l-.6 1.375c-.05.1-.1.175-.15.225-.025-.075-.075-.175-.125-.3l-2.75-8.05c-.075-.25-.1-.4-.1-.5.075 0 .2.05.35.1h.025l7.7 2.975c.175.075.3.15.35.2-.05.05-.15.15-.325.225l-1.3.575-1.275.575.95 1.025 3.6 3.875c.5.575.525 1.275.25 1.55z" style="fill:var(--color2, #29b384)"/></symbol><symbol id="noun-partnership" viewBox="0 0 32 32"><path fill="#29b384" d="M31.899 15.383 24.797 4.087c-.056-.112-.224-.224-.336-.224-.168-.056-.28 0-.447.056l-3.355 2.125c-.28.168-.336.503-.168.783l.168.28c-1.342-.224-3.411-.336-4.753.28h-.056c-1.454-.503-3.915-.224-5.369.056l.447-.727c.168-.28.056-.615-.224-.783L7.405 3.976c-.112-.056-.28-.112-.447-.056s-.28.112-.336.28L.079 15.72c-.168.28-.056.615.224.783l3.244 1.845c.112.056.168.056.28.056a.666.666 0 0 0 .503-.28l.671-1.174c.168.391.391.727.615.951-.391.447-.615 1.007-.615 1.566 0 .615.224 1.23.671 1.678s1.063.671 1.678.671h.224v.224c0 .615.224 1.23.671 1.678s1.007.671 1.678.671h.224v.224c0 .615.224 1.23.671 1.678s1.063.671 1.678.671 1.174-.224 1.678-.671l.224-.224 1.342 1.007c.447.336.895.503 1.398.503.727 0 1.398-.28 1.79-.839.28-.392.447-.783.447-1.23h.112a2.28 2.28 0 0 0 1.79-.839c.28-.391.447-.839.447-1.23h.168c.671 0 1.342-.28 1.79-.783a1.84 1.84 0 0 0 .447-1.23c.559-.056 1.118-.336 1.454-.839.503-.671.559-1.51.224-2.181l1.51-.895.447.727c.056.112.224.224.336.224h.112a.428.428 0 0 0 .28-.112l3.355-2.181c.168-.224.224-.559.056-.783zM3.602 17.061l-2.293-1.286L7.293 5.15l2.349 1.398-6.04 10.513zm2.796 3.299a1.232 1.232 0 0 1-.336-.839c0-.336.112-.615.336-.839l.335-.336c.447-.447 1.286-.447 1.734 0 .224.224.336.559.336.839 0 .336-.112.615-.336.839l-.336.336c-.447.447-1.23.447-1.734 0zm2.517 2.517a1.232 1.232 0 0 1-.336-.839c0-.335.112-.615.336-.839l.336-.335c.224-.224.559-.336.839-.336s.615.112.839.336c.503.503.503 1.23 0 1.734l-.336.336c-.392.391-1.174.391-1.678-.056zm4.25 2.516a1.289 1.289 0 0 1-1.734 0 1.232 1.232 0 0 1-.336-.839c0-.336.112-.615.336-.839l.335-.336c.224-.224.559-.336.839-.336s.615.112.839.336c.224.224.336.559.336.839 0 .336-.112.615-.336.839l-.28.336zm11.352-5.592a1.01 1.01 0 0 1-.951.391c-.056-.056-.168-.056-.28-.056l-.336-.168-1.118-.895c-.224-.168-.615-.168-.783.112-.168.224-.168.615.112.783l1.118.895c.168.112.335.224.559.335 0 .224-.056.447-.168.615-.391.447-1.118.559-1.566.224l-.056-.056s-.056 0-.056-.056l-1.118-.895c-.224-.168-.615-.168-.783.112-.168.224-.168.615.112.783l1.118.895.056.056c.168.28.168.727-.056 1.007-.336.392-1.007.559-1.454.28-.056-.056-.112-.056-.168-.112l-.056-.056-1.118-.895c-.224-.168-.615-.168-.783.112-.168.224-.168.615.112.783l1.118.895c.056 0 .056.056.112.112.112.336.112.671-.168 1.007-.168.28-.503.392-.895.392-.28 0-.503-.056-.727-.28l-1.118-.839-.28-.168c.112-.28.168-.559.168-.895 0-.615-.224-1.23-.671-1.678a2.314 2.314 0 0 0-1.845-.671c.056-.671-.168-1.342-.671-1.845s-1.174-.727-1.845-.671v-.224c0-.615-.224-1.23-.671-1.678s-1.007-.671-1.678-.671c-.447 0-.895.112-1.23.336a3.175 3.175 0 0 1-.671-1.51l4.026-6.991c1.118-.224 3.467-.615 5.033-.392l-3.859 3.579c-.671.671-.727 1.734-.056 2.461.335.391.839.615 1.342.615.335 0 .671-.112.951-.28l3.188-2.125a1.942 1.942 0 0 1 1.566-.335l.559.056 5.089 5.369.895.951c.28.28.28.895 0 1.286zm.447-2.405-.615-.671-4.138-4.418.727.056c.28.056.559-.168.615-.503.056-.28-.168-.559-.503-.615l-2.125-.224c-.112-.056-.168-.056-.28-.056l-.559-.056c-.783-.112-1.678.056-2.349.559l-3.188 2.125a.677.677 0 0 1-.839-.112c-.224-.28-.224-.671 0-.895l4.194-3.915c.056-.056.168-.112.224-.224.112 0 .168-.056.224-.112 1.174-.559 3.579-.336 5.089 0l5.089 8.109-1.566.95zm3.299-.335-.392-.559c0-.056 0-.112-.056-.168s-.112-.112-.112-.168l-5.928-9.507 2.405-1.51 6.487 10.346-2.405 1.566z" style="fill:var(--color2, #29b384)"/></symbol><symbol id="noun-quality" viewBox="0 0 32 32"><path fill="#29b384" d="m7.79 7.345 3.005 2.895-.71 4.115c-.075.395.08.8.405 1.035.32.24.745.275 1.1.095l3.835-1.915 3.635 1.895c.51.275 1.145.085 1.425-.425.11-.205.15-.445.11-.68l-.71-4.1 2.98-2.915a1.044 1.044 0 0 0-.58-1.785l-4.155-.606-1.855-3.74a1.046 1.046 0 0 0-.945-.575c-.395 0-.76.22-.94.575l-1.855 3.74-4.16.6a1.04 1.04 0 0 0-.895 1.175c.03.235.14.45.31.615zm5.205-1.295a.57.57 0 0 0 .42-.315L15.33 1.9l1.915 3.835c.085.17.245.285.435.315l4.245.615L18.86 9.63c-.135.13-.2.32-.17.51l.725 4.195L15.7 12.4a.572.572 0 0 0-.525 0l-3.91 1.96.73-4.215a.57.57 0 0 0-.18-.5L8.75 6.68l4.245-.63zM31.429 17.69c-.39-.45-.94-.725-1.535-.765s-1.175.16-1.615.56l-5.31 4.77a3.49 3.49 0 0 0-.06-.315 2.407 2.407 0 0 0-1.27-1.535c-.985-.415-2.355-.22-3.675-.03-.775.15-1.565.2-2.35.145-.35-.09-.69-.215-1.01-.385-1.005-.45-2.38-1.06-4.94-.5a8.114 8.114 0 0 0-3.53 1.945v-1.405a.575.575 0 0 0-.575-.575H.574a.587.587 0 0 0-.575.585V31.3c0 .315.255.575.575.575h4.98c.32 0 .575-.255.575-.575v-.795c.765.18 4.245.99 6.82.99 2.685 0 5.965-.615 7.985-1.49 3.72-1.615 9.85-8.575 10.349-9.14.895-.85.96-2.25.145-3.175zM4.979 30.724h-3.83v-9.965h3.835v9.965h-.005zm25.505-10.7-.055.055c-.065.075-6.395 7.325-9.965 8.87-1.88.815-4.975 1.39-7.515 1.39-2.685 0-6.64-.98-6.68-.99a.655.655 0 0 0-.14 0v-6.13c.42-.48 1.895-2.035 3.78-2.45 2.19-.48 3.275 0 4.215.425.405.2.835.35 1.28.445.905.085 1.82.04 2.71-.14 1.115-.155 2.38-.33 3.065-.04.3.17.515.455.6.79a1.47 1.47 0 0 1-.31 1.305c-.875 1.175-6.19 2.93-8.37 2.755a.577.577 0 0 0-.09 1.15h.385c2.38 0 6.925-1.405 8.59-2.805l.04-.025 6.99-6.285c.21-.185.485-.285.765-.27.295.02.575.155.765.385a1.11 1.11 0 0 1-.059 1.565h.001z" style="fill:var(--color2, #29b384)"/></symbol><symbol id="phone" viewBox="0 0 32 32"><path d="M8.833 14.393a20.082 20.082 0 0 0 8.787 8.78l2.933-2.94a1.338 1.338 0 0 1 1.353-.327c1.493.493 3.1.76 4.76.76.74 0 1.333.593 1.333 1.333v4.667c0 .74-.593 1.333-1.333 1.333-12.52 0-22.667-10.147-22.667-22.667 0-.74.6-1.333 1.333-1.333h4.667c.74 0 1.333.593 1.333 1.333 0 1.66.267 3.267.76 4.76.147.46.04.987-.327 1.353l-2.933 2.947z"/></symbol><symbol id="search" viewBox="0 0 32 32"><path stroke-linecap="round" stroke-linejoin="round" stroke-width="2.667" d="M14 24c5.523 0 10-4.477 10-10S19.523 4 14 4 4 8.477 4 14s4.477 10 10 10zM28 28l-6.933-6.933"/></symbol></defs></svg>