<svg width="24" height="24" viewBox="0 0 24 24" fill="none" xmlns="http://www.w3.org/2000/svg">
<path d="M1.75619 4C1.41095 4 1.0941 4.10371 0.823157 4.27439L11.2134 13.0642C11.6891 13.467 12.3301 13.467 12.8048 13.0642L23.1767 4.27439C22.9058 4.10371 22.5889 4 22.2437 4H1.75592H1.75619ZM0.100651 5.17982C0.0379753 5.3605 0 5.55322 0 5.75593V17.4632C0 17.8157 0.105956 18.1397 0.283577 18.4143L7.71979 11.6372L0.100651 5.17982ZM23.8993 5.17982L16.2985 11.6282L23.7164 18.4147C23.894 18.1402 24 17.8162 24 17.4636V5.75635C24 5.55362 23.962 5.36089 23.8993 5.18024V5.17982ZM15.4027 12.396L13.555 13.96C12.6614 14.7181 11.3481 14.717 10.4545 13.96L8.61602 12.4052L1.23469 19.1368C1.39986 19.1879 1.57359 19.2191 1.75611 19.2191H22.2438C22.4262 19.2191 22.6001 19.1879 22.7653 19.1368L15.4028 12.3958L15.4027 12.396Z" fill="#29B384"/>
</svg>
