<svg xmlns="http://www.w3.org/2000/svg" width="50" height="50" fill="none"><g clip-path="url(#a)"><path fill="#29B384" d="M49.842 24.036 38.745 6.386c-.087-.175-.35-.35-.524-.35-.262-.087-.437 0-.7.088l-5.242 3.32c-.437.262-.524.786-.262 1.223l.262.437c-2.097-.35-5.33-.524-7.427.437h-.087c-2.272-.786-6.117-.35-8.389.087l.7-1.136c.261-.436.087-.96-.35-1.223L11.57 6.211c-.175-.087-.437-.175-.699-.087-.262.087-.437.174-.524.436l-10.224 18c-.262.437-.087.962.35 1.224l5.068 2.883c.174.088.262.088.437.088.262 0 .611-.175.786-.437l1.048-1.835c.263.611.612 1.136.962 1.485-.612.7-.961 1.573-.961 2.447 0 .961.349 1.922 1.048 2.621.7.7 1.66 1.049 2.621 1.049h.35v.35c0 .96.35 1.922 1.048 2.62.7.7 1.573 1.05 2.622 1.05h.35v.349c0 .96.349 1.922 1.048 2.621.699.7 1.66 1.049 2.621 1.049.961 0 1.835-.35 2.622-1.049l.35-.35 2.096 1.573c.7.525 1.398.787 2.185.787 1.136 0 2.184-.437 2.796-1.31.437-.612.699-1.224.699-1.923h.175c1.048 0 2.097-.437 2.796-1.31.437-.613.699-1.312.699-1.923h.262c1.048 0 2.097-.437 2.796-1.224.437-.524.7-1.135.7-1.922.873-.087 1.747-.524 2.27-1.31.787-1.05.875-2.36.35-3.408l2.36-1.398.699 1.136c.087.174.35.35.524.35h.175c.174 0 .35-.088.437-.176l5.242-3.408c.263-.349.35-.873.088-1.223ZM5.628 26.658l-3.583-2.01 9.35-16.602 3.67 2.184-9.437 16.428Zm4.369 5.155c-.35-.35-.524-.874-.524-1.31 0-.525.174-.962.524-1.311l.524-.525c.7-.699 2.01-.699 2.709 0 .35.35.524.874.524 1.311 0 .524-.175.961-.524 1.31l-.524.525c-.7.699-1.923.699-2.709 0Zm3.932 3.932c-.35-.35-.524-.874-.524-1.31 0-.525.175-.962.524-1.311l.524-.525c.35-.35.874-.524 1.311-.524.437 0 .961.175 1.31.524.787.787.787 1.923 0 2.71l-.524.523c-.611.612-1.835.612-2.621-.087Zm6.64 3.932a2.012 2.012 0 0 1-2.708 0c-.35-.35-.524-.874-.524-1.31 0-.525.175-.962.524-1.311l.524-.525c.35-.35.874-.524 1.311-.524.437 0 .961.175 1.31.524.35.35.525.874.525 1.311 0 .524-.175.961-.524 1.31l-.437.525Zm17.738-8.738c-.35.437-.874.7-1.485.612-.088-.088-.262-.088-.437-.088l-.524-.262-1.748-1.398c-.35-.262-.961-.262-1.223.175-.262.35-.262.961.175 1.223l1.747 1.398c.262.175.524.35.874.525 0 .35-.087.699-.262.96-.612.7-1.748.875-2.447.35l-.087-.087s-.088 0-.088-.087l-1.747-1.398c-.35-.263-.961-.263-1.224.174-.262.35-.262.961.175 1.224l1.748 1.398.087.087c.262.437.262 1.136-.087 1.573-.524.611-1.573.874-2.272.437-.087-.088-.175-.088-.262-.175l-.088-.087-1.747-1.399c-.35-.262-.961-.262-1.223.175-.263.35-.263.962.174 1.224l1.748 1.398c.087 0 .087.087.175.174.174.525.174 1.049-.262 1.573-.263.437-.787.612-1.398.612-.437 0-.787-.087-1.137-.437l-1.747-1.31-.437-.263c.175-.437.262-.874.262-1.398 0-.961-.35-1.922-1.048-2.621a3.616 3.616 0 0 0-2.884-1.049 3.616 3.616 0 0 0-1.048-2.883 3.616 3.616 0 0 0-2.884-1.049v-.35c0-.96-.35-1.922-1.048-2.62-.7-.7-1.573-1.05-2.622-1.05-.699 0-1.398.175-1.922.525a4.96 4.96 0 0 1-1.049-2.36l6.292-10.922c1.747-.35 5.417-.961 7.864-.612l-6.03 5.592c-1.048 1.049-1.135 2.71-.087 3.845.524.612 1.31.961 2.097.961.524 0 1.049-.174 1.486-.437l4.98-3.32c.7-.524 1.573-.699 2.447-.524l.874.087 7.951 8.389 1.398 1.485c.437.437.437 1.398 0 2.01Zm.7-3.757-.962-1.049-6.466-6.903 1.136.088c.437.087.874-.262.961-.787.087-.436-.262-.873-.786-.96l-3.32-.35c-.175-.088-.263-.088-.438-.088l-.873-.087c-1.224-.175-2.622.087-3.67.874l-4.98 3.32a1.059 1.059 0 0 1-1.312-.175c-.35-.437-.35-1.048 0-1.398l6.554-6.116c.087-.088.262-.175.35-.35.174 0 .261-.087.349-.175 1.835-.873 5.592-.524 7.951 0l7.952 12.67-2.447 1.486Zm5.155-.524-.612-.874c0-.088 0-.175-.087-.262-.088-.088-.175-.175-.175-.262l-9.262-14.855 3.757-2.36 10.136 16.166-3.757 2.447Z"/></g><defs><clipPath id="a"><path fill="#fff" d="M0 0h50v50H0z"/></clipPath></defs></svg>