<svg xmlns="http://www.w3.org/2000/svg" width="50" height="50" fill="none"><g fill="#29B384" clip-path="url(#a)"><path d="M42.297 30.93a8.86 8.86 0 0 0-3.515-7.032V6.148a.238.238 0 0 0 0-.07.84.84 0 0 0-.07-.242v-.062a1.207 1.207 0 0 0-.15-.188L32.947.211a.78.78 0 0 0-.531-.21H9.265A2.241 2.241 0 0 0 7 2.21v34.718a2.243 2.243 0 0 0 2.266 2.211h18.812V49.22a.781.781 0 0 0 1.32.508l4.024-4.414 4.023 4.437a.78.78 0 0 0 .836.203.782.782 0 0 0 .484-.71V38a8.845 8.845 0 0 0 3.532-7.07Zm-1.515 0a7.359 7.359 0 1 1-14.718 0 7.359 7.359 0 0 1 14.718 0Zm-7.61-28.398 2.969 2.859H33.93a.735.735 0 0 1-.781-.696l.023-2.163ZM8.516 36.906V2.211a.718.718 0 0 1 .781-.695H31.68v3.172a2.248 2.248 0 0 0 2.273 2.21h3.336v16.048a8.796 8.796 0 0 0-3.843-.891 8.86 8.86 0 0 0-5.828 15.57H9.266a.718.718 0 0 1-.75-.695v-.024Zm21.094 1.992a8.67 8.67 0 0 0 3.07.844v4.133l-3.07 3.383v-8.36Zm7.656 8.36-3.086-3.36v-4.133a8.823 8.823 0 0 0 3.07-.836l.016 8.329Z"/><path d="M33.423 25.625a5.305 5.305 0 1 0 5.289 5.305 5.313 5.313 0 0 0-5.29-5.305Zm0 9.094a3.79 3.79 0 1 1 3.789-3.79 3.796 3.796 0 0 1-3.79 3.79ZM23.696 18.813H12.321a.782.782 0 0 0 0 1.516h11.375a.782.782 0 1 0 0-1.516ZM12.322 26.836h6.86a.78.78 0 0 0 0-1.516h-6.86a.782.782 0 0 0 0 1.516ZM20.666 31.836h-8.344a.781.781 0 0 0 0 1.516h8.344a.783.783 0 0 0 .97-.758.781.781 0 0 0-.97-.758ZM12.322 7.305h15.844a.78.78 0 0 0 0-1.516H12.322a.782.782 0 0 0 0 1.516ZM12.322 13.82h15.844a.781.781 0 0 0 0-1.515H12.322a.781.781 0 0 0 0 1.516Z"/></g><defs><clipPath id="a"><path fill="#fff" d="M0 0h50v50H0z"/></clipPath></defs></svg>