<svg xmlns="http://www.w3.org/2000/svg" width="50" height="50" fill="none"><g fill="#29B384" clip-path="url(#a)"><path d="M35.156 3.515a1.172 1.172 0 1 1-2.343 0 1.172 1.172 0 0 1 2.343 0ZM39.453 3.515a1.172 1.172 0 1 1-2.343 0 1.172 1.172 0 0 1 2.343 0ZM7.422 25.78h8.594a3.134 3.134 0 0 0 3.125-3.124v-6.25a3.134 3.134 0 0 0-3.125-3.125H7.421a3.134 3.134 0 0 0-3.125 3.125v6.25a3.134 3.134 0 0 0 3.125 3.125Zm-1.563-9.374c0-.86.703-1.563 1.563-1.563h8.594c.859 0 1.562.704 1.562 1.563v6.25c0 .86-.703 1.562-1.563 1.562H7.422c-.86 0-1.563-.703-1.563-1.562v-6.25ZM38.67 13.28H22.266a.784.784 0 0 0-.782.782c0 .43.352.781.782.781H38.67c.43 0 .781-.351.781-.78a.784.784 0 0 0-.781-.782ZM38.67 16.406H22.266a.784.784 0 0 0-.782.781c0 .43.352.781.782.781H38.67c.43 0 .781-.351.781-.78a.784.784 0 0 0-.781-.782ZM39.453 20.312a.784.784 0 0 0-.781-.781H22.266a.784.784 0 0 0-.782.781c0 .43.352.781.782.781h16.406c.43 0 .781-.351.781-.78ZM29.726 24.218c.43 0 .782-.351.782-.78a.784.784 0 0 0-.782-.782h-7.46a.784.784 0 0 0-.782.781c0 .43.352.781.782.781h7.46ZM21.094 27.343H4.687a.784.784 0 0 0-.78.782c0 .43.35.78.78.78h16.407c.43 0 .78-.35.78-.78a.784.784 0 0 0-.78-.782ZM21.094 30.468H4.687a.784.784 0 0 0-.78.782c0 .43.35.78.78.78h16.407c.43 0 .78-.35.78-.78a.784.784 0 0 0-.78-.782ZM21.094 33.593H4.687a.783.783 0 0 0-.78.781c0 .43.35.782.78.782h16.407c.43 0 .78-.352.78-.782a.783.783 0 0 0-.78-.78Z"/><path d="M3.125 40.624c-.86 0-1.563-.703-1.563-1.562V7.03h40.625v24.375l1.563.586V3.125A3.134 3.134 0 0 0 40.625 0h-37.5A3.134 3.134 0 0 0 0 3.125v35.937a3.134 3.134 0 0 0 3.125 3.125H32.5l-.547-1.562H3.125Zm0-39.062h37.5c.859 0 1.562.703 1.562 1.563v2.343H1.562V3.125c0-.86.704-1.563 1.563-1.563Z"/><path d="m48.906 44.765-5.625-6.054 2.11-.938c1.992-1.093 1.953-2.656-.157-3.554l-12.07-4.61c-.469-.195-.899-.312-1.29-.312-1.25 0-1.757 1.094-1.21 2.851l4.297 12.54c.39 1.21.976 1.835 1.601 1.835.586 0 1.172-.507 1.68-1.484l.977-2.226 5.546 5.937c.742.82 1.758 1.25 2.657 1.25.664 0 1.289-.234 1.757-.703 1.172-1.094 1.055-3.125-.273-4.531Zm-.742 3.438c-.156.156-.39.234-.664.234-.508 0-1.094-.273-1.523-.742l-5.547-5.937-1.602-1.72-.977 2.15-.937 2.148a1.365 1.365 0 0 1-.234.351c-.04-.117-.118-.273-.196-.469L32.187 31.64c-.117-.39-.156-.625-.156-.781.117 0 .313.078.547.156h.04l12.03 4.648c.274.118.469.235.547.313a1.543 1.543 0 0 1-.508.351l-2.03.899-1.993.898 1.484 1.602 5.625 6.054c.781.899.82 1.992.39 2.422Z"/></g><defs><clipPath id="a"><path fill="#fff" d="M0 0h50v50H0z"/></clipPath></defs></svg>