<svg xmlns="http://www.w3.org/2000/svg" width="50" height="50" fill="none"><path fill="#29B384" d="M12.171 11.476 16.866 16l-1.11 6.43a1.62 1.62 0 0 0 .634 1.616c.5.375 1.164.43 1.718.149l5.992-2.992 5.68 2.96c.797.43 1.79.134 2.227-.663.171-.32.234-.696.171-1.063l-1.109-6.406 4.656-4.554a1.632 1.632 0 0 0 .031-2.312 1.596 1.596 0 0 0-.937-.477l-6.492-.946-2.898-5.844A1.635 1.635 0 0 0 23.952 1c-.617 0-1.188.344-1.469.898l-2.898 5.844-6.5.937a1.625 1.625 0 0 0-1.398 1.836c.047.368.219.703.484.961Zm8.133-2.023a.89.89 0 0 0 .657-.492l2.992-5.992 2.992 5.992a.91.91 0 0 0 .68.492l6.632.96-4.789 4.634a.91.91 0 0 0-.265.796l1.132 6.555-5.804-3.023a.894.894 0 0 0-.82 0l-6.11 3.062 1.14-6.586a.889.889 0 0 0-.28-.78l-4.79-4.633 6.633-.985ZM49.108 27.64a3.476 3.476 0 0 0-2.399-1.195 3.398 3.398 0 0 0-2.523.875l-8.296 7.453a5.462 5.462 0 0 0-.094-.492 3.76 3.76 0 0 0-1.985-2.399c-1.539-.648-3.68-.344-5.742-.047-1.21.235-2.445.313-3.671.227a7.136 7.136 0 0 1-1.579-.601c-1.57-.704-3.718-1.657-7.718-.782a12.672 12.672 0 0 0-5.515 3.04v-2.196a.898.898 0 0 0-.899-.898H.898a.917.917 0 0 0-.898.913v17.367c0 .492.398.898.898.898H8.68c.5 0 .899-.398.899-.898v-1.242c1.195.28 6.632 1.546 10.656 1.546 4.195 0 9.32-.96 12.476-2.328 5.813-2.523 15.39-13.398 16.171-14.28a3.575 3.575 0 0 0 .226-4.961ZM7.78 48.007H1.796v-15.57h5.992v15.57H7.78Zm39.851-16.719-.086.086c-.102.117-9.991 11.445-15.57 13.86-2.937 1.273-7.773 2.171-11.742 2.171-4.195 0-10.374-1.53-10.437-1.547a1.037 1.037 0 0 0-.218 0V36.28c.656-.75 2.96-3.18 5.905-3.828 3.422-.75 5.117 0 6.586.664a8.555 8.555 0 0 0 2 .696 14.53 14.53 0 0 0 4.234-.22c1.742-.241 3.719-.514 4.789-.061.469.265.805.71.937 1.234a2.296 2.296 0 0 1-.484 2.039c-1.367 1.835-9.671 4.578-13.078 4.304a.906.906 0 0 0-.97.828c-.038.5.337.93.829.969h.601c3.719 0 10.82-2.195 13.422-4.383l.062-.039 10.921-9.82a1.68 1.68 0 0 1 1.195-.422c.461.031.899.242 1.195.602.65.703.603 1.797-.092 2.445h.001Z"/></svg>