<svg xmlns="http://www.w3.org/2000/svg" width="50" height="50" fill="none"><g fill="#29B384" fill-rule="evenodd" clip-path="url(#a)" clip-rule="evenodd"><path d="M40.065 14.602c.15-.047.35.048.549.31l8.992 8.762c.525.523.525 1.315 0 1.704l-8.992 8.897c-.2.262-.398.325-.55.246-.15-.08-.246-.31-.246-.642V15.173c0-.325.095-.523.247-.57ZM24.682 0h.637l.612.254 9.255 9.159c.398.523.263.919-.398.919h-3.835c-.66 0-1.186.523-1.186 1.18v6.798c0 .658-.533 1.18-1.329 1.18h-6.74c-.66 0-1.194-.522-1.194-1.18v-6.798c0-.657-.525-1.18-1.194-1.18h-4.098c-.66 0-.796-.396-.398-.92L24.077.255 24.682 0ZM10.182 14.404c.167.08.27.309.27.642V34.14c0 .333-.103.531-.27.594-.159.064-.39 0-.66-.198L.394 25.377c-.525-.388-.525-1.18 0-1.703l9.128-9.024c.27-.262.501-.325.66-.246ZM21.698 29.434h6.74c.796 0 1.329.523 1.329 1.18v7.195c0 .784.525 1.307 1.186 1.307h3.573c.66 0 .923.388.398.785l-8.993 9.024c-.27.261-.597.396-.93.396-.327 0-.661-.135-.924-.396L15.084 39.9c-.533-.397-.27-.785.39-.785h3.836c.669 0 1.194-.523 1.194-1.307v-7.194c0-.658.533-1.18 1.194-1.18Z"/></g><defs><clipPath id="a"><path fill="#fff" d="M0 0h50v50H0z"/></clipPath></defs></svg>