<svg xmlns="http://www.w3.org/2000/svg" width="50" height="50" fill="none"><path fill="#29B384" d="M49.242 27.352H22.768a.757.757 0 1 1 0-1.515h25.716V6.515H16.29v19.322h1.053a.757.757 0 1 1 0 1.515h-1.81a.757.757 0 0 1-.758-.757V5.758c0-.419.339-.758.758-.758h33.71c.419 0 .758.339.758.758v20.837a.757.757 0 0 1-.758.757Z"/><path fill="#29B384" d="M16.205 39.887a.75.75 0 0 1-.126-.01l-12.996-2.17a.757.757 0 0 1-.622-.875l1.951-11.306a6.614 6.614 0 0 1 2.696-4.136l7.991-5.55a.758.758 0 0 1 .864 1.245l-7.993 5.55a5.08 5.08 0 0 0-2.069 3.167L4.083 36.339l11.5 1.918.577-3.431a.76.76 0 0 1 .152-.342l5.355-6.82c.238-.303.357-.663.345-1.043a1.616 1.616 0 0 0-1.05-1.484 1.67 1.67 0 0 0-1.832.49l-4.241 5.127a.757.757 0 0 1-1.024.134l-2.15-1.536a.755.755 0 0 1-.294-.433 6.562 6.562 0 0 1 2.62-6.95l1.06-.73a.758.758 0 0 1 .86 1.247l-1.058.728a5.044 5.044 0 0 0-2.07 5.075l1.338.956 3.796-4.59a3.161 3.161 0 0 1 3.517-.94c1.222.468 2.017 1.59 2.041 2.866a3.064 3.064 0 0 1-.669 2.02l-5.235 6.667-.67 3.987a.756.756 0 0 1-.746.632Z"/><path fill="#29B384" d="M17.108 44.39a.744.744 0 0 1-.126-.01L.632 41.64a.758.758 0 0 1-.622-.872l.71-4.233a.76.76 0 0 1 .872-.622l16.349 2.74a.76.76 0 0 1 .622.872l-.71 4.233a.758.758 0 0 1-.746.632ZM1.63 40.272l14.854 2.488.46-2.739-14.856-2.488-.458 2.739ZM49.242 14.106h-33.71a.757.757 0 0 1-.758-.758v-3.7c0-.418.339-.757.758-.757h33.71c.419 0 .758.339.758.757v3.7a.757.757 0 0 1-.758.758Zm-32.953-1.515h32.195v-2.185H16.29v2.185ZM44.244 24.356a2.524 2.524 0 0 1-1.444-.457 2.526 2.526 0 0 1-3.978-2.076 2.535 2.535 0 0 1 2.532-2.531c.522 0 1.026.163 1.446.456.419-.293.922-.456 1.444-.456a2.535 2.535 0 0 1 2.532 2.531 2.535 2.535 0 0 1-2.532 2.533ZM42.8 22.09c.244 0 .474.119.616.319.196.274.497.431.828.431.56 0 1.017-.457 1.017-1.017 0-.56-.457-1.017-1.017-1.017-.331 0-.632.157-.828.431-.284.399-.95.399-1.234 0a1.008 1.008 0 0 0-.827-.43 1.018 1.018 0 0 0 0 2.033c.33 0 .632-.157.827-.431a.758.758 0 0 1 .617-.319Z"/></svg>