<svg xmlns="http://www.w3.org/2000/svg" width="50" height="50" fill="none"><g fill="#29B384" clip-path="url(#a)"><path d="M43.392 3.668 24.79.018a.995.995 0 0 0-.383 0L5.805 3.669A.997.997 0 0 0 5 4.647v22.309c0 3.429.887 6.822 2.565 9.812a20.093 20.093 0 0 0 7.039 7.302l9.475 5.784a.998.998 0 0 0 1.04 0l9.474-5.784a20.093 20.093 0 0 0 7.04-7.302 20.094 20.094 0 0 0 2.564-9.812V4.647a.997.997 0 0 0-.806-.979Zm-1.19 23.287c0 3.088-.798 6.144-2.31 8.837a18.095 18.095 0 0 1-6.338 6.575l-8.956 5.467-8.956-5.467a18.098 18.098 0 0 1-6.338-6.576 18.096 18.096 0 0 1-2.31-8.836V5.468l17.604-3.454L42.2 5.468l.001 21.487Z"/><path d="M24.405 4.787 10.625 7.49a.997.997 0 0 0-.805.98v18.122c0 2.584.668 5.141 1.933 7.395a15.145 15.145 0 0 0 5.305 5.503l7.02 4.285a.998.998 0 0 0 1.039 0l7.02-4.285a15.147 15.147 0 0 0 5.305-5.503 15.144 15.144 0 0 0 1.933-7.395V8.469a.998.998 0 0 0-.806-.979L24.79 4.787a.995.995 0 0 0-.384 0ZM37.38 9.29V26.59c0 2.244-.58 4.463-1.678 6.42a13.147 13.147 0 0 1-4.605 4.777l-6.5 3.967-6.5-3.967a13.145 13.145 0 0 1-4.604-4.777 13.145 13.145 0 0 1-1.678-6.42V9.29l12.782-2.508L37.38 9.29Z"/><path d="M19.2 24.403a.998.998 0 0 0-1.41 1.41l3.56 3.56a.997.997 0 0 0 1.41 0l8.646-8.646a.998.998 0 0 0-1.41-1.41l-7.941 7.94-2.854-2.854Z"/></g><defs><clipPath id="a"><path fill="#fff" d="M0 0h50v50H0z"/></clipPath></defs></svg>