<svg xmlns="http://www.w3.org/2000/svg" width="40" height="40" fill="none"><path fill="#29B384" d="M.834 22.5a.836.836 0 0 1-.833-.834c0-5.483 3.683-9.166 9.166-9.166h20a.835.835 0 0 1 0 1.667h-20c-4.553 0-7.5 2.945-7.5 7.5a.836.836 0 0 1-.833.833ZM30.834 29.166h-30a.836.836 0 0 1-.833-.833c0-.458.375-.833.833-.833h30c4.553 0 7.5-2.947 7.5-7.5 0-.46.374-.834.833-.834.458 0 .833.374.833.834 0 5.483-3.683 9.166-9.166 9.166Z"/><path fill="#29B384" d="M4.167 32.5a.838.838 0 0 1-.59-.244L.244 28.923a.834.834 0 0 1 0-1.178l3.333-3.334a.837.837 0 0 1 1.178 0 .837.837 0 0 1 0 1.178l-2.743 2.744 2.744 2.743a.837.837 0 0 1 0 1.178.826.826 0 0 1-.589.245ZM34.166 19.166a5.84 5.84 0 0 1-5.832-5.833A5.84 5.84 0 0 1 34.166 7.5 5.84 5.84 0 0 1 40 13.333a5.84 5.84 0 0 1-5.834 5.833Zm0-10A4.171 4.171 0 0 0 30 13.334a4.171 4.171 0 0 0 4.166 4.167 4.171 4.171 0 0 0 4.167-4.167 4.171 4.171 0 0 0-4.166-4.166Z"/><path fill="#29B384" d="M34.167 15.834a.835.835 0 0 1-.834-.834v-3.333c0-.46.376-.834.834-.834.458 0 .833.374.833.834V15c0 .46-.375.834-.833.834Z"/></svg>