<svg width="47" height="54" viewBox="0 0 47 54" fill="none" xmlns="http://www.w3.org/2000/svg">
<path d="M33.9525 6.12519L33.9311 6.11805L33.9092 6.11222C30.6233 5.23263 27.5516 3.73347 24.8705 1.70239C24.5562 1.42311 24.1527 1.26459 23.7337 1.25058L23.7337 1.25047L23.7213 1.25026C23.2681 1.2426 22.8253 1.40258 22.4841 1.7032C19.8309 3.75009 16.7704 5.25077 13.491 6.11126L13.4664 6.11772L13.4423 6.12582C12.3113 6.50608 9.70464 7.0565 7.30334 7.51924C6.11496 7.74825 4.99532 7.95239 4.16303 8.09918C3.74678 8.17259 3.40352 8.23147 3.1602 8.27183C3.0382 8.29207 2.94328 8.30733 2.87761 8.31736C2.85591 8.32068 2.83868 8.32323 2.82551 8.32511H2.80996L2.75227 8.33415C2.34254 8.39834 1.96453 8.60138 1.68767 8.91361C1.41029 9.22644 1.25312 9.62842 1.25002 10.0489L1.25 10.0489V10.0544C1.25 26.1906 1.43425 33.9129 6.71184 41.7507C9.00891 45.1653 13.0208 47.8543 16.4345 49.6943C19.6722 51.4395 22.471 52.4721 22.9825 52.6608C23.0139 52.6724 23.0368 52.6808 23.0505 52.686L23.1158 52.7107L23.1846 52.7229C23.3629 52.7546 23.545 52.7585 23.7242 52.7345H24.0188H24.1559L24.2841 52.686C24.2988 52.6805 24.324 52.6712 24.3594 52.6582C24.8907 52.4631 27.6981 51.4319 30.9398 49.6952C34.3735 47.8557 38.4074 45.1666 40.7053 41.751C45.9831 33.9131 46.1673 26.1908 46.1673 10.0544L46.1673 10.0489C46.1642 9.62841 46.007 9.22644 45.7296 8.91361C45.4541 8.60286 45.0784 8.40027 44.6709 8.33507L44.6692 8.33479L44.6513 8.33173L44.5809 8.31962L44.3103 8.2728C44.0758 8.23204 43.7379 8.17288 43.3249 8.09938C42.4986 7.95235 41.3725 7.74807 40.1721 7.51899C37.746 7.05599 35.0937 6.50559 33.9525 6.12519ZM2.79261 8.32941C2.79285 8.32934 2.7961 8.32892 2.80163 8.32838C2.79513 8.32921 2.79236 8.32948 2.79261 8.32941ZM14.5851 9.62328L14.6075 9.61774L14.6295 9.61083C17.871 8.5936 20.9346 7.10854 23.7168 5.20622C26.5279 7.0559 29.6101 8.48792 32.8607 9.45426L32.8774 9.45922L32.8943 9.46341C36.1141 10.2599 39.3729 10.9007 42.6584 11.3834C42.5664 27.5703 42.0682 33.3028 37.7244 39.754L37.5965 39.944V40.0194C35.8764 42.458 32.8893 44.5698 30.0045 46.1864C27.3091 47.6969 24.7861 48.7301 23.6675 49.1628C22.5532 48.7306 20.0495 47.6977 17.3734 46.1875C14.4371 44.5305 11.3909 42.3524 9.69294 39.834C5.34972 33.3836 4.85085 27.6514 4.81854 11.5437C8.10492 11.0611 11.3645 10.4202 14.5851 9.62328Z" stroke="#29B384" stroke-width="1.5"/>
<path d="M24.0818 39.1272C30.4735 39.1272 35.6549 33.9458 35.6549 27.5541C35.6549 21.1625 30.4735 15.9811 24.0818 15.9811C17.6902 15.9811 12.5088 21.1625 12.5088 27.5541C12.5088 33.9458 17.6902 39.1272 24.0818 39.1272Z" stroke="#29B384" stroke-width="1.5"/>
<path d="M18.1787 27.5542L22.6063 31.9818L29.9857 23.6185" stroke="#29B384" stroke-width="1.5" stroke-linecap="round" stroke-linejoin="round"/>
</svg>
