<svg width="53" height="52" viewBox="0 0 53 52" fill="none" xmlns="http://www.w3.org/2000/svg">
<path d="M21.9216 31.8825L9.27134 13.2551C8.78479 8.35312 13.3259 8.67993 15.1099 9.82372L24.8402 22.5688C24.451 16.6865 28.8948 18.4838 31.1653 20.1178C31.5546 15.412 34.8956 16.1963 36.5174 17.1767L38.9501 20.1178C38.1717 17.3727 40.572 17.0133 41.8694 17.1767C46.9295 19.1374 50.7895 34.0067 52.087 41.1963L35.5443 51.0002L18.5158 38.7453C15.0126 35.608 17.0561 32.8629 18.5158 31.8825M7.81169 15.2159L3.9193 18.157M6.35204 9.82372H1M7.81169 6.88254L5.37894 3.94136M12.1906 4.92175V1.00018M16.5696 6.88254L18.5158 3.94136" stroke="#29B384" stroke-width="1.5" stroke-linecap="round" stroke-linejoin="round"/>
</svg>
