<svg xmlns="http://www.w3.org/2000/svg" width="40" height="40" fill="none"><g clip-path="url(#a)"><path fill="#29B384" d="M19.99 0a.69.69 0 0 0-.68.7v1.864C8.67 2.922.18 11.541 0 22.23a.69.69 0 0 0 1.121.55 9.283 9.283 0 0 1 5.842-2.05c2.298 0 4.382.825 6.005 2.19a.69.69 0 0 0 1.034-.005 9.273 9.273 0 0 1 5.308-2.16v15.752c0 1.183-.93 2.113-2.113 2.113a2.094 2.094 0 0 1-2.113-2.113v-1.411a.69.69 0 1 0-1.379 0v1.411A3.5 3.5 0 0 0 17.198 40a3.5 3.5 0 0 0 3.492-3.493V20.756c2.02.146 3.85.934 5.306 2.157a.69.69 0 0 0 1.038.005 9.274 9.274 0 0 1 6.003-2.19c2.22 0 4.244.768 5.842 2.05a.69.69 0 0 0 1.12-.55C39.822 11.54 31.333 2.922 20.69 2.564V.7a.69.69 0 0 0-.7-.7ZM20 3.933h.128l.02.013c1.607.946 3.089 3.011 4.132 5.798 1.043 2.787 1.658 6.272 1.658 9.98 0 .47-.01.94-.03 1.407a10.657 10.657 0 0 0-5.909-1.78c-2.187 0-4.217.658-5.909 1.78a31.5 31.5 0 0 1-.03-1.406c0-3.709.615-7.194 1.658-9.981s2.525-4.852 4.131-5.798l.021-.013H20Zm-2.528.168c-1.242 1.286-2.26 3.065-3.044 5.16-1.113 2.972-1.746 6.604-1.746 10.463 0 .434.008.867.024 1.3a10.654 10.654 0 0 0-5.744-1.673c-2.014 0-3.897.557-5.504 1.52C2.236 12.177 8.899 5.25 17.47 4.1h.001Zm5.056 0c8.573 1.15 15.235 8.078 16.014 16.77a10.674 10.674 0 0 0-5.505-1.52c-2.116 0-4.086.616-5.743 1.672.015-.432.023-.865.023-1.299 0-3.86-.633-7.491-1.745-10.463-.785-2.095-1.802-3.875-3.045-5.16h.001Z"/></g><defs><clipPath id="a"><path fill="#fff" d="M0 0h40v40H0z"/></clipPath></defs></svg>